<svg width="52" height="71" viewBox="0 0 52 71" fill="none" xmlns="http://www.w3.org/2000/svg">
<path d="M12.7088 21.6103H39.2946V13.2909C39.2946 10.5983 38.158 8.14704 36.3275 6.37128C34.4969 4.59539 31.9704 3.49278 29.1948 3.49278H22.8109C20.0354 3.49278 17.5087 4.59539 15.6783 6.37128C13.8477 8.14717 12.7112 10.5983 12.7112 13.2909V21.6103H12.7088ZM26.003 36.5007C27.7234 36.5007 29.281 37.178 30.4089 38.2701C31.5367 39.3643 32.2327 40.8753 32.2327 42.5444C32.2327 43.4418 32.0258 44.301 31.6576 45.0746C31.446 45.5194 31.1771 45.9357 30.8621 46.3164L33.7212 54.7342C34.0121 55.5913 33.5317 56.5166 32.6482 56.7987C32.474 56.8544 32.2958 56.8822 32.1216 56.8822H19.8871C18.9554 56.8822 18.2019 56.1493 18.2019 55.2455C18.2019 55.0422 18.2393 54.848 18.31 54.6686L21.147 46.3169C20.832 45.9363 20.5631 45.5199 20.3516 45.0752C19.9838 44.2995 19.7764 43.4424 19.7764 42.545C19.7764 40.8759 20.4745 39.3649 21.6003 38.2707C22.7281 37.1765 24.2856 36.5013 26.0061 36.5013L26.003 36.5007ZM28.023 40.5846C27.5078 40.0823 26.7917 39.7727 26.003 39.7727C25.2143 39.7727 24.5008 40.0828 23.983 40.5846C23.4652 41.0845 23.1461 41.7791 23.1461 42.5443C23.1461 42.9652 23.2388 43.3587 23.4058 43.707C23.5645 44.0404 23.7848 44.3376 24.0511 44.5766C24.6283 44.9825 24.8972 45.7199 24.6611 46.4121L22.216 53.6075H29.7917L27.3466 46.4121L27.3532 46.4101C27.1463 45.8009 27.3246 45.1024 27.8598 44.6601C28.1681 44.4057 28.4237 44.0807 28.5999 43.707C28.7674 43.3587 28.8596 42.9657 28.8596 42.5443C28.8596 41.7791 28.54 41.0849 28.0227 40.5846L28.023 40.5846ZM42.669 21.7038C45.0589 22.0158 47.2069 23.097 48.8368 24.6787C50.7887 26.5724 52 29.1855 52 32.0599V59.5766C52 62.4531 50.7887 65.0667 48.8368 66.9599C46.8848 68.8536 44.1912 70.0287 41.2262 70.0287H10.7738C7.8088 70.0287 5.11469 68.8536 3.16325 66.9599C1.21128 65.0662 0 62.4531 0 59.5766V32.0599C0 29.1835 1.21132 26.5698 3.16325 24.6787C4.79358 23.097 6.94105 22.0158 9.33096 21.7038V13.2904C9.33096 9.69396 10.8466 6.42635 13.2871 4.0582C15.7276 1.69056 19.0958 0.220215 22.8034 0.220215H29.1874C32.8945 0.220215 36.2627 1.69056 38.7037 4.0582C41.1443 6.42585 42.6599 9.69345 42.6599 13.2904V21.7038H42.669ZM41.2283 24.8813H10.7785C8.74512 24.8813 6.89516 25.6893 5.55316 26.9906C4.21181 28.2919 3.37894 30.0873 3.37894 32.0599V59.5766C3.37894 61.5493 4.21176 63.344 5.55316 64.6459C6.8945 65.9472 8.74512 66.7552 10.7785 66.7552H41.2309C43.2643 66.7552 45.1143 65.9473 46.4563 64.6459C47.7976 63.3447 48.6305 61.5493 48.6305 59.5766V32.0599C48.6305 30.0873 47.7977 28.2925 46.4563 26.9906C45.1149 25.6893 43.2643 24.8813 41.2309 24.8813H41.2283Z" fill="#910010"/>
</svg>
