<svg width="70" height="71" viewBox="0 0 70 71" fill="none" xmlns="http://www.w3.org/2000/svg">
<path fill-rule="evenodd" clip-rule="evenodd" d="M34.9995 27.9329C35.5293 27.9329 35.958 28.367 35.958 28.9027V34.7197H56.5744C57.1042 34.7197 57.5329 35.1538 57.5329 35.6895V42.4762C57.5329 43.0118 57.1042 43.446 56.5744 43.446C56.0447 43.446 55.6152 43.0118 55.6152 42.4762V36.6592H13.4235V42.4762C13.4235 43.0118 12.9941 43.446 12.4644 43.446C11.9346 43.446 11.5059 43.0118 11.5059 42.4762V35.6895C11.5059 35.1538 11.9346 34.7197 12.4644 34.7197H34.0397V28.9027C34.0397 28.367 34.4691 27.9329 34.9988 27.9329H34.9995Z" fill="#910010"/>
<path fill-rule="evenodd" clip-rule="evenodd" d="M23.0146 2.72478H46.0282V15.3284H23.0146V2.72478ZM23.0146 17.2681V20.1762H46.0282V17.2681H23.0146ZM21.0969 2.72478C21.0969 1.65351 21.9551 0.785156 23.0146 0.785156H46.0282C47.0877 0.785156 47.9458 1.65353 47.9458 2.72478V20.1767C47.9458 21.248 47.0877 22.1163 46.0282 22.1163H35.4806V25.0245H39.3159C39.8456 25.0245 40.2751 25.4587 40.2751 25.9943C40.2751 26.53 39.8456 26.9641 39.3159 26.9641H29.7269C29.1971 26.9641 28.7677 26.53 28.7677 25.9943C28.7677 25.4587 29.1971 25.0245 29.7269 25.0245H33.5621V22.1163H23.0146C21.9551 22.1163 21.0969 21.248 21.0969 20.1767V2.72478Z" fill="#910010"/>
<path fill-rule="evenodd" clip-rule="evenodd" d="M45.0687 46.3542H68.0824V58.9578H45.0687V46.3542ZM45.0687 60.8975V63.8056H68.0824V60.8975H45.0687ZM43.1504 46.3542C43.1504 45.2829 44.0092 44.4146 45.0687 44.4146H68.0824C69.1419 44.4146 70 45.2829 70 46.3542V63.8061C70 64.8774 69.1418 65.7457 68.0824 65.7457H57.5341V68.6539H61.37C61.8998 68.6539 62.3286 69.0881 62.3286 69.6237C62.3286 70.1593 61.8998 70.5935 61.37 70.5935H51.781C51.2513 70.5935 50.8218 70.1593 50.8218 69.6237C50.8218 69.0881 51.2513 68.6539 51.781 68.6539H55.6163V65.7457H45.0687C44.0092 65.7457 43.1504 64.8774 43.1504 63.8061V46.3542Z" fill="#910010"/>
<path fill-rule="evenodd" clip-rule="evenodd" d="M1.91832 46.3542H24.932V58.9578H1.91832V46.3542ZM1.91832 60.8975V63.8056H24.932V60.8975H1.91832ZM0 46.3542C0 45.2829 0.858834 44.4146 1.91832 44.4146H24.932C25.9915 44.4146 26.8496 45.2829 26.8496 46.3542V63.8061C26.8496 64.8774 25.9914 65.7457 24.932 65.7457H14.3837V68.6539H18.2197C18.7494 68.6539 19.1782 69.0881 19.1782 69.6237C19.1782 70.1593 18.7494 70.5935 18.2197 70.5935H8.63063C8.10087 70.5935 7.67146 70.1593 7.67146 69.6237C7.67146 69.0881 8.10087 68.6539 8.63063 68.6539H12.4659V65.7457H1.91832C0.858817 65.7457 0 64.8774 0 63.8061V46.3542Z" fill="#910010"/>
</svg>
