<svg width="68" height="71" viewBox="0 0 68 71" fill="none" xmlns="http://www.w3.org/2000/svg">
<mask id="path-1-inside-1_158_20" fill="white">
<path d="M65.7441 27.0385L61.523 26.8825C60.0376 26.8048 58.8652 27.2722 57.9267 28.1292C55.9724 30.077 56.0504 33.5053 56.0504 37.245C56.1284 40.2836 56.1284 43.7117 54.7995 45.0362C54.3306 45.5036 53.6271 45.7373 52.6887 45.7373H52.1412C52.2977 45.2699 52.3757 44.8026 52.3757 44.3352V42.6211C52.3757 40.2836 50.4994 38.4141 48.1546 38.4141H34.9436V37.012V36.856H40.4156C44.4808 36.856 48.5454 34.9859 51.0473 31.9474C53.0797 29.4539 53.9396 26.5713 53.3926 23.6104L50.6563 8.72913C49.7969 3.89869 46.5916 0.782471 42.5265 0.782471H24.5465C20.4813 0.782471 17.2766 3.89869 16.3381 8.72969L13.6017 23.611C13.0542 26.4936 13.9142 29.4544 15.9471 31.9479C18.5268 34.9865 22.5921 36.8565 26.5787 36.8565H32.0507V37.0125V38.4147L18.9178 38.4141C16.5725 38.4141 14.6967 40.2842 14.6967 42.6211V44.3352C14.6967 44.8026 14.7747 45.27 14.9312 45.7373H14.3837C13.4458 45.7373 12.7418 45.5037 12.2729 45.0363C10.944 43.7118 11.022 40.2836 11.022 37.245C11.0999 33.5831 11.0999 30.0771 9.14565 28.1292C8.28571 27.2722 7.03481 26.8048 5.62796 26.8825L1.40685 27.0385C0.624888 27.0385 0 27.7396 0 28.519C0 29.2983 0.703439 29.8434 1.48544 29.9211L5.70655 29.7651C6.56649 29.7651 6.95746 29.9988 7.192 30.2325C8.2864 31.3233 8.20842 34.4395 8.20842 37.2444C8.13045 40.984 8.13045 44.8797 10.3193 47.0612C11.3357 48.0743 12.7425 48.6193 14.4625 48.5417H15.1659H17.9023C17.9803 48.5417 18.0588 48.5417 18.1368 48.464C18.3712 48.5417 18.6842 48.5417 18.9187 48.5417H32.1302V54.5411C30.2539 54.6188 28.4561 54.9308 26.7361 55.3982C24.6253 56.0215 22.7494 56.8003 21.1076 57.8917C19.4657 58.9824 18.1368 60.3068 17.1989 61.7873C17.1209 61.9433 17.0424 62.021 17.0424 62.177C14.8535 62.2547 13.0557 64.1248 13.0557 66.384C13.0557 68.7215 14.932 70.591 17.2768 70.591C19.6221 70.591 21.4979 68.7209 21.4979 66.384C21.4979 64.9818 20.8724 63.8128 19.856 63.034C20.5594 62.021 21.5758 61.0862 22.7483 60.3068C24.1551 59.372 25.797 58.6703 27.5949 58.1252C29.0803 57.7356 30.6437 57.4241 32.207 57.3459V62.4099C30.5651 62.9556 29.3928 64.5137 29.3928 66.3833C29.3928 68.7208 31.2691 70.5903 33.6139 70.5903C35.9592 70.5903 37.835 68.7203 37.835 66.3833C37.835 64.5915 36.6626 63.0334 35.0207 62.4099V57.3459C36.5841 57.4236 38.1474 57.6573 39.6328 58.1252C41.4307 58.5926 43.0726 59.372 44.4795 60.3068C45.7304 61.0861 46.6683 62.0209 47.3718 63.034C46.3553 63.8133 45.7298 64.9818 45.7298 66.384C45.7298 68.7215 47.6062 70.591 49.9509 70.591C52.2963 70.591 54.1721 68.7209 54.1721 66.384C54.1721 64.1248 52.3742 62.3324 50.1853 62.177C50.1853 62.021 50.1074 61.9433 50.0288 61.7873C49.0909 60.3068 47.7621 59.0601 46.1201 57.8917C44.4782 56.8009 42.6025 55.9438 40.4916 55.3982C38.7718 54.9308 36.9739 54.6188 35.0975 54.5411V48.5417H48.309C48.6215 48.5417 48.8565 48.5417 49.091 48.464C49.1689 48.464 49.2475 48.464 49.3254 48.5417H52.0618H52.7653C54.4851 48.5417 55.8919 48.0743 56.9085 47.0612C59.0973 44.8797 59.0193 40.984 59.0193 37.2444C59.0193 34.4395 58.9413 31.245 60.0357 30.2325C60.2702 29.9988 60.6612 29.7651 61.5212 29.7651L65.7423 29.9211C66.4457 29.9211 67.1491 29.2977 67.2277 28.519C67.0729 27.7396 66.5259 27.1163 65.744 27.0385L65.7441 27.0385ZM17.1981 67.7867C16.4162 67.7867 15.7913 67.1634 15.7913 66.3846C15.7913 65.6052 16.4168 64.9824 17.1981 64.9824C17.9801 64.9824 18.605 65.6058 18.605 66.3846C18.605 67.1634 17.9795 67.7867 17.1981 67.7867ZM49.8748 65.0601C50.6568 65.0601 51.2817 65.6835 51.2817 66.4622C51.2817 67.2416 50.6562 67.8644 49.8748 67.8644C49.0929 67.8644 48.468 67.241 48.468 66.4622C48.468 65.6834 49.0934 65.0601 49.8748 65.0601ZM26.6572 33.973C23.4519 33.973 20.1688 32.4925 18.1364 30.0773C17.042 28.8306 15.8696 26.7274 16.4165 24.0779L19.1529 9.19664C19.6219 6.62552 21.3418 3.58693 24.547 3.58693H42.4489C45.6541 3.58693 47.374 6.62552 47.843 9.19664L50.5794 24.0779C51.0483 26.7268 49.8759 28.8306 48.8595 30.0773C46.8272 32.4925 43.6219 33.973 40.4168 33.973H26.6572ZM33.5366 67.787C32.7547 67.787 32.1298 67.1637 32.1298 66.3849C32.1298 65.6055 32.7552 64.9827 33.5366 64.9827C34.3186 64.9827 34.9435 65.6061 34.9435 66.3849C34.9435 67.1637 34.3186 67.787 33.5366 67.787ZM49.5623 44.3353C49.5623 45.1147 48.9368 45.7375 48.1554 45.7375H18.9184C18.1364 45.7375 17.5115 45.1141 17.5115 44.3353V42.6213C17.5115 41.8419 18.137 41.2191 18.9184 41.2191H48.0772C48.8592 41.2191 49.4841 41.8425 49.4841 42.6213V44.3353H49.5623Z"/>
</mask>
<path d="M65.7441 27.0385L61.523 26.8825C60.0376 26.8048 58.8652 27.2722 57.9267 28.1292C55.9724 30.077 56.0504 33.5053 56.0504 37.245C56.1284 40.2836 56.1284 43.7117 54.7995 45.0362C54.3306 45.5036 53.6271 45.7373 52.6887 45.7373H52.1412C52.2977 45.2699 52.3757 44.8026 52.3757 44.3352V42.6211C52.3757 40.2836 50.4994 38.4141 48.1546 38.4141H34.9436V37.012V36.856H40.4156C44.4808 36.856 48.5454 34.9859 51.0473 31.9474C53.0797 29.4539 53.9396 26.5713 53.3926 23.6104L50.6563 8.72913C49.7969 3.89869 46.5916 0.782471 42.5265 0.782471H24.5465C20.4813 0.782471 17.2766 3.89869 16.3381 8.72969L13.6017 23.611C13.0542 26.4936 13.9142 29.4544 15.9471 31.9479C18.5268 34.9865 22.5921 36.8565 26.5787 36.8565H32.0507V37.0125V38.4147L18.9178 38.4141C16.5725 38.4141 14.6967 40.2842 14.6967 42.6211V44.3352C14.6967 44.8026 14.7747 45.27 14.9312 45.7373H14.3837C13.4458 45.7373 12.7418 45.5037 12.2729 45.0363C10.944 43.7118 11.022 40.2836 11.022 37.245C11.0999 33.5831 11.0999 30.0771 9.14565 28.1292C8.28571 27.2722 7.03481 26.8048 5.62796 26.8825L1.40685 27.0385C0.624888 27.0385 0 27.7396 0 28.519C0 29.2983 0.703439 29.8434 1.48544 29.9211L5.70655 29.7651C6.56649 29.7651 6.95746 29.9988 7.192 30.2325C8.2864 31.3233 8.20842 34.4395 8.20842 37.2444C8.13045 40.984 8.13045 44.8797 10.3193 47.0612C11.3357 48.0743 12.7425 48.6193 14.4625 48.5417H15.1659H17.9023C17.9803 48.5417 18.0588 48.5417 18.1368 48.464C18.3712 48.5417 18.6842 48.5417 18.9187 48.5417H32.1302V54.5411C30.2539 54.6188 28.4561 54.9308 26.7361 55.3982C24.6253 56.0215 22.7494 56.8003 21.1076 57.8917C19.4657 58.9824 18.1368 60.3068 17.1989 61.7873C17.1209 61.9433 17.0424 62.021 17.0424 62.177C14.8535 62.2547 13.0557 64.1248 13.0557 66.384C13.0557 68.7215 14.932 70.591 17.2768 70.591C19.6221 70.591 21.4979 68.7209 21.4979 66.384C21.4979 64.9818 20.8724 63.8128 19.856 63.034C20.5594 62.021 21.5758 61.0862 22.7483 60.3068C24.1551 59.372 25.797 58.6703 27.5949 58.1252C29.0803 57.7356 30.6437 57.4241 32.207 57.3459V62.4099C30.5651 62.9556 29.3928 64.5137 29.3928 66.3833C29.3928 68.7208 31.2691 70.5903 33.6139 70.5903C35.9592 70.5903 37.835 68.7203 37.835 66.3833C37.835 64.5915 36.6626 63.0334 35.0207 62.4099V57.3459C36.5841 57.4236 38.1474 57.6573 39.6328 58.1252C41.4307 58.5926 43.0726 59.372 44.4795 60.3068C45.7304 61.0861 46.6683 62.0209 47.3718 63.034C46.3553 63.8133 45.7298 64.9818 45.7298 66.384C45.7298 68.7215 47.6062 70.591 49.9509 70.591C52.2963 70.591 54.1721 68.7209 54.1721 66.384C54.1721 64.1248 52.3742 62.3324 50.1853 62.177C50.1853 62.021 50.1074 61.9433 50.0288 61.7873C49.0909 60.3068 47.7621 59.0601 46.1201 57.8917C44.4782 56.8009 42.6025 55.9438 40.4916 55.3982C38.7718 54.9308 36.9739 54.6188 35.0975 54.5411V48.5417H48.309C48.6215 48.5417 48.8565 48.5417 49.091 48.464C49.1689 48.464 49.2475 48.464 49.3254 48.5417H52.0618H52.7653C54.4851 48.5417 55.8919 48.0743 56.9085 47.0612C59.0973 44.8797 59.0193 40.984 59.0193 37.2444C59.0193 34.4395 58.9413 31.245 60.0357 30.2325C60.2702 29.9988 60.6612 29.7651 61.5212 29.7651L65.7423 29.9211C66.4457 29.9211 67.1491 29.2977 67.2277 28.519C67.0729 27.7396 66.5259 27.1163 65.744 27.0385L65.7441 27.0385ZM17.1981 67.7867C16.4162 67.7867 15.7913 67.1634 15.7913 66.3846C15.7913 65.6052 16.4168 64.9824 17.1981 64.9824C17.9801 64.9824 18.605 65.6058 18.605 66.3846C18.605 67.1634 17.9795 67.7867 17.1981 67.7867ZM49.8748 65.0601C50.6568 65.0601 51.2817 65.6835 51.2817 66.4622C51.2817 67.2416 50.6562 67.8644 49.8748 67.8644C49.0929 67.8644 48.468 67.241 48.468 66.4622C48.468 65.6834 49.0934 65.0601 49.8748 65.0601ZM26.6572 33.973C23.4519 33.973 20.1688 32.4925 18.1364 30.0773C17.042 28.8306 15.8696 26.7274 16.4165 24.0779L19.1529 9.19664C19.6219 6.62552 21.3418 3.58693 24.547 3.58693H42.4489C45.6541 3.58693 47.374 6.62552 47.843 9.19664L50.5794 24.0779C51.0483 26.7268 49.8759 28.8306 48.8595 30.0773C46.8272 32.4925 43.6219 33.973 40.4168 33.973H26.6572ZM33.5366 67.787C32.7547 67.787 32.1298 67.1637 32.1298 66.3849C32.1298 65.6055 32.7552 64.9827 33.5366 64.9827C34.3186 64.9827 34.9435 65.6061 34.9435 66.3849C34.9435 67.1637 34.3186 67.787 33.5366 67.787ZM49.5623 44.3353C49.5623 45.1147 48.9368 45.7375 48.1554 45.7375H18.9184C18.1364 45.7375 17.5115 45.1141 17.5115 44.3353V42.6213C17.5115 41.8419 18.137 41.2191 18.9184 41.2191H48.0772C48.8592 41.2191 49.4841 41.8425 49.4841 42.6213V44.3353H49.5623Z" fill="#910010" stroke="#0099B5" stroke-width="2.66667" mask="url(#path-1-inside-1_158_20)"/>
</svg>
