<svg width="70" height="71" viewBox="0 0 70 71" fill="none" xmlns="http://www.w3.org/2000/svg">
<path d="M35 0.220215C15.7013 0.220215 0 15.8786 0 35.1245C0 54.3703 15.7013 70.0287 35 70.0287C54.2987 70.0287 70 54.3703 70 35.1245C70 15.8786 54.2987 0.220215 35 0.220215ZM35 66.7049C17.5395 66.7049 3.3329 52.5385 3.3329 35.1245C3.3329 17.7104 17.5382 3.54399 35 3.54399C52.4618 3.54399 66.6671 17.7104 66.6671 35.1245C66.6671 52.5385 52.4618 66.7049 35 66.7049Z" fill="#910010"/>
<path d="M51.2966 33.4618H36.6677V11.3002C36.6677 10.3822 35.9214 9.63794 35.0008 9.63794C34.0803 9.63794 33.334 10.3822 33.334 11.3002V35.123C33.334 36.041 34.0803 36.7853 35.0008 36.7853H51.2969C52.2174 36.7853 52.9637 36.041 52.9637 35.123C52.9637 34.205 52.2174 33.4607 51.2969 33.4607L51.2966 33.4618Z" fill="#910010"/>
</svg>
