<svg width="45" height="71" viewBox="0 0 45 71" fill="none" xmlns="http://www.w3.org/2000/svg">
<path d="M13.3522 70.6069H39.9731C40.2918 70.6069 40.5976 70.4833 40.8229 70.2623C41.0488 70.0418 41.1751 69.7425 41.1751 69.4306V68.6099C41.1651 64.4304 41.7952 60.2728 43.0452 56.2759C43.4567 54.9623 43.881 53.722 44.2047 52.7886C44.9863 50.5547 45.196 48.1676 44.8152 45.8362C44.8152 45.8362 43.6887 38.8855 43.6524 38.6518L43.6507 38.6382C43.2481 36.1767 40.758 35.1245 38.6162 35.3909H38.6156C38.0191 35.4593 37.4399 35.6327 36.9066 35.903C36.6612 34.3595 35.6079 33.0541 34.1307 32.4616C32.6537 31.8691 30.9674 32.0759 29.686 33.0071C29.1024 31.8329 28.0395 30.9532 26.7593 30.5855C25.4785 30.2173 24.0986 30.3945 22.9587 31.0735L22.8295 27.4772C25.1597 25.9853 26.7162 23.5789 27.0974 20.8795C27.4787 18.18 26.6474 15.4508 24.8181 13.3964C22.9888 11.3413 20.3405 10.1617 17.5557 10.1611C14.771 10.1611 12.1226 11.3402 10.2928 13.3941C8.46296 15.4486 7.63098 18.1776 8.01169 20.8772C8.39243 23.5767 9.94772 25.983 12.278 27.4761L11.8353 39.9611L8.71617 34.9215H8.71561C7.90216 33.6079 6.47259 32.779 4.90439 32.7117C3.33676 32.6439 1.83783 33.347 0.90982 34.5857C-0.0182481 35.8238 -0.253614 37.434 0.283656 38.8774L4.02604 48.9282C4.99883 54.127 8.62773 59.7121 10.712 62.5873L10.7115 62.5879C11.653 63.8922 12.1556 65.4509 12.1494 67.0481V69.4309C12.1494 69.7428 12.2763 70.042 12.5016 70.2625C12.727 70.4836 13.0328 70.6072 13.352 70.6072L13.3522 70.6069ZM10.3259 19.6191C10.3259 17.2647 11.5229 15.0647 13.5188 13.7506C15.5153 12.437 18.0484 12.1809 20.2764 13.0684C22.5048 13.9558 24.1357 15.8702 24.6271 18.1747C25.1179 20.4792 24.4051 22.8724 22.7251 24.5575L22.6217 21.6948C22.5602 19.9632 21.5801 18.3886 20.037 17.5399C18.4934 16.6913 16.6099 16.6919 15.0668 17.5405C13.5238 18.3896 12.5442 19.9643 12.4832 21.6959L12.3815 24.5563C11.0638 23.2361 10.3258 21.4645 10.3258 19.619L10.3259 19.6191ZM6.37499 48.4164C6.36325 48.3486 6.3448 48.2824 6.32076 48.2178L2.54302 38.074C2.28082 37.3693 2.39486 36.583 2.84772 35.9785C3.30057 35.3734 4.03239 35.0298 4.79777 35.0626C5.56371 35.0955 6.26192 35.4998 6.65894 36.141L11.8673 44.5558C12.143 45.0007 12.6841 45.2157 13.1985 45.0844C13.7134 44.9536 14.0785 44.5071 14.0969 43.9868L14.7035 26.9157C14.7041 26.9075 14.7074 26.8998 14.7074 26.8916L14.8858 21.7781L14.8863 21.7787C14.9171 20.8672 15.432 20.0371 16.2443 19.5896C17.0567 19.1426 18.0484 19.1426 18.8608 19.5896C19.6731 20.0372 20.188 20.8672 20.2188 21.7787L20.6996 35.1828V35.1871L21.0138 43.9871C21.0367 44.6202 21.5673 45.1224 22.2147 45.123L22.2572 45.1224V45.1219C22.5758 45.1115 22.8772 44.9769 23.0947 44.7488C23.3121 44.5206 23.4279 44.2169 23.4167 43.9051L23.145 36.294L23.1455 36.2857L23.1025 35.1045V35.105C23.079 34.4873 23.3144 33.8877 23.7544 33.4446C24.1871 33.026 24.7668 32.7858 25.3745 32.7721C25.9828 32.7585 26.5732 32.9735 27.0249 33.3718C27.4576 33.7701 27.7159 34.3172 27.7455 34.8978L27.8562 36.8308L27.8568 36.8325V36.8352L28.2576 44.0107V44.0102C28.2917 44.6339 28.8184 45.1225 29.4563 45.1231C29.4787 45.1231 29.5005 45.1225 29.5228 45.1214V45.1209C29.8415 45.1045 30.14 44.9644 30.3525 44.7319C30.5655 44.4999 30.6756 44.194 30.6577 43.8822L30.3122 37.6963V37.6931L30.2569 36.7044V36.7038C30.2222 36.1255 30.4352 35.5587 30.8439 35.139C31.2381 34.75 31.7692 34.5224 32.3294 34.5033C32.889 34.4836 33.4353 34.6729 33.8574 35.0334C34.2566 35.3863 34.5031 35.8749 34.5473 36.4002L34.8492 39.6014L34.8497 39.6025V39.6035L35.4289 45.7911H35.4284C35.4849 46.3962 36.0031 46.8596 36.6243 46.8601C36.6611 46.8601 36.698 46.8585 36.7355 46.8552C37.0531 46.8268 37.346 46.6758 37.5495 46.4361C37.7536 46.1965 37.852 45.8873 37.8229 45.5766L37.2437 39.388C37.119 38.0524 38.4916 37.7789 38.9154 37.7269C39.7618 37.6224 41.0913 37.879 41.2758 39.0105L41.2814 39.0099C41.3401 39.4115 41.5665 40.8089 42.4414 46.2086L42.4409 46.208C42.7601 48.1591 42.5846 50.1572 41.9299 52.0262L41.9282 52.0306C41.5989 52.9798 41.1673 54.2421 40.7463 55.5847L40.7469 55.5853C39.4616 59.692 38.7968 63.9602 38.7722 68.2546H14.5544V67.0487C14.5611 64.9647 13.9042 62.9305 12.6747 61.2289C10.6918 58.4938 7.23719 53.1915 6.37502 48.4167L6.37499 48.4164Z" fill="#171717"/>
<path d="M30.5367 8.55657C31.0186 8.55657 31.4542 8.2748 31.6426 7.84092C31.8315 7.40649 31.7371 6.90423 31.4027 6.56447C27.78 2.88005 22.7801 0.798828 17.5556 0.798828C12.331 0.798828 7.33171 2.88005 3.7084 6.56447C3.48701 6.78879 3.3657 7.0908 3.37128 7.40322C3.37743 7.71563 3.50993 8.01272 3.73971 8.22938C3.97005 8.44604 4.27865 8.56422 4.59789 8.55821C4.91712 8.55164 5.2207 8.42142 5.44153 8.19601C8.61099 4.97284 12.9851 3.15199 17.5556 3.15199C22.1267 3.15199 26.5002 4.97284 29.6703 8.19601C29.8967 8.4269 30.2098 8.55711 30.5368 8.55657H30.5367Z" fill="#171717"/>
<path d="M7.09254 9.75467C6.63522 10.223 6.65143 10.9644 7.12776 11.4142C7.60465 11.8633 8.3622 11.8513 8.82348 11.3868C11.1073 9.06481 14.2583 7.75338 17.5511 7.7538C20.8441 7.75489 23.9945 9.068 26.2772 11.3906C26.4975 11.6171 26.8011 11.7479 27.1203 11.755C27.4395 11.7621 27.7487 11.645 27.979 11.4283C28.2099 11.2122 28.343 10.9151 28.3491 10.6027C28.3558 10.2903 28.2351 9.98776 28.0131 9.76289C25.2782 6.97742 21.5016 5.40281 17.5545 5.40112C13.6075 5.39948 9.82975 6.97139 7.09252 9.75463L7.09254 9.75467Z" fill="#171717"/>
</svg>
