<svg width="70" height="71" viewBox="0 0 70 71" fill="none" xmlns="http://www.w3.org/2000/svg">
<path d="M60.3169 70.0286H9.68316C8.54604 70.0274 7.45558 69.5791 6.65134 68.782C5.84661 67.9848 5.39435 66.9044 5.39258 65.7771V43.4976C5.39258 42.7561 5.99893 42.155 6.74698 42.155C7.49503 42.155 8.10138 42.7561 8.10138 43.4976V65.7771C8.10315 66.6422 8.81047 67.3427 9.68312 67.3433H60.3169C61.1889 67.3421 61.895 66.6416 61.8962 65.7771V54.5581C61.8962 53.8166 62.5026 53.2155 63.2506 53.2155C63.9987 53.2155 64.6044 53.8166 64.6044 54.5581V65.7771C64.6038 66.9038 64.1516 67.9847 63.3474 68.782C62.5439 69.5785 61.454 70.0268 60.3168 70.0286H60.3169Z" fill="#910010"/>
<path d="M6.74698 34.1477C5.99893 34.1477 5.39258 33.5467 5.39258 32.8051V4.47106C5.39435 3.34384 5.8472 2.26349 6.65134 1.46625C7.45548 0.6697 8.54594 0.221384 9.68316 0.220215H60.3169C61.4535 0.221971 62.5433 0.669701 63.3476 1.46683C64.1511 2.26338 64.6034 3.34374 64.6046 4.47105V25.3916C64.6046 26.1331 63.9988 26.7342 63.2507 26.7342C62.5027 26.7342 61.8963 26.1331 61.8963 25.3916V4.47105C61.8952 3.60661 61.189 2.90609 60.317 2.90549H9.68324C8.81062 2.90607 8.10332 3.60606 8.1015 4.47105V32.8051C8.1015 33.161 7.95862 33.5028 7.70474 33.7544C7.45087 34.0061 7.10607 34.1477 6.7471 34.1477L6.74698 34.1477Z" fill="#910010"/>
<path d="M51.8238 59.3789C50.7492 59.3818 49.7183 58.9587 48.9609 58.2043L44.286 53.5701C44.0262 53.3196 43.878 52.976 43.8751 52.6167C43.8727 52.2573 44.0156 51.912 44.2718 51.6574C44.5281 51.4034 44.8764 51.2618 45.2389 51.2641C45.602 51.2671 45.948 51.4134 46.2007 51.6715L50.8756 56.3057V56.3051C51.3999 56.8248 52.2501 56.8248 52.7743 56.3051C53.2985 55.7854 53.2986 54.9432 52.7743 54.4234L35.8324 37.6336C35.3164 37.1075 35.3223 36.2682 35.8454 35.7491C36.3691 35.2305 37.2158 35.2241 37.7465 35.735L54.6869 52.5278C55.4462 53.2805 55.8725 54.3018 55.8725 55.3657C55.8725 56.4303 55.4456 57.451 54.6863 58.2036C53.9271 58.9563 52.8968 59.3788 51.8235 59.3788L51.8238 59.3789Z" fill="#910010"/>
<path d="M45.9551 61.1138C44.8806 61.1161 43.8497 60.693 43.0917 59.9392L40.4744 57.3447C39.959 56.8186 39.9649 55.9793 40.4886 55.4602C41.0123 54.9417 41.8589 54.9358 42.3897 55.4473L45.0069 58.0407C45.5336 58.5388 46.3655 58.5288 46.8804 58.0185C47.3953 57.5081 47.4047 56.6835 46.9022 56.1613C46.3862 55.6346 46.3927 54.7953 46.9164 54.2768C47.4401 53.7577 48.2868 53.7518 48.8175 54.2633C49.5768 55.016 50.0037 56.0367 50.0037 57.1008C50.0037 58.1654 49.5768 59.1861 48.8175 59.9382C48.0583 60.6909 47.0286 61.1135 45.9551 61.1135L45.9551 61.1138Z" fill="#910010"/>
<path d="M40.1454 62.9119C39.0715 62.9131 38.0412 62.4905 37.282 61.7367L34.758 59.2347C34.4982 58.9848 34.35 58.6412 34.3477 58.2819C34.3453 57.9225 34.4882 57.5766 34.7444 57.3226C35.0013 57.0686 35.3496 56.927 35.7121 56.9299C36.0746 56.9323 36.4212 57.0792 36.6739 57.3373L39.1979 59.8387V59.8381C39.4459 60.1009 39.7907 60.2518 40.1538 60.2577C40.5169 60.2636 40.8664 60.1237 41.1232 59.8691C41.3801 59.6151 41.5218 59.2686 41.5159 58.9086C41.5105 58.5487 41.3582 58.2069 41.0937 57.9605C40.8333 57.71 40.6857 57.3665 40.6828 57.0071C40.6798 56.6478 40.8227 56.3025 41.0789 56.0479C41.3352 55.7939 41.6841 55.6522 42.0466 55.6546C42.4091 55.6575 42.7557 55.8038 43.0084 56.0619C43.7677 56.814 44.194 57.8347 44.1945 58.8994C44.1945 59.9634 43.7677 60.9841 43.0084 61.7368C42.2491 62.4895 41.2194 62.9121 40.1456 62.9121L40.1454 62.9119Z" fill="#910010"/>
<path d="M34.3694 64.7429C33.2955 64.7464 32.264 64.3232 31.5066 63.5682L29.56 61.6386H29.5594C29.2996 61.3881 29.1514 61.0445 29.1485 60.6852C29.1461 60.3258 29.2884 59.9805 29.5452 59.7259C29.8015 59.4719 30.1498 59.3303 30.5123 59.3326C30.8748 59.3356 31.2214 59.4819 31.4741 59.74L33.4207 61.6696C33.6716 61.923 34.0135 62.0664 34.3719 62.0682C34.7297 62.07 35.0733 61.9301 35.3266 61.679C35.5798 61.4279 35.721 61.0873 35.7192 60.7326C35.7174 60.3779 35.5728 60.0385 35.3171 59.7903C34.7881 59.2659 34.7881 58.4155 35.3171 57.8911C35.8455 57.3667 36.7034 57.3667 37.2324 57.8911C37.9911 58.6438 38.418 59.6651 38.4174 60.729C38.4174 61.7936 37.9911 62.8143 37.2318 63.5669C36.4731 64.3196 35.4435 64.7421 34.3694 64.7427L34.3694 64.7429Z" fill="#910010"/>
<path d="M53.9188 54.8061C53.4424 54.8061 53.0008 54.5579 52.7563 54.1523C52.5119 53.7467 52.5001 53.244 52.7262 52.8279C53.1867 52.0173 53.7376 51.2605 54.3681 50.5716C55.8359 48.9773 57.4642 48.1832 59.0766 48.2633C59.8246 48.3008 60.4003 48.9323 60.3631 49.6733C60.3253 50.4148 59.6883 50.9854 58.9402 50.9485C57.2522 50.8649 55.5695 53.2552 55.1138 54.099C54.8776 54.535 54.4183 54.8072 53.9188 54.806L53.9188 54.8061Z" fill="#910010"/>
<path d="M31.5094 40.2563C31.3742 40.2563 31.2709 40.2505 31.2024 40.2452C30.3439 40.2235 27.9185 40.1346 27.0341 38.418C26.2866 36.9683 27.2378 35.5181 27.3488 35.3582C27.3689 35.329 27.3901 35.3015 27.4125 35.2745L29.567 32.6292L29.5658 32.6286C30.0547 32.0222 30.4839 31.3703 30.8476 30.6832C32.8166 27.0223 35.9264 26.0549 37.1738 25.8085C37.5469 25.7348 37.89 25.6558 38.2218 25.5668C41.8781 24.5853 45.5854 25.4907 48.0487 26.4237L48.0481 26.4231C49.615 27.0259 51.0539 27.9149 52.2891 29.0451C54.6194 31.1427 58.3048 31.2796 59.0197 31.2843C59.7678 31.2872 60.3718 31.8906 60.3688 32.6321C60.3659 33.3737 59.7572 33.9724 59.0091 33.9695H58.9991C57.7515 33.9601 53.4491 33.7178 50.4652 31.0325H50.4658C49.4798 30.1295 48.3315 29.4178 47.0799 28.9349C44.9898 28.1448 41.8795 27.3694 38.9257 28.1624C38.5354 28.2672 38.1351 28.3596 37.7018 28.4451C36.8327 28.6171 34.66 29.3019 33.2353 31.9508C32.7901 32.7871 32.2664 33.5801 31.6712 34.3194L29.5706 36.8993H29.57C29.5163 36.9947 29.4785 37.0977 29.4578 37.2048C29.5629 37.2827 30.0028 37.5343 31.3087 37.5671C31.3471 37.5671 31.3855 37.5694 31.4239 37.5747C31.6854 37.5917 34.8637 37.6912 38.4438 33.0102C38.8961 32.4196 39.7457 32.3038 40.3415 32.7521C40.9378 33.1998 41.0547 34.042 40.6024 34.6332C38.6836 37.141 36.5581 38.8477 34.2862 39.7046C33.0245 40.1769 32.0314 40.2565 31.5095 40.2565L31.5094 40.2563Z" fill="#910010"/>
<path d="M31.6571 32.9386C31.614 32.9386 31.5727 32.9386 31.5266 32.9322C26.5931 32.4663 24.4039 28.5199 24.3135 28.3519L26.704 27.083V27.0754C26.7689 27.1919 28.3335 29.9333 31.7916 30.2599C32.5119 30.3266 33.0515 30.9429 33.0178 31.6593C32.9842 32.3756 32.3879 32.9387 31.6646 32.9387L31.6571 32.9386Z" fill="#910010"/>
<path d="M14.9586 48.3216C14.599 48.321 14.2548 48.18 14.001 47.9277L9.55984 43.5253C9.03083 43.0009 9.03083 42.1511 9.55984 41.6267C10.0889 41.1023 10.9467 41.1023 11.4752 41.6267L15.9163 46.0326C16.3042 46.4165 16.4205 46.9942 16.2109 47.4963C16.0007 47.9979 15.5065 48.325 14.9586 48.3245L14.9586 48.3216Z" fill="#910010"/>
<path d="M15.8517 53.4996C14.8197 53.4996 13.8302 53.094 13.1004 52.3706C12.3707 51.6478 11.9609 50.6669 11.9609 49.6439C11.9609 48.6214 12.3707 47.6405 13.1004 46.9172L14.9762 45.0578C15.6947 44.2853 16.7001 43.8364 17.76 43.8153C18.8197 43.7936 19.8423 44.2015 20.5921 44.9448C21.3419 45.6881 21.7535 46.7019 21.7316 47.7523C21.7104 48.8029 21.2575 49.7996 20.4782 50.5119L18.6031 52.3754C17.8733 53.0977 16.8832 53.5021 15.8518 53.4997L15.8517 53.4996ZM15.0163 48.8163V48.8157C14.5818 49.278 14.5942 49.9979 15.0441 50.4457C15.494 50.8928 16.2196 50.9075 16.6878 50.479L18.5635 48.6197C18.9715 48.1538 18.9467 47.455 18.5068 47.0189C18.0664 46.5829 17.3614 46.5583 16.8914 46.9627L15.0156 48.8221L15.0163 48.8163Z" fill="#910010"/>
<path d="M18.8807 57.6109C17.8498 57.6092 16.8621 57.2018 16.134 56.479C15.4055 55.7562 14.9957 54.7765 14.9951 53.7551C14.9939 52.7333 15.4019 51.753 16.1287 51.029L20.4695 46.7273C21.188 45.9547 22.1928 45.5058 23.2533 45.4842C24.313 45.4631 25.3356 45.871 26.0854 46.6137C26.8347 47.357 27.2462 48.3708 27.2249 49.4218C27.2031 50.4724 26.7502 51.4685 25.9709 52.1808L21.6313 56.4837C20.9022 57.2071 19.9121 57.6133 18.8807 57.6109V57.6109ZM23.2202 48.2823V48.2829C22.9067 48.2817 22.6056 48.4052 22.3848 48.6259L18.0446 52.9294C17.6195 53.3929 17.6361 54.1052 18.0824 54.5489C18.5288 54.9926 19.2473 55.0107 19.7161 54.591L24.0569 50.2893L24.0563 50.2887C24.3917 49.9528 24.4908 49.45 24.3084 49.0134C24.126 48.5768 23.6973 48.2912 23.2203 48.2889L23.2202 48.2823Z" fill="#910010"/>
<path d="M22.4723 61.171C21.4414 61.1692 20.4537 60.763 19.7251 60.0402C18.9965 59.318 18.5868 58.3389 18.585 57.3176C18.5832 56.2963 18.99 55.316 19.7162 54.5914L24.057 50.2897L24.0564 50.2891C25.0518 49.3802 26.4517 49.0483 27.7541 49.413C29.0566 49.7776 30.0745 50.7866 30.4423 52.0777C30.8101 53.3688 30.4753 54.7564 29.5584 55.7432L25.2189 60.0449C24.4909 60.7683 23.5026 61.1733 22.4722 61.171L22.4723 61.171ZM26.8118 51.8407C26.4983 51.8407 26.1978 51.9636 25.9752 52.1831L21.6357 56.486C21.2277 56.9513 21.2531 57.6507 21.6929 58.0868C22.1328 58.5229 22.8377 58.5474 23.3078 58.143L27.6473 53.8412C27.9821 53.5053 28.0813 53.0025 27.8994 52.5659C27.717 52.1299 27.2883 51.8437 26.8119 51.8408L26.8118 51.8407Z" fill="#910010"/>
<path d="M27.2122 64.1555C26.1158 64.1555 25.0643 63.7242 24.2891 62.9557C23.5139 62.1878 23.0781 61.1455 23.0781 60.0586C23.0787 58.9724 23.5138 57.93 24.2896 57.1621L26.6596 54.8128V54.8122C27.4313 54.0286 28.4876 53.5832 29.5927 53.5767C30.6979 53.5703 31.7596 54.0022 32.5413 54.7771C33.3224 55.552 33.7587 56.6043 33.7516 57.7C33.7451 58.7956 33.2958 59.8427 32.5047 60.6075L30.1347 62.9569C29.3601 63.7259 28.3086 64.1572 27.2122 64.1555L27.2122 64.1555ZM29.5822 56.2977C29.2043 56.2977 28.8412 56.4464 28.5743 56.7115L26.2044 59.0608H26.2038C25.6529 59.6133 25.6553 60.5041 26.2097 61.0537C26.7647 61.6033 27.6627 61.605 28.2201 61.0584L30.59 58.7091C30.9951 58.3047 31.1149 57.6989 30.8947 57.1721C30.6745 56.646 30.1567 56.3024 29.5822 56.3012L29.5822 56.2977Z" fill="#910010"/>
<path d="M8.16789 46.2479C7.80833 46.2485 7.46413 46.1069 7.20966 45.8552L0.396315 39.1C-0.132105 38.5762 -0.132105 37.7264 0.396315 37.2026L21.203 16.5757C21.732 16.0519 22.5887 16.0519 23.1177 16.5757L29.9323 23.3297C30.1862 23.5819 30.329 23.9232 30.329 24.2796C30.329 24.6354 30.1862 24.9772 29.9323 25.2289L9.12558 45.8558C8.8717 46.1074 8.5275 46.2485 8.16853 46.2485L8.16789 46.2479ZM3.26866 38.1513L8.16789 43.0067L27.0611 24.2796L22.1619 19.4231L3.26866 38.1513Z" fill="#910010"/>
<path d="M68.6458 55.9014H59.0091C58.2616 55.9014 57.6553 55.3003 57.6553 54.5588V25.3917C57.6553 24.6501 58.2616 24.0491 59.0091 24.0491H68.6458C69.0048 24.0491 69.3496 24.1907 69.6035 24.4424C69.8574 24.694 70.0002 25.0358 70.0002 25.3917V54.5588C70.0002 54.9146 69.8574 55.2564 69.6035 55.5081C69.3496 55.7598 69.0048 55.9014 68.6458 55.9014ZM60.3635 53.2162H67.2914V26.734H60.3635V53.2162Z" fill="#910010"/>
<path d="M52.9596 8.55849H17.0384C16.2909 8.55849 15.6846 7.95742 15.6846 7.21589C15.6846 6.47436 16.2909 5.87329 17.0384 5.87329H52.9596C53.7071 5.87329 54.3135 6.47436 54.3135 7.21589C54.3135 7.95742 53.7071 8.55849 52.9596 8.55849Z" fill="#910010"/>
<path d="M52.9596 14.1486H17.0384C16.2909 14.1486 15.6846 13.5475 15.6846 12.806C15.6846 12.0644 16.2909 11.4634 17.0384 11.4634H52.9596C53.7071 11.4634 54.3135 12.0644 54.3135 12.806C54.3135 13.5475 53.7071 14.1486 52.9596 14.1486Z" fill="#910010"/>
</svg>
