<svg width="40" height="71" viewBox="0 0 40 71" fill="none" xmlns="http://www.w3.org/2000/svg">
<path d="M5.90034 0.220414H33.2984C34.9167 0.220414 36.3928 0.874548 37.4626 1.92795L37.4703 1.93552C38.5374 2.98895 39.2 4.44114 39.2 6.03606V64.2124C39.2 65.8117 38.5363 67.2677 37.4676 68.3211L37.3952 68.3871C36.3308 69.4021 34.8838 70.0287 33.2991 70.0287H5.90105C4.28122 70.0287 2.80403 69.3735 1.7352 68.3184C0.663697 67.2677 0 65.8117 0 64.2123V6.036C0 4.43997 0.663654 2.98715 1.73239 1.93269L1.74007 1.92511C2.80883 0.873309 4.28385 0.220215 5.90143 0.220215L5.90034 0.220414ZM28.2452 6.52255C27.5936 6.52255 27.065 6.00152 27.065 5.3593C27.065 4.71708 27.5936 4.19605 28.2452 4.19605H29.2815C29.9331 4.19605 30.4617 4.71708 30.4617 5.3593C30.4617 6.00152 29.9331 6.52255 29.2815 6.52255H28.2452ZM14.6807 6.52255C14.0292 6.52255 13.5006 6.00152 13.5006 5.3593C13.5006 4.71708 14.0292 4.19605 14.6807 4.19605H24.518C25.1696 4.19605 25.6982 4.71708 25.6982 5.3593C25.6982 6.00152 25.1696 6.52255 24.518 6.52255H14.6807ZM17.0378 60.8206H22.1609C22.8915 60.8206 23.5579 61.1166 24.0366 61.5884C24.5169 62.0618 24.8155 62.717 24.8155 63.4372C24.8155 64.1589 24.5153 64.8158 24.0366 65.2875C23.5568 65.7604 22.8926 66.0564 22.1609 66.0564H17.0378C16.3099 66.0564 15.6462 65.7604 15.166 65.2886C14.6829 64.8103 14.3827 64.1562 14.3827 63.4383C14.3827 62.717 14.6829 62.0602 15.1616 61.5885C15.6419 61.1151 16.3077 60.8207 17.0383 60.8207L17.0378 60.8206ZM22.1609 63.1477H17.0378C16.9587 63.1477 16.8835 63.1818 16.8303 63.2337C16.777 63.2862 16.743 63.3592 16.743 63.4372C16.743 63.5189 16.7765 63.593 16.8286 63.6449C16.8819 63.6963 16.9571 63.7293 17.0378 63.7293H22.1609C22.2388 63.7293 22.314 63.6947 22.3673 63.6422C22.4205 63.5897 22.4545 63.5167 22.4545 63.4377C22.4545 63.3587 22.42 63.2857 22.3673 63.2332C22.314 63.1807 22.2399 63.1472 22.1609 63.1472V63.1477ZM33.2974 2.54749H5.89936C4.92447 2.54749 4.03741 2.93975 3.40013 3.56899C2.75679 4.20202 2.35937 5.07527 2.35937 6.03611V64.2124C2.35937 65.1706 2.759 66.0439 3.40013 66.6758C4.03798 67.3099 4.92454 67.7016 5.89936 67.7016H33.2974C34.2465 67.7016 35.1111 67.3304 35.7445 66.7304L35.7967 66.6752C36.4378 66.0433 36.8374 65.1701 36.8374 64.2119V6.03556C36.8374 5.07466 36.4395 4.20143 35.8011 3.5733C35.1588 2.93919 34.2723 2.54747 33.2969 2.54747L33.2974 2.54749Z" fill="#171717"/>
</svg>
