<svg width="20" height="17" viewBox="0 0 20 17" fill="none" xmlns="http://www.w3.org/2000/svg">
<g opacity="0.7">
<path d="M19.5141 0.15679C19.2864 0.0550123 18.8333 0 18.5228 0H1.47721C1.46627 0 0.361297 0.0283776 0.156791 0.485757C0.0550126 0.713571 0 1.16648 0 1.47724V11.1364C0 11.1475 0.0283776 12.2521 0.485757 12.4568C0.713571 12.5586 1.16648 12.6136 1.47724 12.6136H4.88635C5.00953 12.6136 5.11369 12.7177 5.11369 12.8409V15.6819C5.11369 15.8461 5.15031 15.9854 5.2226 16.0958C5.31946 16.2435 5.47467 16.328 5.64825 16.328C5.75526 16.328 5.92188 16.2941 6.1069 16.1324L9.7971 12.9035C9.97021 12.7516 10.3377 12.6136 10.5682 12.6136H18.5228C18.5339 12.6136 19.6385 12.5849 19.8432 12.1276C19.945 11.9 20 11.447 20 11.1363V1.47719C20 1.46625 19.9715 0.361276 19.5141 0.15677L19.5141 0.15679ZM19.3183 11.1366C19.3183 11.3927 19.2768 11.6627 19.2401 11.7934C19.1046 11.8554 18.7476 11.9321 18.5228 11.9321H10.5682C10.1714 11.9321 9.64661 12.1291 9.34795 12.3907L5.79537 15.499V12.8411C5.79537 12.3397 5.38762 11.9321 4.88636 11.9321H1.47725C1.22106 11.9321 0.951072 11.8906 0.82043 11.854C0.758446 11.7184 0.681712 11.3614 0.681712 11.1366V1.47746C0.681712 1.22127 0.723088 0.951283 0.75987 0.820641C0.895577 0.758656 1.25212 0.682081 1.47708 0.682081H18.5226C18.7788 0.682081 19.0488 0.723457 19.1794 0.760239C19.2416 0.895784 19.3183 1.25249 19.3183 1.47745L19.3183 11.1366Z" fill="#171717"/>
<path d="M16.8181 2.84058H3.18171C2.99338 2.84058 2.84087 2.99308 2.84087 3.18142C2.84087 3.36976 2.99338 3.52227 3.18171 3.52227H16.8181C17.0063 3.52227 17.159 3.36976 17.159 3.18142C17.159 2.99308 17.0063 2.84058 16.8181 2.84058Z" fill="#171717"/>
<path d="M16.8181 5.68213H3.18171C2.99338 5.68213 2.84087 5.83464 2.84087 6.02297C2.84087 6.21131 2.99338 6.36382 3.18171 6.36382H16.8181C17.0063 6.36382 17.159 6.21131 17.159 6.02297C17.159 5.83464 17.0063 5.68213 16.8181 5.68213Z" fill="#171717"/>
<path d="M8.29537 8.52271H3.18171C2.99338 8.52271 2.84087 8.67537 2.84087 8.86355C2.84087 9.05173 2.99338 9.2044 3.18171 9.2044H8.29537C8.48371 9.2044 8.63622 9.05173 8.63622 8.86355C8.63622 8.67537 8.48371 8.52271 8.29537 8.52271Z" fill="#171717"/>
</g>
</svg>
