<svg width="49" height="49" viewBox="0 0 49 49" fill="none" xmlns="http://www.w3.org/2000/svg">
<g clip-path="url(#clip0_1_194)">
<path d="M48.0029 44.1103C47.4523 44.1103 47.0057 44.5569 47.0057 45.1075V47.0055H1.99428V40.3593H48.0027C48.5533 40.3593 48.9998 39.9127 48.9998 39.3621C48.9998 38.8115 48.5533 38.365 48.0027 38.365H0.997141C0.446553 38.365 0 38.8115 0 39.3621V48.0027C0 48.5533 0.446553 48.9998 0.997141 48.9998H48.0027C48.5533 48.9998 48.9998 48.5533 48.9998 48.0027V45.1075C49 44.5569 48.5535 44.1103 48.0029 44.1103Z" fill="white"/>
<path d="M23.7949 33.8139C23.9819 34.0008 24.2355 34.1059 24.5001 34.1059C24.7645 34.1059 25.0181 34.0008 25.2051 33.8139L37.8965 21.1223C38.2861 20.7329 38.2861 20.1015 37.8965 19.7121C37.5073 19.3228 36.8756 19.3228 36.4865 19.7121L24.5001 31.6986L12.5136 19.7121C12.1242 19.3228 11.4927 19.3228 11.1035 19.7121C10.7141 20.1015 10.7141 20.7329 11.1035 21.1223L23.7949 33.8139Z" fill="white"/>
<path d="M24.5001 28.4885C25.0507 28.4885 25.4972 28.0419 25.4972 27.4913V0.997141C25.4972 0.446553 25.0507 0 24.5001 0C23.9495 0 23.5029 0.446553 23.5029 0.997141V27.4913C23.5029 28.0421 23.9493 28.4885 24.5001 28.4885Z" fill="white"/>
</g>
<defs>
<clipPath id="clip0_1_194">
<rect width="49" height="49" fill="white"/>
</clipPath>
</defs>
</svg>
