<svg width="76" height="24" viewBox="0 0 76 24" fill="none" xmlns="http://www.w3.org/2000/svg">
<path d="M9.44118 8.54795V11.1183H15.5084C15.3308 12.5529 14.8573 13.599 14.1174 14.3462C13.2295 15.2428 11.8385 16.2291 9.44118 16.2291C5.71206 16.2291 2.78204 13.1806 2.78204 9.41469C2.78204 5.64882 5.68246 2.57036 9.44118 2.57036C11.4537 2.57036 12.9335 3.37733 14.0286 4.39352L15.8044 2.60025C14.2949 1.13574 12.2528 0 9.44118 0C4.32104 0 0 4.2142 0 9.38481C0 14.5554 4.32104 18.7696 9.44118 18.7696C12.2232 18.7696 14.2949 17.8431 15.9227 16.1395C17.6097 14.4359 18.1129 12.0747 18.1129 10.132C18.1129 9.53425 18.0833 8.99626 17.9649 8.51806H9.44118V8.54795Z" fill="#4285F4"/>
<path d="M25.719 6.45581C22.4042 6.45581 19.6814 8.99628 19.6814 12.5231C19.6814 16.0199 22.3746 18.5903 25.719 18.5903C29.0634 18.5903 31.7566 16.0199 31.7566 12.5231C31.727 8.99628 29.0338 6.45581 25.719 6.45581ZM25.719 16.1993C23.9136 16.1993 22.3451 14.675 22.3451 12.5231C22.3451 10.3412 23.9136 8.84684 25.719 8.84684C27.5244 8.84684 29.093 10.3412 29.093 12.5231C29.093 14.675 27.5244 16.1993 25.719 16.1993Z" fill="#EA4335"/>
<path d="M55.2263 7.80077H55.1375C54.5455 7.08346 53.4209 6.45581 51.9707 6.45581C48.9815 6.45581 46.3474 9.08595 46.3474 12.5231C46.3474 15.9303 48.9519 18.5903 51.9707 18.5903C53.4209 18.5903 54.5455 17.9328 55.1375 17.2155H55.2263V18.0523C55.2263 20.3537 53.9832 21.609 52.0299 21.609C50.4317 21.609 49.4254 20.4434 49.0111 19.4571L46.7322 20.4135C47.3833 22.0274 49.1294 24 52.0595 24C55.1375 24 57.7715 22.1769 57.7715 17.6937V6.78458H55.2855V7.80077H55.2263ZM52.2074 16.1993C50.4021 16.1993 49.0111 14.6451 49.0111 12.5231C49.0111 10.3711 50.4021 8.84684 52.2074 8.84684C54.0128 8.84684 55.4038 10.401 55.4038 12.5529C55.4334 14.6451 54.0128 16.1993 52.2074 16.1993Z" fill="#4285F4"/>
<path d="M39.1558 6.45581C35.841 6.45581 33.1182 8.99628 33.1182 12.5231C33.1182 16.0199 35.8114 18.5903 39.1558 18.5903C42.5001 18.5903 45.1934 16.0199 45.1934 12.5231C45.1638 8.99628 42.4705 6.45581 39.1558 6.45581ZM39.1558 16.1993C37.3504 16.1993 35.7818 14.675 35.7818 12.5231C35.7818 10.3412 37.3504 8.84684 39.1558 8.84684C40.9611 8.84684 42.5297 10.3412 42.5297 12.5231C42.5297 14.675 40.9611 16.1993 39.1558 16.1993Z" fill="#FBBC05"/>
<path d="M59.8137 0.239136H62.4182V18.5604H59.8137V0.239136Z" fill="#34A853"/>
<path d="M70.4095 16.1992C69.0776 16.1992 68.1306 15.5716 67.509 14.3761L75.5296 11.0286L75.2632 10.3412C74.7601 8.99624 73.2507 6.48566 70.1431 6.48566C67.0651 6.48566 64.4902 8.93647 64.4902 12.5529C64.4902 15.9601 67.0355 18.6201 70.4391 18.6201C73.1915 18.6201 74.7897 16.9165 75.4408 15.9302L73.3987 14.5554C72.6884 15.5118 71.7413 16.1992 70.4095 16.1992ZM70.2319 8.72725C71.2974 8.72725 72.2148 9.29512 72.5108 10.0722L67.0947 12.3437C67.0651 9.77333 68.8705 8.72725 70.2319 8.72725Z" fill="#EA4335"/>
</svg>
