<svg width="71" height="41" viewBox="0 0 71 41" fill="none" xmlns="http://www.w3.org/2000/svg">
<g clip-path="url(#clip0)">
<path d="M30.0299 22.5226C27.1773 26.3313 24.6997 25.3968 22.7078 21.6251C21.8655 22.4827 20.9525 23.2665 19.9812 23.9735C17.8786 25.2923 15.6254 24.0565 15.4871 21.5544C15.4379 20.6291 15.4871 19.6885 15.444 18.7478C15.358 18.4159 15.2166 18.1054 15.0229 17.8226C14.7063 17.9824 14.2514 18.0624 14.0977 18.3206C13.7349 18.9968 13.4214 19.7008 13.1663 20.4231C12.7943 21.3146 12.4654 22.2337 12.0719 23.1005C11.6693 23.992 10.6856 24.4654 9.73575 24.2287C8.79205 24.1365 8.07275 23.3403 8.08197 22.3905C8.01127 21.1916 8.14652 19.9774 8.08197 18.7724C8.00512 18.3759 7.87294 17.9886 7.6885 17.6289C7.36574 17.8964 6.90158 18.0931 6.73558 18.4343C6.10543 19.8022 5.54289 21.2808 4.91274 22.6825C4.72215 23.162 4.45779 23.6077 4.12581 24.0012C3.44954 24.7728 2.2753 24.8527 1.50374 24.1764C1.1902 23.9028 0.978097 23.5278 0.901248 23.119C0.842844 22.9192 0.805956 22.7163 0.796734 22.5104C0.796734 19.7038 0.704516 16.8451 0.753699 14.0109C0.778291 13.2578 1.02421 12.5262 1.45456 11.9083C1.90335 11.3273 2.53351 10.9093 3.24359 10.7156C4.32254 10.4267 4.85741 10.94 4.90659 12.1173C4.94963 13.0211 4.90659 13.934 4.90659 14.8439L5.3769 14.9761C5.72118 14.6411 6.03473 14.2783 6.31753 13.8879C6.90772 12.9196 7.418 11.896 8.00819 10.9216C8.43547 10.0394 9.44372 9.60594 10.3782 9.89796C11.2973 10.1101 11.9059 10.9892 11.7799 11.9237V14.9669L12.1795 15.0929C12.4623 14.8378 12.7298 14.5611 12.9726 14.266C13.8149 13.2639 14.5987 12.2034 15.4686 11.229C15.8314 10.814 16.2863 10.4882 16.7935 10.2761C17.811 9.77808 19.0344 10.1992 19.5324 11.2167C19.723 11.604 19.7845 12.0405 19.7107 12.4647C19.5693 14.4997 19.4432 16.5315 19.3326 18.5665C19.3295 18.9354 19.348 19.3073 19.3879 19.6731C20.9034 19.1843 22.0131 17.881 22.2559 16.3071C22.3604 14.6288 22.5633 12.9596 22.8645 11.3058C23.0244 10.3037 23.8513 9.53831 24.8626 9.46146C25.7694 9.27395 26.7039 9.6336 27.248 10.3867C27.8628 11.2689 27.8874 12.434 27.3033 13.3377C26.461 14.7394 26.5164 16.261 26.707 17.7611C26.7992 18.4189 27.1681 19.003 27.7183 19.3749C28.4837 19.7469 29.12 19.0737 29.4212 18.4005C29.9592 17.0234 30.4295 15.6186 30.823 14.1923C31.1181 13.2025 31.2379 12.1573 31.5238 11.1767C31.9572 9.80882 32.9255 9.20632 34.0906 9.4799C35.3232 9.78423 36.1163 10.9831 35.9134 12.2372C35.8304 12.9381 35.5568 13.5683 35.4492 14.2507C35.1111 16.3133 34.8191 18.382 34.4871 20.5615C36.0732 20.0635 37.3336 19.6362 38.6246 19.2919C39.2302 19.1659 39.8511 19.1229 40.469 19.172C41.634 19.172 42.1812 19.753 42.5716 21.0717C43.8534 25.2308 46.6322 27.7207 50.9296 28.4431C57.1144 29.4882 63.004 23.9397 62.3892 17.6935C62.3462 17.2785 62.2909 16.8666 62.2632 16.4516C62.0142 15.3173 62.7335 14.1953 63.8678 13.9463C65.0021 13.6974 66.1241 14.4167 66.3731 15.5509C66.4007 15.6831 66.4192 15.8153 66.4222 15.9506C67.2706 21.6312 65.4816 26.3497 60.9383 29.8479C54.6798 34.6186 45.7377 33.4106 40.967 27.152C40.5766 26.6387 40.22 26.0976 39.9003 25.5351C38.9382 23.866 38.6308 23.7676 36.8848 24.6037C36.7956 24.656 36.7003 24.7021 36.605 24.7451C34.859 25.3968 34.2074 26.6233 34.0445 28.5107C33.8139 31.4986 33.3436 34.4649 32.6427 37.3821C31.7021 41.1046 29.4243 41.7655 26.3319 39.4847C22.511 36.6997 21.8102 32.3962 24.7335 28.7412C25.9969 27.2811 27.4232 25.9716 28.9909 24.8435C29.7963 24.3762 30.2143 23.4418 30.0299 22.5226ZM29.7409 29.4944L29.3075 29.3038C28.7081 30.1061 28.1548 30.9422 27.6537 31.806C27.2418 32.6451 27.4324 33.6565 28.124 34.2897C28.5728 34.7723 29.037 34.9076 29.163 34.0499C29.3905 32.5099 29.5258 31.016 29.7409 29.4944Z" fill="#FF2D39"/>
<path d="M59.245 6.96847C59.0667 5.49604 59.6784 4.03899 60.8496 3.13218C61.7195 2.35447 62.4972 1.45687 63.361 0.663793C63.6838 0.448617 64.0403 0.285697 64.4123 0.181183C64.566 0.503948 64.6736 0.845156 64.7351 1.19866C64.7781 2.44054 64.7689 3.68241 64.7351 4.93044C64.7351 5.80036 65.1193 6.18461 65.9892 6.17846H69.8194C70.1391 6.23379 70.4495 6.33831 70.7385 6.48586C70.6555 6.83321 70.5172 7.16212 70.3235 7.4603C69.306 8.53925 68.2209 9.56288 67.1881 10.6234C66.478 11.3642 65.4513 11.7085 64.44 11.5425C63.0259 11.3273 61.6089 11.9114 60.7574 13.0641C59.6692 14.3121 58.3935 15.3911 57.25 16.6053C56.9272 16.9711 56.752 17.4445 56.752 17.9302C56.9334 20.3494 55.1167 22.455 52.7005 22.6333C50.2813 22.8147 48.1757 20.998 47.9974 18.5819C47.9851 18.4312 47.982 18.2775 47.9882 18.1269C48.0712 15.7477 50.0692 13.8849 52.4485 13.9679C52.5684 13.9709 52.6913 13.9801 52.8112 13.9955C53.4199 14.097 54.0408 13.8726 54.4465 13.4053C55.6177 12.185 56.795 10.9646 58.0584 9.83646C58.9775 9.0526 59.5401 8.21034 59.245 6.96847Z" fill="#FF2D39"/>
<path d="M39.504 12.3325C39.6239 11.9606 39.7746 11.6009 39.9528 11.2536C42.9899 6.02477 48.9811 3.25822 54.9323 4.34025C56.3832 4.61998 57.204 5.60364 56.995 6.824C56.7859 8.04436 55.6824 8.77288 54.1884 8.4993C50.097 7.74926 45.9625 9.57518 43.7615 13.1072C43.5801 13.4422 43.368 13.7588 43.1313 14.0539C42.5504 14.7394 41.5821 14.9515 40.7675 14.5673C39.9313 14.2138 39.4887 13.5344 39.504 12.3325Z" fill="#FF2D39"/>
</g>
<defs>
<clipPath id="clip0">
<rect x="0.738281" y="0.181183" width="70" height="40.6376" fill="white"/>
</clipPath>
</defs>
</svg>
