<?xml version="1.0" encoding="utf-8"?><svg viewBox="0 0 1200 800" xmlns="http://www.w3.org/2000/svg" xmlns:xlink="http://www.w3.org/1999/xlink"><style>:root>svg{display:none}:root>svg:target{display:block}</style><svg viewBox="-5.124 -2 44.407 11.997" id="TikTok" xmlns="http://www.w3.org/2000/svg"><path d="M2.757 3.15v-.312a2.3 2.3 0 00-.327-.028 2.424 2.424 0 00-1.39 4.415A2.422 2.422 0 012.757 3.15z"/><path d="M2.815 6.68c.593 0 1.08-.467 1.107-1.06V.335h.965A1.811 1.811 0 014.86 0H3.54v5.28a1.109 1.109 0 01-1.107 1.068 1.124 1.124 0 01-.51-.127 1.109 1.109 0 00.893.46zm3.876-4.552v-.294a1.804 1.804 0 01-1-.301 1.832 1.832 0 001 .595z"/><path d="M5.692 1.533a1.819 1.819 0 01-.452-1.2h-.353a1.83 1.83 0 00.805 1.2zM2.43 4.13a1.109 1.109 0 00-.511 2.09 1.106 1.106 0 01.896-1.755 1.165 1.165 0 01.327.05V3.174a2.32 2.32 0 00-.327-.026h-.058V4.17a1.137 1.137 0 00-.327-.038z"/><path d="M6.69 2.128V3.15a3.135 3.135 0 01-1.83-.595V5.24a2.43 2.43 0 01-2.43 2.424 2.404 2.404 0 01-1.39-.44 2.424 2.424 0 004.2-1.65V2.897a3.14 3.14 0 001.834.588V2.169a1.872 1.872 0 01-.383-.041z"/><path d="M4.86 5.24V2.555a3.135 3.135 0 001.833.587V2.12a1.832 1.832 0 01-1.001-.587 1.83 1.83 0 01-.805-1.2h-.965V5.62a1.109 1.109 0 01-2.006.606 1.109 1.109 0 01.511-2.09c.111.001.221.018.327.051V3.165a2.422 2.422 0 00-1.717 4.088 2.404 2.404 0 001.393.41A2.43 2.43 0 004.86 5.24z"/><g transform="translate(8.468 1.868) scale(.26698)"><path d="M10.46 21.72H5.23v-17H.01L0 .06h16.12l-1.48 4.66h-4.18zm42.53 0h-5.22v-17h-5.24L42.52.06h16.49l-1.48 4.66h-4.54zM17.1 6.95h5.17v14.77h-5.13zm13.91 7.58l-1.53 1.48v5.71h-5.16V0h5.16v10.09l5.12-5h6.16l-6.47 6.28 7.25 10.35h-5.69zm54.7 0l-1.48 1.48v5.71h-5.17L79.01 0h5.22v10.09l5.11-5h6.16l-6.47 6.28 7.2 10.35h-5.69z"/><circle r="2.6" cy="2.66" cx="19.69"/><path d="M58.35 12.88a8.84 8.84 0 018.15-8.81h-.77a8.84 8.84 0 000 17.65h.77a8.84 8.84 0 01-8.15-8.84zM68.51 4.04h-.78a8.84 8.84 0 010 17.62h.78a8.84 8.84 0 100-17.68z"/><path d="M67.11 17.18a4.3 4.3 0 114.3-4.3 4.31 4.31 0 01-4.3 4.3zm0-13.14a8.84 8.84 0 100 17.68 8.84 8.84 0 000-17.68z"/></g></svg><svg viewBox="0 0 97 38" id="fainst" xmlns="http://www.w3.org/2000/svg"><g clip-path="url(#bclip0_230_10)"><path d="M68.636 37.865c-2.26-.102-3.488-.478-4.304-.797-1.082-.42-1.853-.922-2.666-1.733-.812-.811-1.314-1.583-1.733-2.665-.319-.816-.695-2.044-.797-4.304-.113-2.442-.136-3.175-.136-9.364 0-6.19.025-6.921.134-9.366.103-2.26.481-3.485.798-4.304.421-1.082.924-1.854 1.733-2.667.811-.81 1.583-1.314 2.666-1.733.816-.319 2.044-.695 4.304-.798C71.079.023 71.813 0 77.999 0c6.19 0 6.921.025 9.366.134 2.26.103 3.486.482 4.304.798 1.082.419 1.854.922 2.666 1.733.812.811 1.312 1.584 1.733 2.666.319.816.695 2.044.797 4.304C96.977 12.08 97 12.812 97 19c0 6.186-.023 6.92-.135 9.365-.102 2.26-.48 3.488-.797 4.304-.42 1.082-.922 1.854-1.733 2.665-.811.81-1.584 1.312-2.666 1.733-.816.319-2.044.695-4.304.797-2.443.112-3.177.135-9.366.135-6.186 0-6.92-.022-9.363-.135z"/><path d="M68.636 37.865c-2.26-.102-3.488-.478-4.304-.797-1.082-.42-1.853-.922-2.666-1.733-.812-.811-1.314-1.583-1.733-2.665-.319-.816-.695-2.044-.797-4.304-.113-2.442-.136-3.175-.136-9.364 0-6.19.025-6.921.134-9.366.103-2.26.481-3.485.798-4.304.421-1.082.924-1.854 1.733-2.667.811-.81 1.583-1.314 2.666-1.733.816-.319 2.044-.695 4.304-.798C71.079.023 71.813 0 77.999 0c6.19 0 6.921.025 9.366.134 2.26.103 3.486.482 4.304.798 1.082.419 1.854.922 2.666 1.733.812.811 1.312 1.584 1.733 2.666.319.816.695 2.044.797 4.304C96.977 12.08 97 12.812 97 19c0 6.186-.023 6.92-.135 9.365-.102 2.26-.48 3.488-.797 4.304-.42 1.082-.922 1.854-1.733 2.665-.811.81-1.584 1.312-2.666 1.733-.816.319-2.044.695-4.304.797-2.443.112-3.177.135-9.366.135-6.186 0-6.92-.022-9.363-.135z"/><path d="M73.335 19.081a4.705 4.705 0 119.41-.001 4.705 4.705 0 01-9.41.001zm-2.544 0a7.249 7.249 0 1014.497 0 7.249 7.249 0 00-14.497 0zm13.09-7.536a1.694 1.694 0 101.696-1.694h-.001a1.695 1.695 0 00-1.694 1.694zM72.338 30.572c-1.377-.063-2.125-.292-2.622-.486a4.384 4.384 0 01-1.624-1.056 4.355 4.355 0 01-1.056-1.622c-.194-.497-.423-1.245-.486-2.622-.068-1.488-.082-1.935-.082-5.705s.015-4.215.082-5.705c.063-1.376.294-2.123.486-2.621.257-.66.562-1.13 1.056-1.624.494-.495.964-.8 1.624-1.056.497-.194 1.245-.423 2.621-.486 1.489-.068 1.936-.082 5.704-.082s4.216.015 5.705.082c1.376.063 2.123.294 2.621.486.66.255 1.13.562 1.624 1.056.495.494.8.965 1.056 1.624.194.497.423 1.245.486 2.621.068 1.49.082 1.936.082 5.705 0 3.77-.014 4.216-.082 5.705-.063 1.377-.293 2.125-.486 2.622a4.374 4.374 0 01-1.056 1.623c-.493.493-.964.799-1.624 1.056-.496.194-1.245.423-2.621.485-1.488.069-1.935.082-5.705.082s-4.216-.013-5.704-.082zM72.22 5.049c-1.503.069-2.53.307-3.427.656a6.93 6.93 0 00-2.5 1.628 6.893 6.893 0 00-1.63 2.501c-.348.898-.586 1.924-.655 3.427-.07 1.505-.085 1.986-.085 5.82 0 3.834.016 4.315.085 5.82.069 1.503.307 2.53.656 3.427a6.9 6.9 0 001.628 2.5 6.935 6.935 0 002.501 1.629c.898.349 1.924.587 3.427.656 1.506.068 1.986.085 5.82.085 3.834 0 4.315-.016 5.82-.085 1.503-.069 2.53-.307 3.427-.656a6.944 6.944 0 002.5-1.629 6.912 6.912 0 001.629-2.5c.349-.898.588-1.924.656-3.427.068-1.506.084-1.986.084-5.82 0-3.834-.016-4.315-.085-5.82-.068-1.503-.306-2.53-.655-3.427a6.942 6.942 0 00-1.629-2.5 6.908 6.908 0 00-2.5-1.629c-.898-.349-1.924-.588-3.426-.656-1.505-.068-1.986-.085-5.82-.085-3.833 0-4.315.016-5.82.085"/></g><g clip-path="url(#bclip1_230_10)"><path d="M35.903 38C37.06 38 38 37.06 38 35.903V2.097A2.097 2.097 0 0035.903 0H2.097A2.097 2.097 0 000 2.097v33.806C0 37.06.94 38 2.097 38h33.806z"/><path d="M26.22 38V23.284h4.939l.74-5.735h-5.68v-3.661c0-1.66.461-2.792 2.842-2.792l3.037-.002V5.966c-.525-.07-2.328-.226-4.425-.226-4.379 0-7.376 2.673-7.376 7.581v4.23h-4.952v5.734h4.952V38h5.922z"/></g><defs><radialGradient id="bpaint0_radial_230_10" cx="0" cy="0" r="1" gradientUnits="userSpaceOnUse" gradientTransform="translate(61.46 37.167) scale(48.2458)"><stop offset=".09" stop-color="#FA8F21"/><stop offset=".78" stop-color="#D82D7E"/></radialGradient><radialGradient id="bpaint1_radial_230_10" cx="0" cy="0" r="1" gradientUnits="userSpaceOnUse" gradientTransform="translate(85.321 35.947) scale(42.4568)"><stop offset=".64" stop-color="#8C3AAA" stop-opacity="0"/><stop offset="1" stop-color="#8C3AAA"/></radialGradient><clipPath id="bclip0_230_10"><path transform="translate(59)" d="M0 0h38v38H0z"/></clipPath><clipPath id="bclip1_230_10"><path d="M0 0h38v38H0z"/></clipPath></defs></svg><svg viewBox="0 0 113 62" id="google" xmlns="http://www.w3.org/2000/svg"><g opacity=".6"><path d="M109.479 38.512l3.135 2.067c-1.017 1.482-3.451 4.025-7.658 4.025-5.225 0-9.115-3.998-9.115-9.084 0-5.413 3.932-9.085 8.675-9.085 4.771 0 7.108 3.754 7.864 5.78l.413 1.034-12.292 5.032c.935 1.822 2.393 2.747 4.455 2.747 2.062 0 3.492-1.007 4.523-2.516zm-9.638-3.278l8.208-3.373c-.453-1.128-1.801-1.93-3.409-1.93-2.049 0-4.895 1.794-4.799 5.303zM89.916 17.174h3.96v26.6h-3.96v-26.6zM83.674 27.142h3.822V43.3c0 6.704-4.001 9.465-8.73 9.465-4.455 0-7.136-2.965-8.14-5.372l3.506-1.441c.632 1.482 2.158 3.236 4.633 3.236 3.039 0 4.909-1.863 4.909-5.344v-1.306h-.138c-.907 1.088-2.64 2.067-4.84 2.067-4.591 0-8.799-3.957-8.799-9.057 0-5.127 4.207-9.125 8.8-9.125 2.186 0 3.932.965 4.84 2.026h.137v-1.306zm.275 8.405c0-3.21-2.159-5.549-4.909-5.549-2.777 0-5.114 2.34-5.114 5.549 0 3.169 2.337 5.467 5.114 5.467 2.75.014 4.909-2.298 4.909-5.467zM48.161 35.48c0 5.235-4.125 9.084-9.184 9.084-5.06 0-9.184-3.863-9.184-9.085 0-5.263 4.124-9.098 9.184-9.098s9.184 3.835 9.184 9.098zm-4.015 0c0-3.265-2.392-5.509-5.17-5.509-2.776 0-5.169 2.244-5.169 5.508 0 3.237 2.393 5.508 5.17 5.508s5.17-2.271 5.17-5.508zM68.22 35.52c0 5.236-4.124 9.084-9.184 9.084s-9.184-3.848-9.184-9.084c0-5.263 4.125-9.085 9.184-9.085 5.06 0 9.184 3.808 9.184 9.085zm-4.028 0c0-3.264-2.392-5.508-5.17-5.508-2.777 0-5.169 2.244-5.169 5.508 0 3.236 2.392 5.508 5.17 5.508 2.79 0 5.17-2.285 5.17-5.508zM14.696 40.62c-5.76 0-10.27-4.597-10.27-10.295 0-5.698 4.51-10.295 10.27-10.295 3.107 0 5.376 1.21 7.053 2.76l2.764-2.733c-2.337-2.217-5.458-3.903-9.817-3.903-7.892 0-14.532 6.365-14.532 14.17 0 7.807 6.64 14.172 14.532 14.172 4.262 0 7.48-1.388 9.996-3.971 2.584-2.557 3.382-6.148 3.382-9.058 0-.911-.11-1.85-.234-2.543H14.696v3.78h9.363c-.275 2.367-1.031 3.985-2.145 5.087-1.347 1.346-3.478 2.829-7.218 2.829z"/></g></svg><svg viewBox="0 0 76 24" id="google-logo" xmlns="http://www.w3.org/2000/svg"><path d="M9.441 8.548v2.57h6.067c-.177 1.435-.65 2.481-1.39 3.228-.889.897-2.28 1.883-4.677 1.883-3.729 0-6.659-3.048-6.659-6.814s2.9-6.845 6.66-6.845c2.012 0 3.492.807 4.587 1.824L15.804 2.6C14.294 1.136 12.253 0 9.441 0 4.321 0 0 4.214 0 9.385c0 5.17 4.321 9.385 9.441 9.385 2.782 0 4.854-.927 6.482-2.63 1.687-1.704 2.19-4.065 2.19-6.008 0-.598-.03-1.136-.148-1.614H9.44v.03zM25.719 6.456c-3.315 0-6.038 2.54-6.038 6.067 0 3.497 2.694 6.067 6.038 6.067 3.344 0 6.038-2.57 6.038-6.067-.03-3.527-2.723-6.067-6.038-6.067zm0 9.743c-1.805 0-3.374-1.524-3.374-3.676 0-2.182 1.569-3.676 3.374-3.676 1.805 0 3.374 1.494 3.374 3.676 0 2.152-1.569 3.676-3.374 3.676zM55.226 7.8h-.088c-.593-.717-1.717-1.344-3.167-1.344-2.99 0-5.624 2.63-5.624 6.067 0 3.407 2.605 6.067 5.624 6.067 1.45 0 2.575-.657 3.167-1.375h.088v.837c0 2.302-1.243 3.557-3.196 3.557-1.598 0-2.605-1.166-3.019-2.152l-2.279.956C47.383 22.027 49.13 24 52.06 24c3.078 0 5.712-1.823 5.712-6.306V6.784h-2.486v1.017h-.06zm-3.019 8.4c-1.805 0-3.196-1.555-3.196-3.677 0-2.152 1.391-3.676 3.196-3.676 1.806 0 3.197 1.554 3.197 3.706.03 2.092-1.391 3.646-3.197 3.646zM39.156 6.456c-3.315 0-6.038 2.54-6.038 6.067 0 3.497 2.693 6.067 6.038 6.067 3.344 0 6.037-2.57 6.037-6.067-.03-3.527-2.722-6.067-6.037-6.067zm0 9.743c-1.806 0-3.374-1.524-3.374-3.676 0-2.182 1.568-3.676 3.374-3.676 1.805 0 3.374 1.494 3.374 3.676 0 2.152-1.569 3.676-3.374 3.676zM59.814.24h2.604v18.32h-2.604V.24zM70.41 16.2c-1.332 0-2.28-.628-2.901-1.824l8.02-3.347-.266-.688c-.503-1.345-2.012-3.855-5.12-3.855-3.078 0-5.653 2.45-5.653 6.067 0 3.407 2.546 6.067 5.95 6.067 2.752 0 4.35-1.704 5-2.69L73.4 14.555c-.71.957-1.658 1.644-2.99 1.644zm-.178-7.473c1.065 0 1.983.568 2.279 1.345l-5.416 2.272c-.03-2.57 1.776-3.617 3.137-3.617z"/></svg><svg viewBox="0 0 71 41" id="my" xmlns="http://www.w3.org/2000/svg"><g clip-path="url(#eclip0)"><path d="M30.03 22.523c-2.853 3.808-5.33 2.874-7.322-.898a21.805 21.805 0 01-2.727 2.349c-2.102 1.318-4.356.082-4.494-2.42-.05-.925 0-1.865-.043-2.806a2.932 2.932 0 00-.421-.925c-.317.16-.772.24-.925.498a15.07 15.07 0 00-.932 2.102c-.372.892-.7 1.81-1.094 2.678a2.024 2.024 0 01-2.336 1.128 1.83 1.83 0 01-1.654-1.838c-.07-1.2.065-2.414 0-3.619a4.308 4.308 0 00-.394-1.143c-.322.267-.786.464-.952.805-.63 1.368-1.193 2.847-1.823 4.248-.19.48-.455.926-.787 1.32A1.859 1.859 0 01.9 23.118a2.577 2.577 0 01-.104-.609c0-2.806-.092-5.665-.043-8.5.024-.752.27-1.484.7-2.102a3.386 3.386 0 011.79-1.192c1.079-.29 1.613.224 1.663 1.401.043.904 0 1.817 0 2.727l.47.132a8.35 8.35 0 00.94-1.088c.59-.968 1.101-1.992 1.691-2.966a1.977 1.977 0 012.37-1.024 1.83 1.83 0 011.402 2.026v3.043l.4.126c.282-.255.55-.532.793-.827.842-1.002 1.626-2.063 2.496-3.037.362-.415.817-.74 1.325-.953a2.045 2.045 0 012.917 2.189 405.272 405.272 0 00-.378 6.102c-.003.368.015.74.055 1.106a4.211 4.211 0 002.868-3.366c.104-1.678.307-3.347.608-5.001a2.196 2.196 0 011.999-1.845 2.354 2.354 0 012.385.926c.615.882.64 2.047.055 2.95-.842 1.402-.787 2.924-.596 4.424a2.34 2.34 0 001.011 1.614c.766.372 1.402-.301 1.703-.974a42.992 42.992 0 001.402-4.209c.295-.99.415-2.035.7-3.015.434-1.368 1.402-1.97 2.568-1.697a2.438 2.438 0 011.822 2.757c-.083.701-.356 1.331-.464 2.014-.338 2.062-.63 4.131-.962 6.31 1.586-.497 2.847-.925 4.138-1.27a6.52 6.52 0 011.844-.119c1.165 0 1.712.581 2.103 1.9 1.281 4.159 4.06 6.649 8.358 7.371 6.184 1.045 12.074-4.503 11.46-10.75-.044-.415-.1-.826-.127-1.241a2.104 2.104 0 114.16-.501c.848 5.68-.941 10.399-5.485 13.897-6.258 4.77-15.2 3.563-19.971-2.696a14.541 14.541 0 01-1.067-1.617c-.962-1.669-1.27-1.767-3.015-.931-.09.052-.185.098-.28.141-1.746.652-2.398 1.878-2.56 3.766a56.63 56.63 0 01-1.402 8.871c-.94 3.723-3.219 4.384-6.311 2.103-3.821-2.785-4.522-7.089-1.599-10.744a24.744 24.744 0 014.258-3.898 2.185 2.185 0 001.039-2.32zm-.29 6.971l-.432-.19c-.6.802-1.153 1.638-1.654 2.502-.412.84-.222 1.85.47 2.484.449.482.913.618 1.039-.24.227-1.54.363-3.034.578-4.556z"/><path d="M59.245 6.968a4.214 4.214 0 011.605-3.836c.87-.778 1.647-1.675 2.511-2.468.323-.215.68-.378 1.051-.483.154.323.262.664.323 1.018a60.458 60.458 0 010 3.731c0 .87.384 1.255 1.254 1.248h3.83c.32.056.63.16.92.308a3.11 3.11 0 01-.416.974c-1.017 1.08-2.102 2.103-3.135 3.163a3.108 3.108 0 01-2.748.92 3.855 3.855 0 00-3.683 1.521c-1.088 1.248-2.363 2.327-3.507 3.541-.323.366-.498.84-.498 1.325a4.387 4.387 0 01-4.052 4.703 4.387 4.387 0 01-4.712-4.506 4.313 4.313 0 014.823-4.131 1.781 1.781 0 001.636-.59c1.17-1.221 2.348-2.441 3.611-3.57.92-.783 1.482-1.626 1.187-2.868z"/><path d="M39.504 12.332c.12-.371.27-.731.449-1.078a14.355 14.355 0 0114.98-6.914c1.45.28 2.271 1.264 2.062 2.484-.21 1.22-1.313 1.949-2.807 1.675a10.132 10.132 0 00-10.427 4.608 6.34 6.34 0 01-.63.947c-.58.685-1.549.897-2.364.513-.836-.353-1.278-1.033-1.263-2.235z"/></g><defs><clipPath id="eclip0"><path d="M.738.181h70v40.638h-70z"/></clipPath></defs></svg><svg viewBox="0 0 28 28" id="vk" xmlns="http://www.w3.org/2000/svg"><path d="M9.925.693h8.164c7.458 0 9.218 1.774 9.218 9.232v8.164c0 7.458-1.774 9.218-9.232 9.218H9.911c-7.457 0-9.218-1.774-9.218-9.232V9.911C.693 2.467 2.467.693 9.925.693z"/><path fill-rule="evenodd" clip-rule="evenodd" d="M22.483 9.855c.125-.415 0-.706-.582-.706h-1.94c-.5 0-.721.263-.846.554 0 0-.984 2.412-2.384 3.964-.458.458-.652.596-.901.596-.125 0-.305-.138-.305-.554V9.855c0-.499-.139-.706-.555-.706h-3.05c-.304 0-.498.235-.498.443 0 .471.693.582.776 1.885v2.856c0 .623-.11.734-.36.734-.652 0-2.26-2.412-3.202-5.184-.194-.513-.375-.734-.874-.734h-1.94c-.555 0-.666.263-.666.554 0 .513.652 3.063 3.064 6.432 1.608 2.3 3.867 3.548 5.919 3.548 1.233 0 1.386-.277 1.386-.748v-1.747c0-.554.11-.665.513-.665.29 0 .776.138 1.926 1.247 1.317 1.317 1.539 1.913 2.274 1.913h1.94c.555 0 .832-.277.666-.818-.18-.54-.804-1.33-1.636-2.273-.457-.54-1.137-1.109-1.33-1.4-.292-.374-.209-.54 0-.86 0-.013 2.37-3.34 2.605-4.477z"/></svg><svg viewBox="0 0 70 28" id="yandex" xmlns="http://www.w3.org/2000/svg"><g clip-path="url(#gclip0)"><path d="M12.142.634h-3.6c-3.598 0-6.695 2.668-6.695 7.836 0 3.084 1.506 5.418 4.1 6.585l-4.854 8.67c-.167.25 0 .5.251.5h2.26a.46.46 0 00.419-.25l4.436-8.503h1.59v8.503c0 .083.084.25.251.25h2.01c.167 0 .25-.083.25-.25V.967c-.083-.25-.167-.333-.418-.333zm-2.093 12.838H8.71c-5.775 0-5.357-10.837-.251-10.837h1.674v10.837h-.084zM24.194 8.47h-2.008c-.168 0-.252.083-.252.25v6.002h-3.683V8.72c0-.167-.083-.25-.25-.25h-1.926c-.167 0-.25.083-.25.25v15.255c0 .167.083.25.25.25h2.01c.166 0 .25-.083.25-.25V16.64h3.683v7.336c0 .167.084.25.251.25h2.009c.167 0 .251-.083.251-.25V8.72c-.084-.167-.167-.25-.335-.25zm45.199 13.671c0-.083-.084-.083-.167-.083-.837 0-5.943 2.418-5.943-5.585 0-3.501 1.339-8.42 4.52-5.502.083.083.167.083.25.083.084 0 .168-.083.252-.25l.837-1.417c.084-.083.084-.167.084-.25 0-.167-.168-.25-.335-.333-5.525-2.751-8.37 2.334-8.37 8.252 0 7.67 5.608 8.753 8.788 6.42.168-.084.168-.251.168-.334l-.084-1zm-13.727-6.585l3.85-6.919c.084-.084 0-.25-.083-.25h-1.926c-.585 0-.753.166-.92.583-.168.417-3.014 6.336-3.348 6.586v-6.92c0-.083-.084-.25-.168-.25H50.98c-.084 0-.168.084-.168.25v15.34c0 .082.084.25.168.25h2.092c.168 0 .168-.084.168-.25v-7.92c.25.166 3.766 7.419 3.85 7.669.167.333.502.5.92.5h2.093c.168 0 .168-.083.084-.25l-4.52-8.42zm-18.33 6.669h-.42c-.501 0-.585-.167-.585-.584V8.637c0-.167-.084-.25-.167-.25h-6.445c-.168 0-.252.083-.252.25 0 3.5.084 9.336-2.26 13.588h-.669c-.167 0-.251.083-.251.25v4.584c0 .167.167.25.251.25h1.507c.334 0 .502-.25.502-.5v-2.584h6.78v2.834c0 .084.083.25.25.25h1.675c.167 0 .418-.166.418-.5v-4.334c-.083-.167-.167-.25-.334-.25zm-3.516 0h-4.688c1.34-2.168 2.595-5.669 2.595-11.838h2.093v11.838zM43.864 8.053c-3.432 0-5.022 4.252-5.022 8.92 0 7.67 5.357 8.836 9.04 6.585.167-.083.167-.166.167-.25l-.251-1.083c0-.084-.084-.167-.251-.167-1.34 0-6.026 2.334-6.026-5.252 1.673.167 1.673.167 6.696.167-.084-3.835-.502-8.92-4.353-8.92zm-2.26 7.002c0-6.085 4.018-7.252 4.018-.166-1.758 0-2.511 0-4.018.166z"/></g><defs><clipPath id="gclip0"><path d="M.994.634h68.582v26.802H.994z"/></clipPath></defs></svg></svg>