<svg width="28" height="28" viewBox="0 0 28 28" fill="none" xmlns="http://www.w3.org/2000/svg">
<path d="M9.9248 0.693085H18.0892C25.5466 0.693085 27.307 2.46734 27.307 9.92477V18.0891C27.307 25.5466 25.5327 27.3069 18.0753 27.3069H9.91094C2.45351 27.3069 0.693115 25.5327 0.693115 18.0753V9.91091C0.693115 2.46734 2.46737 0.693085 9.9248 0.693085Z" fill="#5181B8"/>
<path fill-rule="evenodd" clip-rule="evenodd" d="M22.4832 9.85546C22.608 9.43962 22.4832 9.14853 21.901 9.14853H19.9605C19.4614 9.14853 19.2397 9.4119 19.1149 9.70299C19.1149 9.70299 18.1308 12.1149 16.7308 13.6674C16.2733 14.1248 16.0793 14.2634 15.8298 14.2634C15.705 14.2634 15.5248 14.1248 15.5248 13.7089V9.85546C15.5248 9.35645 15.3862 9.14853 14.9704 9.14853H11.9209C11.6159 9.14853 11.4218 9.38417 11.4218 9.59209C11.4218 10.0634 12.1149 10.1743 12.1981 11.4772V14.3327C12.1981 14.9565 12.0872 15.0674 11.8377 15.0674C11.1862 15.0674 9.57828 12.6555 8.6357 9.88319C8.44164 9.37031 8.26144 9.14853 7.76243 9.14853H5.82184C5.26739 9.14853 5.15649 9.4119 5.15649 9.70299C5.15649 10.2159 5.80798 12.7664 8.21986 16.1347C9.82778 18.4357 12.0872 19.6832 14.1387 19.6832C15.3723 19.6832 15.5248 19.406 15.5248 18.9347V17.1882C15.5248 16.6337 15.6357 16.5228 16.0377 16.5228C16.3288 16.5228 16.8139 16.6614 17.9644 17.7703C19.2812 19.0872 19.503 19.6832 20.2377 19.6832H22.1783C22.7327 19.6832 23.01 19.406 22.8436 18.8654C22.6634 18.3248 22.0397 17.5347 21.208 16.5921C20.7506 16.0515 20.0713 15.4832 19.8773 15.1921C19.5862 14.8179 19.6694 14.6515 19.8773 14.3327C19.8773 14.3188 22.2476 10.9921 22.4832 9.85546Z" fill="white"/>
</svg>
