<svg width="70" height="28" viewBox="0 0 70 28" fill="none" xmlns="http://www.w3.org/2000/svg">
<g clip-path="url(#clip0)">
<path d="M12.1418 0.634033H8.54274C4.94351 0.634033 1.84664 3.3016 1.84664 8.46991C1.84664 11.5543 3.35317 13.8884 5.94795 15.0554L1.09324 23.725C0.925882 23.9751 1.09324 24.2251 1.34442 24.2251H3.60435C3.77171 24.2251 3.93907 24.1418 4.02275 23.9751L8.45905 15.4723H10.0493V23.9751C10.0493 24.0585 10.1331 24.2251 10.3004 24.2251H12.3093C12.4767 24.2251 12.5604 24.1418 12.5604 23.9751V0.967395C12.4767 0.717374 12.393 0.634033 12.1418 0.634033ZM10.0493 13.4717H8.7101C2.93476 13.4717 3.35317 2.63474 8.45905 2.63474H10.1331V13.4717H10.0493Z" fill="#FF0000"/>
<path d="M24.1943 8.47H22.1856C22.0182 8.47 21.9344 8.55334 21.9344 8.72016V14.722H18.2515V8.72016C18.2515 8.55347 18.1678 8.47 18.0005 8.47H16.0753C15.9079 8.47 15.8242 8.55334 15.8242 8.72016V23.9752C15.8242 24.1419 15.9079 24.2252 16.0753 24.2252H18.0841C18.2515 24.2252 18.3353 24.1419 18.3353 23.9752V16.6394H22.0181V23.9752C22.0181 24.1419 22.1017 24.2252 22.2692 24.2252H24.278C24.4453 24.2252 24.5292 24.1419 24.5292 23.9752V8.72016C24.4455 8.55347 24.3618 8.47 24.1944 8.47H24.1943ZM69.393 22.1413C69.393 22.058 69.3093 22.058 69.2257 22.058C68.3886 22.058 63.2829 24.4755 63.2829 16.4728C63.2829 12.9717 64.622 8.05343 67.8027 10.971C67.8864 11.0544 67.9701 11.0544 68.0537 11.0544C68.1374 11.0544 68.2211 10.971 68.3049 10.8043L69.1419 9.38715C69.2255 9.30381 69.2255 9.22046 69.2255 9.13712C69.2255 8.97044 69.0582 8.88697 68.8908 8.80363C63.3665 6.05273 60.5207 11.1377 60.5207 17.0563C60.5207 24.7255 66.1287 25.8092 69.3092 23.4752C69.4766 23.3918 69.4766 23.225 69.4766 23.1418L69.393 22.1413ZM55.666 15.5558L59.5163 8.63695C59.6 8.55347 59.5163 8.38679 59.4326 8.38679H57.5074C56.9215 8.38679 56.7542 8.55347 56.5867 8.97031C56.4193 9.38715 53.5735 15.3058 53.2386 15.5558V8.63681C53.2386 8.55334 53.1549 8.38666 53.0713 8.38666H50.9787C50.895 8.38666 50.8113 8.47 50.8113 8.63681V23.9752C50.8113 24.0585 50.895 24.2252 50.9787 24.2252H53.0713C53.2386 24.2252 53.2386 24.1419 53.2386 23.9752V16.0559C53.4898 16.2225 57.0052 23.475 57.0889 23.725C57.2562 24.0584 57.5911 24.2252 58.0096 24.2252H60.1022C60.2696 24.2252 60.2696 24.1419 60.1859 23.9752L55.666 15.5558ZM37.3354 22.2248H36.9169C36.4148 22.2248 36.331 22.0581 36.331 21.6411V8.63681C36.331 8.47013 36.2473 8.38666 36.1636 8.38666H29.7186C29.5512 8.38666 29.4675 8.47 29.4675 8.63681C29.4675 12.1379 29.5512 17.9732 27.2075 22.2247H26.538C26.3707 22.2247 26.2869 22.308 26.2869 22.4747V27.0595C26.2869 27.2262 26.4542 27.3096 26.538 27.3096H28.0446C28.3793 27.3096 28.5468 27.0595 28.5468 26.8095V24.2252H35.3267V27.0595C35.3267 27.1429 35.4103 27.3096 35.5777 27.3096H37.2517C37.4191 27.3096 37.6703 27.1429 37.6703 26.8095V22.4747C37.5866 22.308 37.5029 22.2247 37.3355 22.2247L37.3354 22.2248ZM33.82 22.2248H29.1325C30.4718 20.0574 31.7273 16.5563 31.7273 10.3875H33.8199V22.2248H33.82ZM43.8641 8.05343C40.4324 8.05343 38.8421 12.3047 38.8421 16.9729C38.8421 24.6422 44.199 25.8092 47.8817 23.5585C48.0491 23.4752 48.0491 23.3918 48.0491 23.3085L47.798 22.2248C47.798 22.1413 47.7144 22.0581 47.547 22.0581C46.2077 22.0581 41.5205 24.392 41.5205 16.8063C43.1945 16.973 43.1945 16.973 48.2166 16.973C48.1329 13.1384 47.7145 8.05343 43.8641 8.05343ZM41.6043 15.0554C41.6043 8.97004 45.6219 7.80301 45.6219 14.8887C43.8642 14.8887 43.111 14.8887 41.6043 15.0554Z" fill="black"/>
</g>
<defs>
<clipPath id="clip0">
<rect x="0.993652" y="0.634033" width="68.5824" height="26.8023" fill="white"/>
</clipPath>
</defs>
</svg>
