<svg width="382" height="42" viewBox="0 0 382 42" fill="none" xmlns="http://www.w3.org/2000/svg">
<path d="M38.3677 23.7019L28.1363 0.481531L18.0115 23.7019L10.6577 2.35414H0L16.1464 42L28.1363 19.4217L40.1795 42L56.3259 2.35414H45.6149L38.3677 23.7019ZM62.9031 2.35414V27.5006C62.9031 29.8548 63.2761 31.9057 64.0222 33.6535C64.8037 35.4013 65.8695 36.8459 67.2195 37.9873C68.605 39.093 70.2036 39.9312 72.0154 40.5019C73.8272 41.0726 75.7811 41.358 77.8772 41.358C79.9732 41.358 81.9271 41.0726 83.7389 40.5019C85.5862 39.9312 87.1849 39.093 88.5348 37.9873C89.9203 36.8459 90.9861 35.4013 91.7321 33.6535C92.5137 31.9057 92.9045 29.8548 92.9045 27.5006V2.35414H83.8988V26.8586C83.8988 28.7491 83.4014 30.2828 82.4067 31.4599C81.4119 32.6369 79.9021 33.2255 77.8772 33.2255C75.8877 33.2255 74.3956 32.6369 73.4009 31.4599C72.4062 30.2828 71.9089 28.7491 71.9089 26.8586V2.35414H62.9031ZM128.937 2.35414V23.4344L103.198 0.481531V39.8064H111.831V18.7261L137.623 41.679V2.35414H128.937ZM148.171 2.35414V39.8064H157.443V2.35414H148.171ZM161.493 39.8064C165.579 39.8064 169.113 39.0395 172.098 37.5057C175.082 35.972 177.391 33.814 179.025 31.0318C180.659 28.214 181.476 24.8968 181.476 21.0803C181.476 17.228 180.659 13.9108 179.025 11.1287C177.391 8.3465 175.082 6.18854 172.098 4.65478C169.113 3.12102 165.579 2.35414 161.493 2.35414H154.139V10.3796H161.173C162.594 10.3796 163.962 10.558 165.277 10.9147C166.627 11.2713 167.799 11.8599 168.794 12.6803C169.824 13.5006 170.641 14.6064 171.245 15.9975C171.849 17.3529 172.151 19.0471 172.151 21.0803C172.151 23.1134 171.849 24.8255 171.245 26.2166C170.641 27.572 169.824 28.6599 168.794 29.4803C167.799 30.3006 166.627 30.8892 165.277 31.2459C163.962 31.6025 162.594 31.7809 161.173 31.7809H154.139V39.8064H161.493ZM195.885 39.8064H214.696V32.3694H195.885V39.8064ZM195.885 9.79109H214.696V2.35414H195.885V9.79109ZM195.885 23.7554H213.631V16.479H195.885V23.7554ZM189.917 2.35414V39.8064H198.55V2.35414H189.917ZM234.016 22.8459L244.46 39.8064H255.011L243.341 22.8459H234.016ZM224.69 2.35414V39.8064H233.696V2.35414H224.69ZM230.339 10.0051H237.639C238.847 10.0051 239.877 10.2013 240.73 10.5936C241.618 10.986 242.293 11.5567 242.755 12.3057C243.217 13.0191 243.448 13.893 243.448 14.9274C243.448 15.9618 243.217 16.8535 242.755 17.6025C242.293 18.3159 241.618 18.8688 240.73 19.2611C239.877 19.6178 238.847 19.7962 237.639 19.7962H230.339V26.8051H238.279C241.476 26.8051 244.14 26.2879 246.272 25.2535C248.403 24.2191 250.02 22.7924 251.121 20.9732C252.222 19.1185 252.773 16.9962 252.773 14.6064C252.773 12.1809 252.222 10.0586 251.121 8.23949C250.02 6.38472 248.403 4.94013 246.272 3.90574C244.14 2.87134 241.476 2.35414 238.279 2.35414H230.339V10.0051ZM280.497 2.35414V39.8064H289.503V2.35414H280.497ZM286.146 9.79109H293.446C295.258 9.79109 296.679 10.2013 297.709 11.0217C298.74 11.842 299.255 13.0369 299.255 14.6064C299.255 16.1401 298.74 17.3172 297.709 18.1376C296.679 18.958 295.258 19.3682 293.446 19.3682H286.146V26.8051H293.446C296.608 26.8051 299.255 26.3236 301.386 25.3605C303.553 24.3618 305.188 22.9529 306.289 21.1338C307.39 19.279 307.941 17.1032 307.941 14.6064C307.941 12.0382 307.39 9.84459 306.289 8.02548C305.188 6.20637 303.553 4.81529 301.386 3.85223C299.255 2.8535 296.608 2.35414 293.446 2.35414H286.146V9.79109ZM318.478 32.5834H338.194L337.608 25.6815H319.117L318.478 32.5834ZM328.229 16.1045L333.505 28.2497L333.185 30.5503L337.662 39.8064H347.893L328.229 0L308.619 39.8064H318.797L323.434 30.1758L323.007 28.1962L328.229 16.1045ZM371.662 2.35414L364.362 16.4255L357.061 2.35414H346.723L359.779 24.6115V39.8064H368.944V24.558L382 2.35414H371.662Z" fill="white"/>
</svg>
