<svg width="104" height="105" viewBox="0 0 104 105" fill="none" xmlns="http://www.w3.org/2000/svg">
<path d="M0.596663 19.9692C0.430585 20.1414 0.306677 20.3383 0.209138 20.5484C0.176625 20.6187 0.156413 20.6908 0.13181 20.7646C0.0755719 20.9334 0.0413023 21.1039 0.0289996 21.2815C0.0254847 21.3307 0 21.3755 0 21.4247V102.9C0 104.061 0.939361 105 2.09926 105H78.9207C80.0815 105 81.02 104.06 81.02 102.9L81.0209 63.9119L103.006 17.7322C104.175 15.2816 104.317 12.5227 103.411 9.96316C102.502 7.40363 100.653 5.35307 98.2025 4.18569C95.7483 3.01492 92.9908 2.87517 90.4338 3.78137C87.8768 4.68757 85.825 6.53779 84.6561 8.9909L81.0209 16.6265V2.09983C81.0209 0.938715 80.0815 0 78.9216 0H21.4236C21.3884 0 21.3568 0.0184581 21.3217 0.0202161C21.1178 0.0307637 20.921 0.0694383 20.7294 0.137998C20.674 0.157335 20.6196 0.172276 20.566 0.196009C20.3393 0.298847 20.1248 0.428043 19.9421 0.61089L10.2797 10.2768L0.617255 19.941C0.608468 19.9489 0.605831 19.9612 0.597923 19.9691L0.596663 19.9692ZM60.6186 83.1194L60.1679 72.0049C63.7266 72.258 67.0897 73.856 69.5306 76.4628L60.6186 83.1194ZM72.0193 73.0449C69.1009 70.1892 65.3049 68.381 61.2505 67.9152L81.8706 24.6067L92.6394 29.7373L72.0193 73.0449ZM88.446 10.7969C89.1332 9.35892 90.3361 8.27426 91.837 7.74075C93.3378 7.20722 94.9555 7.2916 96.395 7.97632C97.8325 8.66367 98.9187 9.86696 99.4521 11.3682C99.9828 12.8695 99.9011 14.4876 99.2139 15.9274L94.4434 25.9475L83.6746 20.817L88.446 10.7969ZM76.8204 25.4474L72.1097 35.3419C71.8004 35.1626 71.4612 35.0325 71.0781 35.0325H13.9557C12.7949 35.0325 11.8565 35.9721 11.8565 37.1324C11.8565 38.2935 12.7958 39.2322 13.9557 39.2322H70.2548L64.3092 51.7205L13.9557 51.7214C12.7949 51.7214 11.8565 52.661 11.8565 53.8212C11.8565 54.9823 12.7958 55.921 13.9557 55.921H62.3094L56.3639 68.4093H13.9557C12.7949 68.4093 11.8565 69.3489 11.8565 70.5092C11.8565 71.6703 12.7958 72.609 13.9557 72.609L55.9905 72.6099L56.4966 85.0955H13.9557C12.7949 85.0955 11.8565 86.0351 11.8565 87.1953C11.8565 88.3564 12.7958 89.2951 13.9557 89.2951H58.6809C58.7512 89.2951 58.811 89.2617 58.8804 89.2547C59.0561 89.238 59.2292 89.2116 59.3962 89.151C59.5113 89.1088 59.6089 89.0464 59.7134 88.9857C59.7872 88.9436 59.869 88.9207 59.9384 88.8688L73.7966 78.5182C73.9003 78.4408 73.9522 78.3169 74.0391 78.2229C74.1472 78.1051 74.2597 77.9952 74.337 77.8598C74.3634 77.8141 74.4135 77.7869 74.4363 77.7385L76.8186 72.7347V100.803H4.19698V23.5263H21.4216C22.5824 23.5263 23.5209 22.5867 23.5209 21.4264L23.5218 4.20047H76.8199L76.8204 25.4474ZM19.3247 7.16854V19.3263L7.17024 19.3272L13.2467 13.2482L19.3247 7.16854Z" fill="white"/>
</svg>
