<svg width="78" height="105" viewBox="0 0 78 105" fill="none" xmlns="http://www.w3.org/2000/svg">
<path d="M23.1439 105H69.2868C69.8392 105 70.3692 104.785 70.7598 104.401C71.1513 104.018 71.3703 103.498 71.3703 102.956V101.531C71.3528 94.2703 72.4449 87.0483 74.6117 80.1053C75.3249 77.8234 76.0604 75.6689 76.6215 74.0475C77.9763 70.1671 78.3397 66.0204 77.6797 61.9706C77.6797 61.9706 75.7271 49.8966 75.6641 49.4908L75.6612 49.467C74.9634 45.1912 70.6472 43.3635 66.9347 43.8262H66.9337C65.8997 43.945 64.8958 44.2463 63.9714 44.7158C63.546 42.0346 61.7203 39.767 59.1599 38.7378C56.5997 37.7085 53.6768 38.0678 51.4558 39.6854C50.4441 37.6458 48.6019 36.1175 46.3828 35.4789C44.1627 34.8392 41.771 35.1472 39.795 36.3266L39.5712 30.0795C43.6102 27.4879 46.308 23.3079 46.9689 18.6187C47.6298 13.9294 46.1888 9.18865 43.018 5.61986C39.8473 2.05009 35.2568 0.00097322 30.4299 0C25.603 0 21.0125 2.04814 17.8408 5.61596C14.6691 9.18476 13.227 13.9253 13.8869 18.6148C14.5469 23.304 17.2427 27.484 21.2819 30.0776L20.5144 51.7651L15.108 43.0109H15.1071C13.6971 40.729 11.2192 39.2891 8.50094 39.1723C5.78372 39.0545 3.18557 40.2758 1.57702 42.4275C-0.03163 44.5783 -0.439598 47.3754 0.49167 49.8826L6.97847 67.3417C8.66465 76.3724 14.9547 86.0742 18.5675 91.0688L18.5666 91.0697C20.1985 93.3355 21.0697 96.0431 21.059 98.8175V102.957C21.059 103.498 21.279 104.018 21.6695 104.401C22.0601 104.785 22.5901 105 23.1435 105L23.1439 105ZM17.8982 16.4292C17.8982 12.3395 19.973 8.51795 23.4326 6.23526C26.8931 3.95333 31.2839 3.50854 35.1458 5.0501C39.0084 6.59165 41.8352 9.91717 42.6869 13.9203C43.5377 17.9234 42.3022 22.0805 39.3902 25.0077L39.2109 20.035C39.1043 17.027 37.4055 14.2918 34.7308 12.8176C32.0553 11.3435 28.7905 11.3445 26.1157 12.8186C23.4412 14.2936 21.7433 17.0289 21.6376 20.0369L21.4613 25.0057C19.1772 22.7124 17.8981 19.635 17.8981 16.4292L17.8982 16.4292ZM11.05 66.4527C11.0296 66.3349 10.9976 66.2199 10.956 66.1077L4.4079 48.4871C3.95342 47.263 4.15109 45.8971 4.93604 44.847C5.72099 43.7959 6.98948 43.199 8.31613 43.256C9.64376 43.313 10.854 44.0154 11.5422 45.1293L20.5701 59.7465C21.0478 60.5192 21.9858 60.8927 22.8774 60.6646C23.7699 60.4375 24.4027 59.6619 24.4347 58.7581L25.4861 29.1041C25.4871 29.0899 25.4929 29.0766 25.4929 29.0623L25.802 20.1797L25.803 20.1807C25.8563 18.5973 26.7488 17.1554 28.1568 16.3781C29.5649 15.6016 31.2839 15.6016 32.692 16.3781C34.1001 17.1555 34.9925 18.5973 35.0459 20.1807L35.8793 43.4647V43.4723L36.4239 58.7587C36.4636 59.8583 37.3832 60.7308 38.5054 60.7317L38.5791 60.7308V60.7298C39.1314 60.7118 39.6537 60.478 40.0307 60.0816C40.4077 59.6853 40.6083 59.1578 40.5889 58.6161L40.118 45.3949L40.1189 45.3807L40.0443 43.3287V43.3297C40.0036 42.2567 40.4116 41.215 41.1742 40.4453C41.9243 39.7182 42.9292 39.301 43.9825 39.2772C45.0368 39.2535 46.0602 39.627 46.8431 40.3189C47.5932 41.0108 48.0409 41.9612 48.0922 42.9697L48.2841 46.3275L48.2851 46.3304V46.3351L48.9799 58.7997V58.7987C49.039 59.8822 49.9519 60.7309 51.0576 60.7318C51.0963 60.7318 51.1341 60.7309 51.1729 60.729V60.728C51.7253 60.6995 52.2427 60.4562 52.611 60.0523C52.9802 59.6493 53.1711 59.1181 53.1401 58.5763L52.5412 47.831V47.8253L52.4453 46.1079V46.107C52.3852 45.1024 52.7544 44.1177 53.4628 43.3888C54.146 42.713 55.0666 42.3177 56.0376 42.2844C57.0077 42.2502 57.9544 42.579 58.6861 43.2053C59.378 43.8183 59.8054 44.6671 59.8819 45.5794L60.4052 51.1402L60.4062 51.1421V51.144L61.4102 61.8922H61.4092C61.5071 62.9434 62.4054 63.7484 63.482 63.7493C63.546 63.7493 63.6099 63.7465 63.6749 63.7408C64.2253 63.6913 64.7331 63.429 65.0858 63.0127C65.4395 62.5965 65.6101 62.0595 65.5597 61.5197L64.5558 50.7695C64.3397 48.4495 66.7187 47.9744 67.4533 47.8841C68.9205 47.7026 71.2249 48.1483 71.5447 50.1138L71.5544 50.1128C71.6561 50.8104 72.0486 53.2379 73.5652 62.6175L73.5642 62.6165C74.1176 66.0058 73.8133 69.4765 72.6785 72.7232L72.6756 72.7308C72.1048 74.3797 71.3567 76.5723 70.627 78.9047L70.6279 78.9056C68.4001 86.0393 67.2479 93.4535 67.2052 100.913H25.2276V98.8186C25.2392 95.1984 24.1005 91.6649 21.9695 88.709C18.5324 83.958 12.5445 74.7474 11.05 66.4532L11.05 66.4527Z" fill="white"/>
</svg>
