<svg width="105" height="105" viewBox="0 0 105 105" fill="none" xmlns="http://www.w3.org/2000/svg">
<path d="M101.801 50.1621L83.7334 37.5293V4.38867C83.7334 3.19922 82.7695 2.25586 81.6006 2.25586H23.3994C22.21 2.25586 21.2666 3.21973 21.2666 4.38867V37.5293L3.19922 50.1621C3.19922 50.1621 2.25586 50.7568 2.25586 51.9463V100.611C2.25586 101.801 3.21973 102.744 4.38867 102.744H100.591C101.78 102.744 102.724 101.78 102.724 100.611V51.9258C102.744 50.7363 101.801 50.1621 101.801 50.1621ZM96.8789 51.9258L83.7334 61.1133V42.7383L96.8789 51.9258ZM25.5527 6.54199H79.4678V64.0869L52.5 82.585L25.5527 64.0869V6.54199ZM21.2666 42.7383V61.1133L8.12109 51.9258L21.2666 42.7383ZM6.54199 98.458V56.0273L51.29 86.9326C52.377 87.6299 53.3408 87.1787 53.71 86.9326L98.458 56.0273V98.458H6.54199Z" fill="white"/>
<path d="M35.458 19.749H69.542C70.7314 19.749 71.6748 18.7852 71.6748 17.6162C71.6748 16.4268 70.7109 15.4834 69.542 15.4834H35.458C34.2686 15.4834 33.3252 16.4473 33.3252 17.6162C33.3252 18.8057 34.2686 19.749 35.458 19.749Z" fill="white"/>
<path d="M35.458 32.1152H69.542C70.7314 32.1152 71.6748 31.1514 71.6748 29.9824C71.6748 28.793 70.7109 27.8496 69.542 27.8496H35.458C34.2686 27.8496 33.3252 28.8135 33.3252 29.9824C33.3252 31.1514 34.2686 32.1152 35.458 32.1152Z" fill="white"/>
<path d="M35.458 44.4609H69.542C70.7314 44.4609 71.6748 43.4971 71.6748 42.3281C71.6748 41.1387 70.7109 40.1953 69.542 40.1953H35.458C34.2686 40.1953 33.3252 41.1592 33.3252 42.3281C33.3252 43.4971 34.2686 44.4609 35.458 44.4609Z" fill="white"/>
</svg>
