<svg width="469" height="140" viewBox="0 0 469 140" fill="none" xmlns="http://www.w3.org/2000/svg">
<path d="M6.38984 105.532H32.8398V97.9321H6.38984V105.532ZM27.5398 85.1821V120.182H35.9898V85.1821H27.5398ZM4.03984 85.1821V120.182H12.4898V85.1821H4.03984ZM51.3465 113.432H69.8465L69.2965 106.982H51.9465L51.3465 113.432ZM60.4965 98.0321L65.4465 109.382L65.1465 111.532L69.3465 120.182H78.9465L60.4965 82.9821L42.0965 120.182H51.6465L55.9965 111.182L55.5965 109.332L60.4965 98.0321ZM123.014 112.632H112.514V85.1821H104.364V112.632H93.8641V85.1821H85.4141V120.182H131.464V85.1821H123.014V112.632ZM173.717 93.9821L173.967 83.4321L141.917 111.382L141.667 121.932L173.717 93.9821ZM149.767 85.1821H141.667V121.932L149.767 113.632V85.1821ZM173.967 83.4321L165.817 92.0321V120.182H173.967V83.4321ZM201.354 85.1821V120.182H210.104V85.1821H201.354ZM222.004 85.1821L207.654 101.832L222.404 120.182H232.654L217.704 101.582L231.904 85.1821H222.004ZM269.615 85.1821H240.865V105.882C240.865 106.949 240.749 107.932 240.515 108.832C240.282 109.732 239.932 110.499 239.465 111.132C239.032 111.732 238.482 112.199 237.815 112.532C237.182 112.865 236.449 113.032 235.615 113.032V120.182C238.849 120.182 241.482 119.649 243.515 118.582C245.549 117.482 247.032 115.832 247.965 113.632C248.932 111.399 249.415 108.649 249.415 105.382V92.7321H261.015V120.182H269.615V85.1821ZM311.842 93.9821L312.092 83.4321L280.042 111.382L279.792 121.932L311.842 93.9821ZM287.892 85.1821H279.792V121.932L287.892 113.632V85.1821ZM312.092 83.4321L303.942 92.0321V120.182H312.092V83.4321ZM327.589 120.182H345.239V113.232H327.589V120.182ZM327.589 92.1321H345.239V85.1821H327.589V92.1321ZM327.589 105.182H344.239V98.3821H327.589V105.182ZM321.989 85.1821V120.182H330.089V85.1821H321.989ZM356.966 105.532H383.416V97.9321H356.966V105.532ZM378.116 85.1821V120.182H386.566V85.1821H378.116ZM354.616 85.1821V120.182H363.066V85.1821H354.616ZM392.923 92.7321H402.523V120.182H410.973V92.7321H420.623V85.1821H392.923V92.7321ZM456.35 85.1821V120.182H464.95V85.1821H456.35ZM426.95 85.1821V120.182H435.4V85.1821H426.95ZM432.25 104.282H439.1C440.233 104.282 441.2 104.449 442 104.782C442.833 105.115 443.467 105.615 443.9 106.282C444.333 106.949 444.55 107.765 444.55 108.732C444.55 109.699 444.333 110.532 443.9 111.232C443.467 111.899 442.833 112.399 442 112.732C441.2 113.065 440.233 113.232 439.1 113.232H432.25V120.182H439.1C442.067 120.182 444.55 119.732 446.55 118.832C448.583 117.899 450.117 116.582 451.15 114.882C452.183 113.149 452.7 111.099 452.7 108.732C452.7 106.365 452.183 104.332 451.15 102.632C450.117 100.932 448.583 99.6321 446.55 98.7321C444.55 97.7987 442.067 97.3321 439.1 97.3321H432.25V104.282Z" fill="#171717"/>
<path opacity="0.5" fill-rule="evenodd" clip-rule="evenodd" d="M36.6343 67.1821H38.6343V47.1816V45.1816H36.6343H28.1843H26.1843V47.1816V57.9316H15.1343V47.1816V45.1816H13.1343H4.68433H2.68433V47.1816V67.1821H4.68433V49.1816V47.1816H6.68433H11.1343H13.1343V49.1816V57.9316V59.9316H15.1343H26.1843H28.1843V57.9316V49.1816V47.1816H30.1843H34.6343H36.6343V49.1816V67.1821ZM74.3842 67.1821L62.9327 44.0929L61.1385 40.4754L59.3483 44.0949L47.9288 67.1821H50.1601L60.0262 47.2352L61.141 44.9816L62.2581 47.234L72.1517 67.1821H74.3842ZM176.611 67.1821V45.4551L176.718 40.9404L176.611 41.0337V40.4136L173.225 43.9867L152.411 62.1379V47.1816V45.1816H150.411H142.311H140.311V47.1816V67.1821H142.311V49.1816V47.1816H144.311H148.411H150.411V49.1816V63.8821V66.5358L152.411 64.7916L164.461 54.2831L164.75 54.0316L165.641 53.2543L172.569 47.213L172.611 47.1757L174.611 45.4316V48.0853V48.3391V55.9875V56.2682V58.4172V67.1821H176.611ZM259.66 67.1821V56.7316H252.06V67.1821H250.06V56.7316V54.7316H252.06H259.66H261.66V56.7316V67.1821H259.66ZM314.736 67.1821V45.4558L314.843 40.9404L314.736 41.0337V40.4136L311.35 43.9868L290.536 62.138V47.1816V45.1816H288.536H280.436H278.436V47.1816V67.1821H280.436V49.1816V47.1816H282.436H286.536H288.536V49.1816V63.8821V66.5358L290.536 64.7916L302.586 54.2831L302.875 54.0316L303.766 53.2543L310.693 47.213L310.736 47.1757L312.736 45.4316V48.0853V48.3391V55.9875V56.2682V58.4172V67.1821H314.736ZM346.884 67.1821V67.1816V60.3816V58.3816H344.884H332.734V56.1316H345.884H347.884V54.1316V47.1816V45.1816H345.884H332.734H330.734H328.234H326.234H322.634H320.634V47.1816V67.1821H322.634V49.1816V47.1816H324.634H326.234H328.234H328.734H330.234H330.734H332.734H343.884H345.884V49.1816V52.1316V54.1316H343.884H332.734H330.734V56.1316V58.3816V60.3816H332.734H342.884H344.884V62.3816V65.1816V67.1816H342.884H332.734H330.734V67.1821H346.884ZM389.21 67.1821V47.1816V45.1816H387.21H378.76H376.76V47.1816V57.9316H365.71V47.1816V45.1816H363.71H355.26H353.26V47.1816V67.1821H355.26V49.1816V47.1816H357.26H361.71H363.71V49.1816V57.9316V59.9316H365.71H376.76H378.76V57.9316V49.1816V47.1816H380.76H385.21H387.21V49.1816V67.1821H389.21ZM413.617 67.1821V56.7316H421.267H423.267V54.7316V47.1816V45.1816H421.267H393.567H391.567V47.1816V54.7316V56.7316H393.567H401.167V67.1821H403.167V56.7316V54.7316H401.167H395.567H393.567V52.7316V49.1816V47.1816H395.567H419.267H421.267V49.1816V52.7316V54.7316H419.267H413.617H411.617V56.7316V67.1821H413.617ZM467.594 67.1821V47.1816V45.1816H465.594H456.994H454.994V47.1816V67.1821H456.994V49.1816V47.1816H458.994H463.594H465.594V49.1816V67.1821H467.594ZM454.955 67.1821C454.654 65.8974 454.174 64.6966 453.504 63.5927C452.237 61.5086 450.375 59.9558 448.022 58.9108C445.686 57.8248 442.9 57.3316 439.744 57.3316H438.044V47.1816V45.1816H436.044H427.594H425.594V47.1816V67.1821H427.594V49.1816V47.1816H429.594H434.044H436.044V49.1816V57.3316V59.3316H438.044H439.744C442.711 59.3316 445.194 59.7982 447.194 60.7316C449.228 61.6316 450.761 62.9316 451.794 64.6316C452.269 65.4116 452.634 66.2617 452.891 67.1821H454.955ZM443.429 67.1821C443.191 67.0291 442.929 66.8956 442.644 66.7816C441.844 66.4482 440.878 66.2816 439.744 66.2816H438.044H436.044V67.1821H443.429ZM304.586 67.1821V65.5246V62.871L302.586 64.6151L299.643 67.1821H304.586ZM272.26 67.1821H270.26V49.1816V47.1816H268.26H243.51H241.51V49.1816V67.1821H239.51V47.1816V45.1816H241.51H270.26H272.26V47.1816V67.1821ZM223.809 67.1821L220.953 63.6292L234.061 48.4907L236.926 45.1816H232.549H222.649H221.732L221.134 45.8759L212.749 55.6048V47.1816V45.1816H210.749H201.999H199.999V47.1816V67.1821H201.999V49.1816V47.1816H203.999H208.749H210.749V49.1816V57.9254V60.9889L212.749 58.6683L222.649 47.1816H229.903H232.549L230.817 49.1816L218.349 63.5816L221.243 67.1821H223.809ZM210.992 67.1821L210.749 66.8795V67.1821H210.992ZM166.461 67.1821V65.5246V62.8709L164.461 64.6151L161.518 67.1821H166.461ZM134.109 67.1821H132.109V49.1816V47.1816H130.109H125.659H123.659V49.1816V67.1821H121.659V47.1816V45.1816H123.659H132.109H134.109V47.1816V67.1821ZM115.159 67.1821V47.1816V45.1816H113.159H105.009H103.009V47.1816V67.1821H105.009V49.1816V47.1816H107.009H111.159H113.159V49.1816V67.1821H115.159ZM94.5085 67.1821H96.5085V47.1816V45.1816H94.5085H86.0585H84.0585V47.1816V67.1821H86.0585V49.1816V47.1816H88.0585H92.5085H94.5085V49.1816V67.1821ZM64.2595 67.1821L64.172 66.9816L62.2341 62.538L61.141 60.0316L60.0531 62.5402L58.1273 66.9816L58.0403 67.1821H64.2595ZM60.3072 66.9816L61.1462 65.0466L61.9901 66.9816H60.3072Z" fill="#171717"/>
<path opacity="0.2" fill-rule="evenodd" clip-rule="evenodd" d="M35.9979 26.7685H37.9979V6.76799V4.76799H35.9979H27.5479H25.5479V6.76799V17.518H14.4979V6.76799V4.76799H12.4979H4.04785H2.04785V6.76799V26.7685H4.04785V8.76799V6.76799H6.04785H10.4979H12.4979V8.76799V17.518V19.518H14.4979H25.5479H27.5479V17.518V8.76799V6.76799H29.5479H33.9979H35.9979V8.76799V26.7685ZM73.7477 26.7685L62.2962 3.67935L60.5021 0.061841L58.7118 3.68128L47.2923 26.7685H49.5236L59.3898 6.82167L60.5045 4.56799L61.6217 6.82046L71.5152 26.7685H73.7477ZM175.975 26.7685V5.04219L176.082 0.526853L175.975 0.620159V0L172.589 3.57321L151.775 21.7244V6.76799V4.76799H149.775H141.675H139.675V6.76799V26.7685H141.675V8.76799V6.76799H143.675H147.775H149.775V8.76799V23.4685V26.1222L151.775 24.378L163.825 13.8695L164.113 13.618L165.005 12.8407L171.932 6.79945L171.975 6.76214L173.975 5.01799V7.67168V7.92556V15.5739V15.8547V18.0037V26.7685H175.975ZM259.023 26.7685V16.318H251.423V26.7685H249.423V16.318V14.318H251.423H259.023H261.023V16.318V26.7685H259.023ZM314.1 26.7685V5.04219L314.207 0.526853L314.1 0.620159V0L310.714 3.57321L289.9 21.7244V6.76799V4.76799H287.9H279.8H277.8V6.76799V26.7685H279.8V8.76799V6.76799H281.8H285.9H287.9V8.76799V23.4685V26.1222L289.9 24.3781L301.95 13.8695L302.238 13.618L303.13 12.8407L310.057 6.79946L310.1 6.76214L312.1 5.01799V7.67168V7.92556V15.5739V15.8547V18.0037V26.7685H314.1ZM346.247 26.7685V26.768V19.968V17.968H344.247H332.097V15.718H345.247H347.247V13.718V6.76799V4.76799H345.247H332.097H330.097H327.597H325.597H321.997H319.997V6.76799V26.7685H321.997V8.76799V6.76799H323.997H325.597H327.597H328.097H329.597H330.097H332.097H343.247H345.247V8.76799V11.718V13.718H343.247H332.097H330.097V15.718V17.968V19.968H332.097H342.247H344.247V21.968V24.768V26.768H342.247H332.097H330.097V26.7685H346.247ZM388.574 26.7685V6.76799V4.76799H386.574H378.124H376.124V6.76799V17.518H365.074V6.76799V4.76799H363.074H354.624H352.624V6.76799V26.7685H354.624V8.76799V6.76799H356.624H361.074H363.074V8.76799V17.518V19.518H365.074H376.124H378.124V17.518V8.76799V6.76799H380.124H384.574H386.574V8.76799V26.7685H388.574ZM412.981 26.7685V16.318H420.631H422.631V14.318V6.76799V4.76799H420.631H392.931H390.931V6.76799V14.318V16.318H392.931H400.531V26.7685H402.531V16.318V14.318H400.531H394.931H392.931V12.318V8.76799V6.76799H394.931H418.631H420.631V8.76799V12.318V14.318H418.631H412.981H410.981V16.318V26.7685H412.981ZM466.958 26.7685V6.76799V4.76799H464.958H456.358H454.358V6.76799V26.7685H456.358V8.76799V6.76799H458.358H462.958H464.958V8.76799V26.7685H466.958ZM454.318 26.7685C454.017 25.4838 453.538 24.2831 452.867 23.1792C451.6 21.0948 449.738 19.5419 447.385 18.4969C445.049 17.4112 442.263 16.918 439.108 16.918H437.408V6.76799V4.76799H435.408H426.958H424.958V6.76799V26.7685H426.958V8.76799V6.76799H428.958H433.408H435.408V8.76799V16.918V18.918H437.408H439.108C442.075 18.918 444.558 19.3847 446.558 20.318C448.591 21.218 450.125 22.518 451.158 24.218C451.632 24.998 451.997 25.8482 452.254 26.7685H454.318ZM442.793 26.7685C442.555 26.6155 442.293 26.482 442.008 26.368C441.208 26.0347 440.241 25.868 439.108 25.868H437.408H435.408V26.7685H442.793ZM303.95 26.7685V25.1111V22.4574L301.95 24.2015L299.006 26.7685H303.95ZM271.623 26.7685H269.623V8.76799V6.76799H267.623H242.873H240.873V8.76799V26.7685H238.873V6.76799V4.76799H240.873H269.623H271.623V6.76799V26.7685ZM223.172 26.7685L220.317 23.2156L233.424 8.07715L236.29 4.76799H231.912H222.012H221.096L220.497 5.46229L212.112 15.1912V6.76799V4.76799H210.112H201.362H199.362V6.76799V26.7685H201.362V8.76799V6.76799H203.362H208.112H210.112V8.76799V17.5118V20.5753L212.112 18.2547L222.012 6.76799H229.267H231.912L230.181 8.76799L217.712 23.168L220.606 26.7685H223.172ZM210.355 26.7685L210.112 26.466V26.7685H210.355ZM165.825 26.7685V25.1111V22.4574L163.825 24.2015L160.881 26.7685H165.825ZM133.472 26.7685H131.472V8.76799V6.76799H129.472H125.022H123.022V8.76799V26.7685H121.022V6.76799V4.76799H123.022H131.472H133.472V6.76799V26.7685ZM114.522 26.7685V6.76799V4.76799H112.522H104.372H102.372V6.76799V26.7685H104.372V8.76799V6.76799H106.372H110.522H112.522V8.76799V26.7685H114.522ZM93.8721 26.7685H95.8721V6.76799V4.76799H93.8721H85.4221H83.4221V6.76799V26.7685H85.4221V8.76799V6.76799H87.4221H91.8721H93.8721V8.76799V26.7685ZM63.623 26.7685L63.5356 26.568L61.5976 22.1244L60.5045 19.618L59.4167 22.1267L57.4908 26.568L57.4038 26.7685H63.623ZM59.6707 26.568L60.5098 24.6331L61.3536 26.568H59.6707Z" fill="#171717"/>
</svg>
