<svg width="1083" height="360" viewBox="0 0 1083 360" fill="none" xmlns="http://www.w3.org/2000/svg">
<path d="M111.6 258.85L82.8 193.75L54.3 258.85L33.6 199H3.6L49.05 310.15L82.8 246.85L116.7 310.15L162.15 199H132L111.6 258.85ZM180.664 199V269.5C180.664 276.1 181.714 281.85 183.814 286.75C186.014 291.65 189.014 295.7 192.814 298.9C196.714 302 201.214 304.35 206.314 305.95C211.414 307.55 216.914 308.35 222.814 308.35C228.714 308.35 234.214 307.55 239.314 305.95C244.514 304.35 249.014 302 252.814 298.9C256.714 295.7 259.714 291.65 261.814 286.75C264.014 281.85 265.114 276.1 265.114 269.5V199H239.764V267.7C239.764 273 238.364 277.3 235.564 280.6C232.764 283.9 228.514 285.55 222.814 285.55C217.214 285.55 213.014 283.9 210.214 280.6C207.414 277.3 206.014 273 206.014 267.7V199H180.664ZM366.54 199V258.1L294.09 193.75V304H318.39V244.9L390.99 309.25V199H366.54ZM420.682 199V304H446.782V199H420.682ZM458.182 304C469.682 304 479.632 301.85 488.032 297.55C496.432 293.25 502.932 287.2 507.532 279.4C512.132 271.5 514.432 262.2 514.432 251.5C514.432 240.7 512.132 231.4 507.532 223.6C502.932 215.8 496.432 209.75 488.032 205.45C479.632 201.15 469.682 199 458.182 199H437.482V221.5H457.282C461.282 221.5 465.132 222 468.832 223C472.632 224 475.932 225.65 478.732 227.95C481.632 230.25 483.932 233.35 485.632 237.25C487.332 241.05 488.182 245.8 488.182 251.5C488.182 257.2 487.332 262 485.632 265.9C483.932 269.7 481.632 272.75 478.732 275.05C475.932 277.35 472.632 279 468.832 280C465.132 281 461.282 281.5 457.282 281.5H437.482V304H458.182ZM554.992 304H607.942V283.15H554.992V304ZM554.992 219.85H607.942V199H554.992V219.85ZM554.992 259H604.942V238.6H554.992V259ZM538.192 199V304H562.492V199H538.192ZM662.323 256.45L691.723 304H721.423L688.573 256.45H662.323ZM636.073 199V304H661.423V199H636.073ZM651.973 220.45H672.523C675.923 220.45 678.823 221 681.223 222.1C683.723 223.2 685.623 224.8 686.923 226.9C688.223 228.9 688.873 231.35 688.873 234.25C688.873 237.15 688.223 239.65 686.923 241.75C685.623 243.75 683.723 245.3 681.223 246.4C678.823 247.4 675.923 247.9 672.523 247.9H651.973V267.55H674.323C683.323 267.55 690.823 266.1 696.823 263.2C702.823 260.3 707.373 256.3 710.473 251.2C713.573 246 715.123 240.05 715.123 233.35C715.123 226.55 713.573 220.6 710.473 215.5C707.373 210.3 702.823 206.25 696.823 203.35C690.823 200.45 683.323 199 674.323 199H651.973V220.45ZM793.163 199V304H818.513V199H793.163ZM809.063 219.85H829.613C834.713 219.85 838.713 221 841.613 223.3C844.513 225.6 845.963 228.95 845.963 233.35C845.963 237.65 844.513 240.95 841.613 243.25C838.713 245.55 834.713 246.7 829.613 246.7H809.063V267.55H829.613C838.513 267.55 845.963 266.2 851.963 263.5C858.063 260.7 862.663 256.75 865.763 251.65C868.863 246.45 870.413 240.35 870.413 233.35C870.413 226.15 868.863 220 865.763 214.9C862.663 209.8 858.063 205.9 851.963 203.2C845.963 200.4 838.513 199 829.613 199H809.063V219.85ZM900.073 283.75H955.573L953.923 264.4H901.873L900.073 283.75ZM927.523 237.55L942.373 271.6L941.473 278.05L954.073 304H982.873L927.523 192.4L872.323 304H900.973L914.023 277L912.823 271.45L927.523 237.55ZM1049.78 199L1029.23 238.45L1008.68 199H979.579L1016.33 261.4V304H1042.13V261.25L1078.88 199H1049.78Z" fill="white"/>
<path fill-rule="evenodd" clip-rule="evenodd" d="M48.7514 184.894L33.6 141.086H5.76076H3.60002L4.41783 143.086L21.5132 184.894H19.3524L1.74881 141.843L0.62146 139.086H3.60002H33.6H35.0245L35.4902 140.433L50.8677 184.894H48.7514ZM104.503 184.894L83.8974 138.317L82.8 135.836L81.7123 138.321L61.3233 184.894H59.14L80.9679 135.034L82.7904 130.871L84.629 135.027L106.69 184.894H104.503ZM144.237 184.894L161.332 143.086L162.15 141.086H159.989H132L117.068 184.894H114.955L130.107 140.441L130.569 139.086H132H162.15H165.129L164.001 141.843L146.398 184.894H144.237ZM515.91 184.894C514.972 177.374 512.765 170.623 509.255 164.67C504.454 156.53 497.666 150.221 488.943 145.756C480.206 141.283 469.931 139.086 458.182 139.086H448.782H446.782H437.482H435.482H420.682H418.682V141.086V184.894H420.682V143.086V141.086H422.682H435.482H437.482H439.482H444.782H446.782H448.782H458.182C469.682 141.086 479.632 143.236 488.032 147.536C496.432 151.836 502.932 157.886 507.532 165.686C510.848 171.309 512.969 177.712 513.895 184.894H515.91ZM606.942 184.894V180.686V178.686H604.942H564.492V163.936H607.942H609.942V161.936V141.086V139.086H607.942H564.492H562.492H554.992H552.992H538.192H536.192V141.086V184.894H538.192V143.086V141.086H540.192H552.992H554.992H556.992H560.492H562.492H564.492H605.942H607.942V143.086V159.936V161.936H605.942H564.492H562.492V163.936V178.686V180.686H564.492H602.942H604.942V182.686V184.894H606.942ZM716.03 184.894C716.76 181.903 717.123 178.749 717.123 175.436C717.123 168.325 715.499 162.008 712.186 156.555C708.866 150.988 704.006 146.687 697.693 143.636C691.344 140.567 683.524 139.086 674.323 139.086H663.423H661.423H651.973H649.973H636.073H634.073V141.086V184.894H636.073V143.086V141.086H638.073H649.973H651.973H653.973H659.423H661.423H663.423H674.323C683.323 141.086 690.823 142.536 696.823 145.436C702.823 148.336 707.373 152.386 710.473 157.586C713.573 162.686 715.123 168.636 715.123 175.436C715.123 178.775 714.738 181.928 713.968 184.894H716.03ZM871.396 184.894C872.076 181.92 872.413 178.765 872.413 175.436C872.413 167.946 870.798 161.42 867.472 155.948C864.138 150.463 859.209 146.311 852.791 143.466C846.455 140.513 838.701 139.086 829.612 139.086H820.513H818.513H809.062H807.062H793.162H791.162V141.086V184.894H793.162V143.086V141.086H795.162H807.062H809.062H811.062H816.513H818.513H820.513H829.612C838.513 141.086 845.963 142.486 851.963 145.286C858.062 147.986 862.662 151.886 865.763 156.986C868.862 162.086 870.413 168.236 870.413 175.436C870.413 178.796 870.055 181.949 869.341 184.894H871.396ZM954.756 184.894L929.314 133.598L927.52 129.98L925.73 133.6L900.359 184.894H902.59L926.408 136.74L927.523 134.486L928.64 136.739L952.523 184.894H954.756ZM1055.34 184.894L1080.6 142.103L1082.38 139.086H1078.88H1049.78H1048.57L1048 140.162L1029.23 176.207L1010.45 140.162L1009.89 139.086H1008.68H979.578H976.08L977.855 142.101L1003.06 184.894H1005.38L980.756 143.086L979.578 141.086H981.9H1008.68L1028.1 178.372L1029.23 180.536L1030.36 178.372L1049.78 141.086H1076.56H1078.88L1077.7 143.086L1053.02 184.894H1055.34ZM929.815 184.894L928.616 182.143L927.523 179.636L926.435 182.145L925.243 184.894H927.423L927.528 184.651L927.634 184.894H929.815ZM842.139 184.894C844.688 182.62 845.963 179.468 845.963 175.436C845.963 171.036 844.513 167.686 841.612 165.386C838.713 163.086 834.713 161.936 829.612 161.936H820.513H818.513V163.936V184.894H820.513V163.936H829.612C834.43 163.936 837.936 165.023 840.37 166.953C842.699 168.801 843.963 171.518 843.963 175.436C843.963 179.237 842.711 181.913 840.37 183.769C839.847 184.184 839.275 184.559 838.651 184.894H842.139ZM686.145 184.894C686.424 184.556 686.684 184.204 686.923 183.836C688.223 181.736 688.873 179.236 688.873 176.336C688.873 173.436 688.223 170.986 686.923 168.986C685.623 166.886 683.723 165.286 681.223 164.186C678.823 163.086 675.923 162.536 672.523 162.536H663.423H661.423V164.536V184.894H663.423V164.536H672.523C675.715 164.536 678.315 165.054 680.389 166.005L680.403 166.011L680.417 166.017C682.588 166.972 684.157 168.319 685.222 170.039L685.234 170.058L685.246 170.076C686.293 171.688 686.873 173.739 686.873 176.336C686.873 178.921 686.298 181.037 685.233 182.766C684.721 183.549 684.089 184.26 683.326 184.894H686.145ZM487.38 184.894C486.962 182.858 486.379 181.006 485.632 179.336C483.932 175.436 481.632 172.336 478.732 170.036C475.932 167.736 472.632 166.086 468.832 165.086C465.132 164.086 461.282 163.586 457.282 163.586H448.782H446.782V165.586V184.894H448.782V165.586H457.282C461.114 165.586 464.788 166.065 468.31 167.017L468.323 167.021C471.868 167.953 474.903 169.48 477.463 171.582L477.476 171.593L477.489 171.603C480.096 173.671 482.21 176.491 483.799 180.136L483.803 180.144L483.806 180.153C484.439 181.568 484.951 183.146 485.336 184.894H487.38ZM392.99 184.894H390.99V143.086V141.086H388.99H368.54H366.54V143.086V184.894H364.54V141.086V139.086H366.54H390.99H392.99V141.086V184.894ZM352.334 184.894L295.418 134.341L292.09 131.385V135.836V184.894H294.09V138.511V135.836L296.09 137.613L349.323 184.894H352.334ZM267.115 184.894H265.115V143.086V141.086H263.115H241.764H239.764V143.086V184.894H237.764V141.086V139.086H239.764H265.115H267.115V141.086V184.894ZM208.014 184.894V141.086V139.086H206.014H180.664H178.664V141.086V184.894H180.664V143.086V141.086H182.664H204.014H206.014V143.086V184.894H208.014Z" fill="white"/>
<path opacity="0.5" fill-rule="evenodd" clip-rule="evenodd" d="M49.13 119.914L33.9786 76.1061H6.1393H3.97856L4.79637 78.1061L21.8917 119.914H19.731L2.12735 76.8631L1 74.1061H3.97856H33.9786H35.4031L35.8687 75.4524L51.2462 119.914H49.13ZM104.881 119.914L84.2759 73.3366L83.1786 70.8561L82.0908 73.3408L61.7018 119.914H59.5186L81.3464 70.0541L83.169 65.891L85.0076 70.047L107.068 119.914H104.881ZM144.615 119.914L161.711 78.1061L162.529 76.1061H160.368H132.379L117.447 119.914H115.334L130.486 75.4609L130.947 74.1061H132.379H162.529H165.507L164.38 76.8631L146.776 119.914H144.615ZM516.289 119.914C515.351 112.394 513.144 105.642 509.633 99.6902C504.832 91.5495 498.044 85.2409 489.322 80.7759C480.585 76.3032 470.309 74.1061 458.561 74.1061H449.161H447.161H437.861H435.861H421.061H419.061V76.1061V119.914H421.061V78.1061V76.1061H423.061H435.861H437.861H439.861H445.161H447.161H449.161H458.561C470.061 76.1061 480.011 78.2561 488.411 82.5562C496.811 86.8562 503.311 92.9061 507.911 100.706C511.227 106.329 513.348 112.732 514.273 119.914H516.289ZM607.32 119.914V115.706V113.706H605.32H564.87V98.9561H608.32H610.32V96.9561V76.1061V74.1061H608.32H564.87H562.87H555.37H553.37H538.57H536.57V76.1061V119.914H538.57V78.1061V76.1061H540.57H553.37H555.37H557.37H560.87H562.87H564.87H606.32H608.32V78.1061V94.9561V96.9561H606.32H564.87H562.87V98.9561V113.706V115.706H564.87H603.32H605.32V117.706V119.914H607.32ZM716.409 119.914C717.139 116.923 717.501 113.769 717.501 110.456C717.501 103.345 715.877 97.0277 712.565 91.5745C709.244 86.0082 704.384 81.7066 698.072 78.6555C691.722 75.5867 683.902 74.1061 674.701 74.1061H663.801H661.801H652.351H650.351H636.451H634.451V76.1061V119.914H636.451V78.1061V76.1061H638.451H650.351H652.351H654.351H659.801H661.801H663.801H674.701C683.701 76.1061 691.201 77.5561 697.201 80.4562C703.201 83.3561 707.751 87.4061 710.851 92.6061C713.951 97.7062 715.501 103.656 715.501 110.456C715.501 113.795 715.116 116.947 714.347 119.914H716.409ZM871.775 119.914C872.455 116.94 872.791 113.785 872.791 110.456C872.791 102.966 871.176 96.4395 867.85 90.9673C864.517 85.4832 859.588 81.3305 853.169 78.4857C846.833 75.5327 839.08 74.1061 829.991 74.1061H820.891H818.891H809.441H807.441H793.541H791.541V76.1061V119.914H793.541V78.1061V76.1061H795.541H807.441H809.441H811.441H816.891H818.891H820.891H829.991C838.891 76.1061 846.341 77.5061 852.341 80.3061C858.441 83.0061 863.041 86.9061 866.141 92.0061C869.241 97.1061 870.791 103.256 870.791 110.456C870.791 113.816 870.434 116.968 869.72 119.914H871.775ZM955.134 119.914L929.693 68.6175L927.899 65L926.109 68.6194L900.737 119.914H902.969L926.786 71.7598L927.901 69.5061L929.018 71.7587L952.902 119.914H955.134ZM1055.72 119.914L1080.98 77.1229L1082.76 74.1061H1079.26H1050.16H1048.94L1048.38 75.1822L1029.61 111.227L1010.83 75.1822L1010.27 74.1061H1009.06H979.957H976.458L978.234 77.1211L1003.44 119.914H1005.76L981.135 78.1061L979.957 76.1061H982.278H1009.06L1028.48 113.392L1029.61 115.556L1030.73 113.392L1050.16 76.1061H1076.93H1079.26L1078.08 78.1061L1053.39 119.914H1055.72ZM930.194 119.914L928.994 117.163L927.901 114.656L926.813 117.165L925.621 119.914H927.801L927.906 119.671L928.012 119.914H930.194ZM842.517 119.914C845.067 117.64 846.341 114.488 846.341 110.456C846.341 106.056 844.891 102.706 841.991 100.406C839.091 98.1061 835.091 96.9561 829.991 96.9561H820.891H818.891V98.9561V119.914H820.891V98.9561H829.991C834.808 98.9561 838.314 100.043 840.748 101.973C843.077 103.82 844.341 106.538 844.341 110.456C844.341 114.257 843.089 116.933 840.748 118.789C840.226 119.204 839.654 119.579 839.03 119.914H842.517ZM686.523 119.914C686.803 119.576 687.062 119.224 687.301 118.856C688.601 116.756 689.251 114.256 689.251 111.356C689.251 108.456 688.601 106.006 687.301 104.006C686.001 101.906 684.101 100.306 681.601 99.2062C679.201 98.1061 676.301 97.5561 672.901 97.5561H663.801H661.801V99.5561V119.914H663.801V99.5561H672.901C676.093 99.5561 678.693 100.073 680.768 101.024L680.782 101.031L680.796 101.037C682.966 101.992 684.536 103.339 685.601 105.059L685.612 105.078L685.624 105.096C686.672 106.708 687.251 108.759 687.251 111.356C687.251 113.941 686.677 116.057 685.612 117.786C685.1 118.569 684.468 119.28 683.704 119.914H686.523ZM487.759 119.914C487.34 117.878 486.757 116.025 486.011 114.356C484.311 110.456 482.011 107.356 479.111 105.056C476.311 102.756 473.011 101.106 469.211 100.106C465.511 99.1062 461.661 98.6062 457.661 98.6062H449.161H447.161V100.606V119.914H449.161V100.606H457.661C461.492 100.606 465.166 101.085 468.689 102.037L468.702 102.04C472.247 102.973 475.282 104.499 477.841 106.602L477.854 106.612L477.868 106.623C480.475 108.691 482.588 111.511 484.177 115.155L484.181 115.164L484.185 115.173C484.818 116.587 485.33 118.166 485.714 119.914H487.759ZM393.369 119.914H391.369V78.1061V76.1061H389.369H368.919H366.919V78.1061V119.914H364.919V76.1061V74.1061H366.919H391.369H393.369V76.1061V119.914ZM352.713 119.914L295.797 69.3608L292.469 66.4048V70.8561V119.914H294.469V73.5311V70.8561L296.469 72.6325L349.701 119.914H352.713ZM267.493 119.914H265.493V78.1061V76.1061H263.493H242.143H240.143V78.1061V119.914H238.143V76.1061V74.1061H240.143H265.493H267.493V76.1061V119.914ZM208.393 119.914V76.1061V74.1061H206.393H181.043H179.043V76.1061V119.914H181.043V78.1061V76.1061H183.043H204.393H206.393V78.1061V119.914H208.393Z" fill="white"/>
<path opacity="0.2" fill-rule="evenodd" clip-rule="evenodd" d="M49.13 54.9135L33.9786 11.1061H6.1393H3.97856L4.79637 13.1061L21.8917 54.9135H19.731L2.12735 11.8631L1 9.10614H3.97856H33.9786H35.4031L35.8687 10.4524L51.2462 54.9135H49.13ZM104.881 54.9135L84.2759 8.3366L83.1786 5.85615L82.0908 8.34083L61.7018 54.9135H59.5186L81.3464 5.05407L83.169 0.89101L85.0076 5.047L107.068 54.9135H104.881ZM144.615 54.9135L161.711 13.1061L162.529 11.1061H160.368H132.379L117.447 54.9135H115.334L130.486 10.4609L130.947 9.10614H132.379H162.529H165.507L164.38 11.8631L146.776 54.9135H144.615ZM516.289 54.9135C515.351 47.3939 513.144 40.6424 509.633 34.6902C504.832 26.5495 498.044 20.2409 489.322 15.7759C480.585 11.3032 470.309 9.10614 458.561 9.10614H449.161H447.161H437.861H435.861H421.061H419.061V11.1061V54.9135H421.061V13.1061V11.1061H423.061H435.861H437.861H439.861H445.161H447.161H449.161H458.561C470.061 11.1061 480.011 13.2561 488.411 17.5562C496.811 21.8562 503.311 27.9061 507.911 35.7062C511.227 41.3291 513.348 47.7315 514.273 54.9135H516.289ZM607.32 54.9135V50.7062V48.7062H605.32H564.87V33.9561H608.32H610.32V31.9561V11.1061V9.10614H608.32H564.87H562.87H555.37H553.37H538.57H536.57V11.1061V54.9135H538.57V13.1061V11.1061H540.57H553.37H555.37H557.37H560.87H562.87H564.87H606.32H608.32V13.1061V29.9561V31.9561H606.32H564.87H562.87V33.9561V48.7062V50.7062H564.87H603.32H605.32V52.7062V54.9135H607.32ZM716.409 54.9135C717.139 51.9232 717.501 48.7687 717.501 45.4562C717.501 38.345 715.877 32.0277 712.565 26.5745C709.244 21.0082 704.384 16.7066 698.072 13.6555C691.722 10.5867 683.902 9.10614 674.701 9.10614H663.801H661.801H652.351H650.351H636.451H634.451V11.1061V54.9135H636.451V13.1061V11.1061H638.451H650.351H652.351H654.351H659.801H661.801H663.801H674.701C683.701 11.1061 691.201 12.5561 697.201 15.4562C703.201 18.3561 707.751 22.4061 710.851 27.6061C713.951 32.7062 715.501 38.6561 715.501 45.4562C715.501 48.7948 715.116 51.9473 714.347 54.9135H716.409ZM871.775 54.9135C872.455 51.9397 872.791 48.785 872.791 45.4562C872.791 37.9657 871.176 31.4395 867.85 25.9673C864.517 20.4832 859.588 16.3305 853.169 13.4857C846.833 10.5327 839.08 9.10614 829.991 9.10614H820.891H818.891H809.441H807.441H793.541H791.541V11.1061V54.9135H793.541V13.1061V11.1061H795.541H807.441H809.441H811.441H816.891H818.891H820.891H829.991C838.891 11.1061 846.341 12.5061 852.341 15.3061C858.441 18.0061 863.041 21.9061 866.141 27.0061C869.241 32.1061 870.791 38.2561 870.791 45.4562C870.791 48.8159 870.434 51.9684 869.72 54.9135H871.775ZM955.134 54.9135L929.693 3.61751L927.899 0L926.109 3.61944L900.737 54.9135H902.969L926.786 6.75984L927.901 4.50615L929.018 6.75865L952.902 54.9135H955.134ZM1055.72 54.9135L1080.98 12.1229L1082.76 9.10614H1079.26H1050.16H1048.94L1048.38 10.1822L1029.61 46.227L1010.83 10.1822L1010.27 9.10614H1009.06H979.957H976.458L978.234 12.1211L1003.44 54.9135H1005.76L981.135 13.1061L979.957 11.1061H982.278H1009.06L1028.48 48.3916L1029.61 50.5561L1030.73 48.3916L1050.16 11.1061H1076.93H1079.26L1078.08 13.1061L1053.39 54.9135H1055.72ZM930.194 54.9135L928.994 52.1625L927.901 49.6561L926.813 52.1648L925.621 54.9135H927.801L927.906 54.6712L928.012 54.9135H930.194ZM842.517 54.9135C845.067 52.6401 846.341 49.4876 846.341 45.4562C846.341 41.0561 844.891 37.7061 841.991 35.4061C839.091 33.1061 835.091 31.9561 829.991 31.9561H820.891H818.891V33.9561V54.9135H820.891V33.9561H829.991C834.808 33.9561 838.314 35.0429 840.748 36.9731C843.077 38.8204 844.341 41.538 844.341 45.4562C844.341 49.2566 843.089 51.9325 840.748 53.7892C840.226 54.2036 839.654 54.5792 839.03 54.9135H842.517ZM686.523 54.9135C686.803 54.5763 687.062 54.2238 687.301 53.8562C688.601 51.7561 689.251 49.2561 689.251 46.3561C689.251 43.4562 688.601 41.0062 687.301 39.0062C686.001 36.9061 684.101 35.3061 681.601 34.2062C679.201 33.1061 676.301 32.5561 672.901 32.5561H663.801H661.801V34.5561V54.9135H663.801V34.5561H672.901C676.093 34.5561 678.693 35.0734 680.768 36.0243L680.782 36.0306L680.796 36.0368C682.966 36.9919 684.536 38.3388 685.601 40.0589L685.612 40.0776L685.624 40.0961C686.672 41.7077 687.251 43.7589 687.251 46.3561C687.251 48.941 686.677 51.0567 685.612 52.7856C685.1 53.569 684.468 54.2796 683.704 54.9135H686.523ZM487.759 54.9135C487.34 52.8778 486.757 51.0253 486.011 49.3562C484.311 45.4562 482.011 42.3561 479.111 40.0561C476.311 37.7561 473.011 36.1061 469.211 35.1062C465.511 34.1062 461.661 33.6062 457.661 33.6062H449.161H447.161V35.6062V54.9135H449.161V35.6062H457.661C461.492 35.6062 465.166 36.0848 468.689 37.0369L468.702 37.0403C472.247 37.9733 475.282 39.4994 477.841 41.6016L477.854 41.6125L477.868 41.6231C480.475 43.6909 482.588 46.5106 484.177 50.1553L484.181 50.1641L484.185 50.1729C484.818 51.5875 485.33 53.1658 485.714 54.9135H487.759ZM393.369 54.9135H391.369V13.1061V11.1061H389.369H368.919H366.919V13.1061V54.9135H364.919V11.1061V9.10614H366.919H391.369H393.369V11.1061V54.9135ZM352.713 54.9135L295.797 4.36082L292.469 1.40476V5.85615V54.9135H294.469V8.53114V5.85615L296.469 7.63255L349.701 54.9135H352.713ZM267.493 54.9135H265.493V13.1061V11.1061H263.493H242.143H240.143V13.1061V54.9135H238.143V11.1061V9.10614H240.143H265.493H267.493V11.1061V54.9135ZM208.393 54.9135V11.1061V9.10614H206.393H181.043H179.043V11.1061V54.9135H181.043V13.1061V11.1061H183.043H204.393H206.393V13.1061V54.9135H208.393Z" fill="white"/>
</svg>
