<svg width="70" height="66" viewBox="0 0 70 66" fill="none" xmlns="http://www.w3.org/2000/svg">
<path d="M58.2429 32.9351C58.2429 20.0813 47.8134 9.62085 34.9989 9.62085C22.1845 9.62085 11.7627 20.0736 11.7627 32.9351C11.7627 45.7981 22.1839 56.2494 34.9989 56.2494C47.814 56.2494 58.2429 45.7884 58.2429 32.9351ZM34.9989 52.8203C24.0612 52.8203 15.1645 43.8969 15.1645 32.9259C15.1645 21.955 24.061 13.0407 34.9989 13.0407C45.9368 13.0407 54.8333 21.9641 54.8333 32.9351C54.8333 43.9061 45.9368 52.8203 34.9989 52.8203Z" fill="#171717"/>
<path d="M65.3485 22.586C60.9822 9.68031 48.7098 0.77417 34.9994 0.77417C21.2889 0.77417 9.01644 9.68061 4.65033 22.586C2.07556 22.6553 0 24.763 0 27.3632V38.0574C0 40.6918 2.14461 42.8514 4.77951 42.8514C7.41502 42.8514 9.55056 40.6918 9.55056 38.0574V27.3632C9.55056 25.9122 8.89575 24.616 7.87086 23.7351C11.7553 12.1592 22.7363 4.20313 34.9995 4.20313C47.2722 4.20313 58.2435 12.1678 62.1375 23.7428C61.1126 24.6237 60.4578 25.9198 60.4578 27.3709V38.0651C60.4578 40.1036 61.7409 41.8486 63.5408 42.5398C63.3257 45.8395 61.1643 55.4714 44.0509 62.2877C43.1726 62.642 42.7419 63.635 43.0951 64.5165C43.3534 65.1733 43.9908 65.5963 44.6799 65.5963C44.8866 65.5963 45.1017 65.5445 45.3089 65.4583C64.402 57.8648 66.7612 46.6699 66.9596 42.5143C68.742 41.8231 70 40.0866 70 38.057V27.3628C70 24.7622 67.9244 22.6544 65.3491 22.5856L65.3485 22.586ZM6.13133 38.0579C6.13133 38.8183 5.51977 39.4227 4.77064 39.4227C4.01249 39.4227 3.40154 38.8177 3.40154 38.0579L3.40094 27.3636C3.40094 26.6207 4.01251 25.9988 4.77004 25.9988C5.51917 25.9988 6.13073 26.6206 6.13073 27.3636L6.13133 38.0579ZM66.5988 27.3636V38.0579C66.5988 38.8183 65.9872 39.4227 65.2381 39.4227C64.4799 39.4227 63.8774 38.8177 63.8774 38.0579V27.3636C63.8774 26.6207 64.4805 25.9988 65.2381 25.9988C65.9872 25.9982 66.5988 26.6206 66.5988 27.3636Z" fill="#171717"/>
</svg>
