<svg width="67" height="71" viewBox="0 0 67 71" fill="none" xmlns="http://www.w3.org/2000/svg">
<mask id="path-1-inside-1_1_368" fill="white">
<path d="M66.1612 45.4496L63.7759 45.3616C62.9365 45.3177 62.274 45.5815 61.7437 46.0652C60.6393 47.1644 60.6834 49.0992 60.6834 51.2097C60.7275 52.9245 60.7275 54.8592 59.9765 55.6067C59.7115 55.8705 59.314 56.0024 58.7837 56.0024H58.4743C58.5628 55.7386 58.6068 55.4748 58.6068 55.2111V54.2437C58.6068 52.9245 57.5465 51.8695 56.2215 51.8695H48.7561V51.0782V50.9902H51.8483C54.1455 50.9902 56.4424 49.9348 57.8562 48.2199C59.0046 46.8127 59.4906 45.1859 59.1815 43.5149L57.6352 35.1166C57.1496 32.3905 55.3383 30.6318 53.0411 30.6318H42.8808C40.5836 30.6318 38.7726 32.3905 38.2423 35.1169L36.696 43.5153C36.3866 45.1421 36.8725 46.813 38.0213 48.2203C39.4791 49.9351 41.7764 50.9905 44.0292 50.9905H47.1214V51.0785V51.8698L39.7001 51.8695C38.3747 51.8695 37.3148 52.9249 37.3148 54.2437V55.2111C37.3148 55.4749 37.3588 55.7386 37.4473 56.0024H37.1379C36.6079 56.0024 36.21 55.8705 35.9451 55.6067C35.1941 54.8593 35.2382 52.9245 35.2382 51.2097C35.2822 49.1431 35.2822 47.1644 34.1779 46.0652C33.6919 45.5815 32.9851 45.3177 32.1901 45.3616L29.8048 45.4496C29.3629 45.4496 29.0098 45.8453 29.0098 46.2851C29.0098 46.7249 29.4073 47.0326 29.8492 47.0764L32.2345 46.9884C32.7204 46.9884 32.9414 47.1203 33.0739 47.2522C33.6923 47.8677 33.6483 49.6264 33.6483 51.2093C33.6042 53.3199 33.6042 55.5184 34.8411 56.7495C35.4155 57.3213 36.2105 57.6289 37.1824 57.5851H37.5799H39.1262C39.1703 57.5851 39.2146 57.5851 39.2587 57.5412C39.3912 57.5851 39.5681 57.5851 39.7006 57.5851H47.1663V60.9709C46.106 61.0147 45.0901 61.1908 44.1181 61.4546C42.9253 61.8064 41.8653 62.2459 40.9375 62.8618C40.0096 63.4773 39.2587 64.2248 38.7287 65.0603C38.6847 65.1483 38.6403 65.1922 38.6403 65.2802C37.4034 65.3241 36.3874 66.3795 36.3874 67.6545C36.3874 68.9736 37.4477 70.0287 38.7727 70.0287C40.0981 70.0287 41.158 68.9733 41.158 67.6545C41.158 66.8631 40.8046 66.2034 40.2302 65.7639C40.6277 65.1922 41.2021 64.6646 41.8646 64.2248C42.6596 63.6972 43.5875 63.3012 44.6034 62.9936C45.4428 62.7737 46.3263 62.5979 47.2097 62.5538V65.4117C46.2818 65.7196 45.6194 66.599 45.6194 67.6541C45.6194 68.9733 46.6797 70.0283 48.0047 70.0283C49.33 70.0283 50.39 68.973 50.39 67.6541C50.39 66.6428 49.7275 65.7635 48.7997 65.4117V62.5538C49.6831 62.5976 50.5665 62.7295 51.406 62.9936C52.4219 63.2574 53.3497 63.6972 54.1447 64.2248C54.8516 64.6646 55.3817 65.1921 55.7792 65.7639C55.2048 66.2037 54.8513 66.8631 54.8513 67.6545C54.8513 68.9736 55.9116 70.0287 57.2366 70.0287C58.562 70.0287 59.6219 68.9733 59.6219 67.6545C59.6219 66.3795 58.606 65.3679 57.3691 65.2802C57.3691 65.1922 57.325 65.1483 57.2806 65.0603C56.7506 64.2248 55.9997 63.5212 55.0719 62.8618C54.144 62.2462 53.0841 61.7625 51.8912 61.4546C50.9194 61.1908 49.9034 61.0147 48.8431 60.9709V57.5851H56.3088C56.4854 57.5851 56.6182 57.5851 56.7507 57.5412C56.7947 57.5412 56.8391 57.5412 56.8832 57.5851H58.4295H58.827C59.7988 57.5851 60.5938 57.3213 61.1683 56.7495C62.4052 55.5184 62.3611 53.3199 62.3611 51.2093C62.3611 49.6264 62.317 47.8235 62.9355 47.2522C63.068 47.1203 63.2889 46.9884 63.7749 46.9884L66.1602 47.0764C66.5577 47.0764 66.9552 46.7246 66.9996 46.2851C66.9121 45.8453 66.603 45.4935 66.1611 45.4496L66.1612 45.4496ZM38.7283 68.4461C38.2864 68.4461 37.9333 68.0943 37.9333 67.6548C37.9333 67.215 38.2867 66.8635 38.7283 66.8635C39.1702 66.8635 39.5233 67.2153 39.5233 67.6548C39.5233 68.0943 39.1699 68.4461 38.7283 68.4461ZM57.1936 66.9073C57.6355 66.9073 57.9886 67.2591 57.9886 67.6986C57.9886 68.1385 57.6352 68.4899 57.1936 68.4899C56.7517 68.4899 56.3986 68.1381 56.3986 67.6986C56.3986 67.2591 56.7521 66.9073 57.1936 66.9073ZM44.0735 49.3631C42.2622 49.3631 40.407 48.5276 39.2585 47.1646C38.64 46.461 37.9775 45.274 38.2866 43.7788L39.8329 35.3804C40.0979 33.9294 41.0698 32.2146 42.8811 32.2146H52.9973C54.8085 32.2146 55.7804 33.9294 56.0454 35.3804L57.5917 43.7788C57.8568 45.2737 57.1942 46.461 56.6199 47.1646C55.4714 48.5276 53.6601 49.3631 51.8489 49.3631H44.0735ZM47.961 68.4463C47.5192 68.4463 47.166 68.0945 47.166 67.655C47.166 67.2151 47.5195 66.8637 47.961 66.8637C48.4029 66.8637 48.756 67.2155 48.756 67.655C48.756 68.0945 48.4029 68.4463 47.961 68.4463ZM57.017 55.2112C57.017 55.651 56.6636 56.0025 56.222 56.0025H39.7004C39.2585 56.0025 38.9054 55.6507 38.9054 55.2112V54.2438C38.9054 53.804 39.2588 53.4525 39.7004 53.4525H56.1778C56.6197 53.4525 56.9728 53.8043 56.9728 54.2438V55.2112H57.017Z"/>
</mask>
<path d="M66.1612 45.4496L63.7759 45.3616C62.9365 45.3177 62.274 45.5815 61.7437 46.0652C60.6393 47.1644 60.6834 49.0992 60.6834 51.2097C60.7275 52.9245 60.7275 54.8592 59.9765 55.6067C59.7115 55.8705 59.314 56.0024 58.7837 56.0024H58.4743C58.5628 55.7386 58.6068 55.4748 58.6068 55.2111V54.2437C58.6068 52.9245 57.5465 51.8695 56.2215 51.8695H48.7561V51.0782V50.9902H51.8483C54.1455 50.9902 56.4424 49.9348 57.8562 48.2199C59.0046 46.8127 59.4906 45.1859 59.1815 43.5149L57.6352 35.1166C57.1496 32.3905 55.3383 30.6318 53.0411 30.6318H42.8808C40.5836 30.6318 38.7726 32.3905 38.2423 35.1169L36.696 43.5153C36.3866 45.1421 36.8725 46.813 38.0213 48.2203C39.4791 49.9351 41.7764 50.9905 44.0292 50.9905H47.1214V51.0785V51.8698L39.7001 51.8695C38.3747 51.8695 37.3148 52.9249 37.3148 54.2437V55.2111C37.3148 55.4749 37.3588 55.7386 37.4473 56.0024H37.1379C36.6079 56.0024 36.21 55.8705 35.9451 55.6067C35.1941 54.8593 35.2382 52.9245 35.2382 51.2097C35.2822 49.1431 35.2822 47.1644 34.1779 46.0652C33.6919 45.5815 32.9851 45.3177 32.1901 45.3616L29.8048 45.4496C29.3629 45.4496 29.0098 45.8453 29.0098 46.2851C29.0098 46.7249 29.4073 47.0326 29.8492 47.0764L32.2345 46.9884C32.7204 46.9884 32.9414 47.1203 33.0739 47.2522C33.6923 47.8677 33.6483 49.6264 33.6483 51.2093C33.6042 53.3199 33.6042 55.5184 34.8411 56.7495C35.4155 57.3213 36.2105 57.6289 37.1824 57.5851H37.5799H39.1262C39.1703 57.5851 39.2146 57.5851 39.2587 57.5412C39.3912 57.5851 39.5681 57.5851 39.7006 57.5851H47.1663V60.9709C46.106 61.0147 45.0901 61.1908 44.1181 61.4546C42.9253 61.8064 41.8653 62.2459 40.9375 62.8618C40.0096 63.4773 39.2587 64.2248 38.7287 65.0603C38.6847 65.1483 38.6403 65.1922 38.6403 65.2802C37.4034 65.3241 36.3874 66.3795 36.3874 67.6545C36.3874 68.9736 37.4477 70.0287 38.7727 70.0287C40.0981 70.0287 41.158 68.9733 41.158 67.6545C41.158 66.8631 40.8046 66.2034 40.2302 65.7639C40.6277 65.1922 41.2021 64.6646 41.8646 64.2248C42.6596 63.6972 43.5875 63.3012 44.6034 62.9936C45.4428 62.7737 46.3263 62.5979 47.2097 62.5538V65.4117C46.2818 65.7196 45.6194 66.599 45.6194 67.6541C45.6194 68.9733 46.6797 70.0283 48.0047 70.0283C49.33 70.0283 50.39 68.973 50.39 67.6541C50.39 66.6428 49.7275 65.7635 48.7997 65.4117V62.5538C49.6831 62.5976 50.5665 62.7295 51.406 62.9936C52.4219 63.2574 53.3497 63.6972 54.1447 64.2248C54.8516 64.6646 55.3817 65.1921 55.7792 65.7639C55.2048 66.2037 54.8513 66.8631 54.8513 67.6545C54.8513 68.9736 55.9116 70.0287 57.2366 70.0287C58.562 70.0287 59.6219 68.9733 59.6219 67.6545C59.6219 66.3795 58.606 65.3679 57.3691 65.2802C57.3691 65.1922 57.325 65.1483 57.2806 65.0603C56.7506 64.2248 55.9997 63.5212 55.0719 62.8618C54.144 62.2462 53.0841 61.7625 51.8912 61.4546C50.9194 61.1908 49.9034 61.0147 48.8431 60.9709V57.5851H56.3088C56.4854 57.5851 56.6182 57.5851 56.7507 57.5412C56.7947 57.5412 56.8391 57.5412 56.8832 57.5851H58.4295H58.827C59.7988 57.5851 60.5938 57.3213 61.1683 56.7495C62.4052 55.5184 62.3611 53.3199 62.3611 51.2093C62.3611 49.6264 62.317 47.8235 62.9355 47.2522C63.068 47.1203 63.2889 46.9884 63.7749 46.9884L66.1602 47.0764C66.5577 47.0764 66.9552 46.7246 66.9996 46.2851C66.9121 45.8453 66.603 45.4935 66.1611 45.4496L66.1612 45.4496ZM38.7283 68.4461C38.2864 68.4461 37.9333 68.0943 37.9333 67.6548C37.9333 67.215 38.2867 66.8635 38.7283 66.8635C39.1702 66.8635 39.5233 67.2153 39.5233 67.6548C39.5233 68.0943 39.1699 68.4461 38.7283 68.4461ZM57.1936 66.9073C57.6355 66.9073 57.9886 67.2591 57.9886 67.6986C57.9886 68.1385 57.6352 68.4899 57.1936 68.4899C56.7517 68.4899 56.3986 68.1381 56.3986 67.6986C56.3986 67.2591 56.7521 66.9073 57.1936 66.9073ZM44.0735 49.3631C42.2622 49.3631 40.407 48.5276 39.2585 47.1646C38.64 46.461 37.9775 45.274 38.2866 43.7788L39.8329 35.3804C40.0979 33.9294 41.0698 32.2146 42.8811 32.2146H52.9973C54.8085 32.2146 55.7804 33.9294 56.0454 35.3804L57.5917 43.7788C57.8568 45.2737 57.1942 46.461 56.6199 47.1646C55.4714 48.5276 53.6601 49.3631 51.8489 49.3631H44.0735ZM47.961 68.4463C47.5192 68.4463 47.166 68.0945 47.166 67.655C47.166 67.2151 47.5195 66.8637 47.961 66.8637C48.4029 66.8637 48.756 67.2155 48.756 67.655C48.756 68.0945 48.4029 68.4463 47.961 68.4463ZM57.017 55.2112C57.017 55.651 56.6636 56.0025 56.222 56.0025H39.7004C39.2585 56.0025 38.9054 55.6507 38.9054 55.2112V54.2438C38.9054 53.804 39.2588 53.4525 39.7004 53.4525H56.1778C56.6197 53.4525 56.9728 53.8043 56.9728 54.2438V55.2112H57.017Z" fill="#171717" stroke="black" stroke-width="2" mask="url(#path-1-inside-1_1_368)"/>
<path d="M33.0986 13.4782L30.9735 13.3994C30.2256 13.3602 29.6354 13.5962 29.1629 14.029C28.179 15.0125 28.2183 16.7436 28.2183 18.632C28.2576 20.1663 28.2576 21.8974 27.5886 22.5662C27.3525 22.8022 26.9983 22.9202 26.5259 22.9202H26.2502C26.329 22.6842 26.3683 22.4482 26.3683 22.2122V21.3467C26.3683 20.1663 25.4237 19.2223 24.2432 19.2223H17.5922V18.5143V18.4356H20.3471C22.3937 18.4356 24.44 17.4913 25.6995 15.9569C26.7227 14.6979 27.1556 13.2423 26.8803 11.7472L25.5027 4.23289C25.07 1.79375 23.4563 0.220215 21.4097 0.220215H12.3578C10.3112 0.220215 8.69781 1.79375 8.22533 4.23317L6.84772 11.7475C6.57209 13.2031 7.00502 14.6981 8.02848 15.9572C9.32723 17.4916 11.3739 18.4358 13.3809 18.4358H16.1358V18.5146V19.2226L9.52409 19.2223C8.34333 19.2223 7.39899 20.1666 7.39899 21.3467V22.2122C7.39899 22.4482 7.43824 22.6842 7.51703 22.9202H7.24141C6.76922 22.9202 6.41478 22.8022 6.17872 22.5662C5.5097 21.8974 5.54895 20.1663 5.54895 18.632C5.58821 16.7829 5.58821 15.0125 4.60433 14.029C4.1714 13.5962 3.54164 13.3602 2.83337 13.3994L0.708272 13.4782C0.314597 13.4782 0 13.8322 0 14.2258C0 14.6193 0.354143 14.8946 0.747839 14.9338L2.87294 14.855C3.30587 14.855 3.5027 14.973 3.62078 15.091C4.17175 15.6418 4.13249 17.2154 4.13249 18.6317C4.09324 20.52 4.09324 22.4871 5.19518 23.5887C5.7069 24.1002 6.41516 24.3755 7.28107 24.3363H7.63521H9.01282C9.05208 24.3363 9.09161 24.3363 9.13087 24.297C9.24891 24.3363 9.40649 24.3363 9.52454 24.3363H16.1758V27.3657C15.2312 27.4049 14.3261 27.5624 13.4602 27.7984C12.3975 28.1132 11.4531 28.5065 10.6265 29.0575C9.79989 29.6083 9.13091 30.2771 8.6587 31.0246C8.61945 31.1034 8.57991 31.1426 8.57991 31.2214C7.47794 31.2606 6.57281 32.2049 6.57281 33.3457C6.57281 34.526 7.51743 35.47 8.69791 35.47C9.87867 35.47 10.823 34.5258 10.823 33.3457C10.823 32.6377 10.5081 32.0474 9.99639 31.6542C10.3505 31.1426 10.8622 30.6706 11.4525 30.277C12.1608 29.805 12.9874 29.4507 13.8925 29.1755C14.6404 28.9787 15.4274 28.8215 16.2145 28.7819V31.339C15.3878 31.6146 14.7976 32.4013 14.7976 33.3454C14.7976 34.5257 15.7423 35.4697 16.9227 35.4697C18.1035 35.4697 19.0478 34.5254 19.0478 33.3454C19.0478 32.4406 18.4576 31.6538 17.631 31.339V28.7819C18.4181 28.8212 19.2051 28.9392 19.953 29.1755C20.8581 29.4115 21.6847 29.805 22.393 30.277C23.0227 30.6706 23.495 31.1426 23.8491 31.6542C23.3374 32.0477 23.0225 32.6377 23.0225 33.3457C23.0225 34.526 23.9671 35.47 25.1476 35.47C26.3283 35.47 27.2727 34.5258 27.2727 33.3457C27.2727 32.2049 26.3675 31.2999 25.2656 31.2214C25.2656 31.1426 25.2263 31.1034 25.1868 31.0246C24.7146 30.2771 24.0456 29.6475 23.219 29.0575C22.3923 28.5068 21.448 28.074 20.3853 27.7984C19.5195 27.5624 18.6144 27.4049 17.6697 27.3657V24.3363H24.3209C24.4782 24.3363 24.5966 24.3363 24.7146 24.297C24.7539 24.297 24.7934 24.297 24.8327 24.3363H26.2103H26.5644C27.4303 24.3363 28.1385 24.1003 28.6503 23.5887C29.7523 22.4871 29.713 20.52 29.713 18.6317C29.713 17.2154 29.6737 15.6023 30.2247 15.091C30.3428 14.973 30.5396 14.855 30.9725 14.855L33.0976 14.9338C33.4518 14.9338 33.8059 14.619 33.8455 14.2258C33.7675 13.8322 33.4922 13.5175 33.0985 13.4782L33.0986 13.4782ZM8.65832 34.0541C8.26465 34.0541 7.95005 33.7393 7.95005 33.346C7.95005 32.9525 8.26494 32.638 8.65832 32.638C9.052 32.638 9.3666 32.9528 9.3666 33.346C9.3666 33.7393 9.05171 34.0541 8.65832 34.0541ZM25.1092 32.6772C25.5029 32.6772 25.8175 32.992 25.8175 33.3852C25.8175 33.7788 25.5026 34.0933 25.1092 34.0933C24.7156 34.0933 24.401 33.7785 24.401 33.3852C24.401 32.992 24.7159 32.6772 25.1092 32.6772ZM13.4204 16.9798C11.8068 16.9798 10.1539 16.2322 9.13067 15.0127C8.5797 14.3831 7.98948 13.3211 8.26483 11.9833L9.64244 4.46895C9.87854 3.17067 10.7444 1.63633 12.3581 1.63633H21.3707C22.9844 1.63633 23.8502 3.17067 24.0863 4.46895L25.4639 11.9833C25.7 13.3208 25.1098 14.3831 24.5981 15.0127C23.5749 16.2322 21.9612 16.9798 20.3476 16.9798H13.4204ZM16.8839 34.0542C16.4902 34.0542 16.1756 33.7394 16.1756 33.3462C16.1756 32.9527 16.4905 32.6382 16.8839 32.6382C17.2775 32.6382 17.5921 32.9529 17.5921 33.3462C17.5921 33.7394 17.2775 34.0542 16.8839 34.0542ZM24.9519 22.2123C24.9519 22.6058 24.637 22.9203 24.2436 22.9203H9.52437C9.1307 22.9203 8.8161 22.6055 8.8161 22.2123V21.3467C8.8161 20.9532 9.13099 20.6387 9.52437 20.6387H24.2043C24.5979 20.6387 24.9125 20.9535 24.9125 21.3467V22.2123H24.9519Z" fill="#171717"/>
<path d="M24.8029 57.318L22.7557 52.7964C22.7189 52.7158 22.6697 52.6456 22.6104 52.5871C22.4074 52.3839 22.0922 52.317 21.8146 52.4417C21.4568 52.6033 21.298 53.0237 21.4596 53.3806L22.7702 56.2748C18.9082 55.3023 16.3491 53.7233 14.6309 52.0096C12.6827 50.0644 11.8006 47.9229 11.4016 46.2212C11.0036 44.5212 11.0989 43.2689 11.1085 43.1678V43.1632L11.1089 43.1628C11.131 42.9422 11.0495 42.7349 10.9037 42.5892C10.7921 42.4779 10.6426 42.4024 10.473 42.3855C10.0825 42.346 9.73404 42.6302 9.69398 43.02C9.68959 43.0724 9.55448 44.4365 9.97551 46.3619C10.3966 48.2843 11.3845 50.7776 13.6253 53.0139C15.5312 54.9181 18.334 56.618 22.3885 57.6433L19.4505 58.9983V58.998C19.0939 59.1625 18.9388 59.5839 19.1029 59.9399C19.2674 60.2959 19.6898 60.451 20.0465 60.2869L24.453 58.2549C24.8072 58.0918 24.9632 57.6737 24.8028 57.3182L24.8029 57.318Z" fill="black"/>
<path d="M38.0526 8.78382L40.0997 13.3054C40.1365 13.386 40.1858 13.4562 40.245 13.5147C40.4481 13.7179 40.7632 13.7848 41.0409 13.6601C41.3986 13.4985 41.5575 13.0781 41.3959 12.7212L40.0853 9.82704C43.9473 10.7995 46.5064 12.3785 48.2246 14.0922C50.1727 16.0374 51.0549 18.1789 51.4539 19.8806C51.8518 21.5806 51.7565 22.833 51.747 22.934V22.9386L51.7466 22.939C51.7245 23.1596 51.806 23.3669 51.9518 23.5126C52.0634 23.6239 52.2128 23.6994 52.3825 23.7163C52.773 23.7558 53.1214 23.4716 53.1615 23.0818C53.1659 23.0294 53.301 21.6653 52.88 19.7399C52.4589 17.8175 51.471 15.3242 49.2302 13.0879C47.3243 11.1838 44.5215 9.4838 40.4669 8.45851L43.405 7.10355V7.10381C43.7616 6.93934 43.9167 6.5179 43.7525 6.16189C43.5881 5.80588 43.1656 5.65082 42.809 5.81493L38.4025 7.84689C38.0483 8.00997 37.8923 8.42814 38.0527 8.78364L38.0526 8.78382Z" fill="black"/>
</svg>
