<svg width="50" height="71" viewBox="0 0 50 71" fill="none" xmlns="http://www.w3.org/2000/svg">
<path d="M2.3899 68.2098L1.91991 68.6826L2.38989 68.2098C1.32478 67.1511 0.666667 65.6935 0.666667 64.0922V7.28123C0.666667 5.67934 1.32484 4.22221 2.38988 3.16364L2.38989 3.16363C3.45505 2.10489 4.92341 1.44914 6.53819 1.44914H43.4618C45.0772 1.44914 46.5451 2.10495 47.6101 3.16362L48.0785 2.69241L47.6101 3.16363C48.6752 4.22231 49.3333 5.67996 49.3333 7.28123V64.0922C49.3333 65.6941 48.6752 67.1512 47.6101 68.2098C46.545 69.2685 45.0766 69.9243 43.4618 69.9243H6.53819C4.92278 69.9243 3.45495 69.2685 2.3899 68.2098ZM2.99062 3.74909L2.99041 3.7493C2.08069 4.65353 1.51265 5.90354 1.51265 7.28137V64.0923C1.51265 65.4697 2.08146 66.7201 2.9902 67.6242L2.99041 67.6244C3.90007 68.5286 5.1558 69.0916 6.53819 69.0916H43.4618C44.8437 69.0916 46.0999 68.5278 47.0094 67.6246L47.0096 67.6244C47.9193 66.7202 48.4874 65.4701 48.4874 64.0923V7.28137C48.4874 5.90404 47.9185 4.65356 47.0098 3.7495L47.0096 3.7493C46.0999 2.84512 44.8442 2.28211 43.4618 2.28211H6.53819C5.1563 2.28211 3.90011 2.84588 2.99062 3.74909Z" fill="#910010" stroke="#0099B5" stroke-width="1.33333"/>
<path d="M8.07194 41.4926C8.07194 41.2662 8.25744 41.0761 8.495 41.0761H41.5081C41.7456 41.0761 41.9311 41.2662 41.9311 41.4926C41.9311 41.7189 41.7456 41.9091 41.5081 41.9091H8.495C8.25744 41.9091 8.07194 41.7189 8.07194 41.4926Z" fill="#910010" stroke="#0099B5" stroke-width="1.33333"/>
<path d="M8.07194 50.8742C8.07194 50.6478 8.25744 50.4577 8.495 50.4577H41.5081C41.7456 50.4577 41.9311 50.6478 41.9311 50.8742C41.9311 51.1005 41.7456 51.2907 41.5081 51.2907H8.495C8.25744 51.2907 8.07194 51.1005 8.07194 50.8742Z" fill="#910010" stroke="#0099B5" stroke-width="1.33333"/>
<path d="M8.07194 60.2555C8.07194 60.0292 8.25744 59.839 8.495 59.839H41.5081C41.7456 59.839 41.9311 60.0292 41.9311 60.2555C41.9311 60.4818 41.7456 60.672 41.5081 60.672H8.495C8.25744 60.672 8.07194 60.4818 8.07194 60.2555Z" fill="#910010" stroke="#0099B5" stroke-width="1.33333"/>
<path d="M25.5449 30.8825V32.5285H25.521V30.907V30.318L24.9365 30.2454C23.8314 30.1081 22.98 29.8673 22.3514 29.5456C21.7569 29.2411 21.2148 28.7339 20.7418 27.9937C20.3724 27.4122 20.1184 26.714 19.9957 25.8828L21.0404 25.6868C21.2392 26.6493 21.5473 27.4464 22.0038 28.0266L22.0051 28.0283C22.7464 28.964 23.6795 29.524 24.7877 29.6355L25.5211 29.7093V28.9722V21.6925V21.1395L24.9776 21.0373C24.1127 20.8748 23.2156 20.5391 22.2759 20.0165L22.2758 20.0164C21.6505 19.6688 21.1777 19.1943 20.8421 18.5855L20.8421 18.5855C20.5058 17.9753 20.3314 17.2728 20.3314 16.4559C20.3314 15.0091 20.838 13.8781 21.8395 13.0067L21.8395 13.0067L21.8412 13.0052C22.4734 12.4512 23.4701 12.0664 24.9206 11.9221L25.5213 11.8624V11.2588V10.8319H25.5455V11.2588V11.8656L26.1497 11.9225C27.3936 12.0396 28.3179 12.3971 28.9671 12.938L28.9671 12.938L28.9705 12.9408C29.6832 13.5266 30.1704 14.2991 30.4222 15.2885L29.3594 15.4475C29.1828 14.7533 28.8969 14.1556 28.4751 13.6892C27.9346 13.0874 27.2084 12.7114 26.3447 12.5363L25.5455 12.3743V13.1897V19.784V20.3038L26.0497 20.4306C27.2123 20.7229 27.9288 20.9367 28.2481 21.073C28.9034 21.3588 29.4133 21.6981 29.7924 22.075L29.7924 22.075C30.1792 22.4594 30.4773 22.9142 30.6843 23.4452L30.6852 23.4476C30.8967 23.9839 31.0052 24.5688 31.0052 25.2121C31.0052 26.6422 30.5518 27.7914 29.6671 28.7163L29.6661 28.7174C28.7854 29.6421 27.6397 30.1453 26.1791 30.2166L25.5449 30.2475V30.8825ZM22.1133 18.6629C22.6736 19.3295 23.5573 19.8011 24.6641 20.1307L25.5211 20.386V19.4918V13.1617L24.849 13.1274L24.755 12.5033C23.7354 12.6569 22.8761 13.0728 22.2398 13.7857L22.2398 13.7857C21.6136 14.4873 21.2979 15.327 21.2979 16.2772C21.2979 17.1861 21.5562 18.0002 22.1133 18.6629ZM25.5453 28.9721L25.5453 29.7244L26.2921 29.6339C27.3458 29.5063 28.2338 29.0435 28.928 28.2602C29.6333 27.465 29.9734 26.482 29.9734 25.3622C29.9734 24.4206 29.7337 23.5914 29.2032 22.9409L29.2013 22.9386C28.6583 22.2789 27.6739 21.7808 26.4174 21.3741L25.5454 21.0918L25.5454 22.0083L25.5453 28.9721Z" fill="#910010" stroke="#0099B5" stroke-width="1.33333"/>
</svg>
