<svg width="20" height="15" viewBox="0 0 20 15" fill="none" xmlns="http://www.w3.org/2000/svg">
<path opacity="0.7" d="M17.8785 14.375H2.13031C1.57347 14.3745 1.03971 14.1406 0.646008 13.7251C0.252304 13.3093 0.0308333 12.7457 0.0302269 12.1578V2.68409C-0.0747471 2.02523 0.0965582 1.35059 0.499587 0.835379C0.902616 0.320367 1.49766 0.01549 2.13031 0H17.8789C18.4972 0.0107882 19.0814 0.301442 19.4831 0.798035C19.8848 1.29444 20.0653 1.94926 19.9788 2.59592C20.0377 2.71318 19.9365 12.044 19.9789 12.1577C19.9782 12.7457 19.7567 13.3092 19.363 13.7249C18.9693 14.1405 18.4356 14.3744 17.8787 14.3749L17.8785 14.375ZM0.888212 12.9201C1.14554 13.387 1.61846 13.6742 2.13001 13.6745H17.8782C18.3897 13.6742 18.8627 13.387 19.12 12.9201L11.6765 8.15466C10.8337 8.78195 9.8546 9.13406 8.90728 8.51818L8.33149 8.15466L0.888212 12.9201ZM12.3173 7.746L19.3139 12.2249C19.3176 12.1469 19.3139 3.34316 19.3152 3.26391L12.3173 7.746ZM0.693009 3.26431C0.694341 3.33169 0.690492 12.1633 0.694341 12.2253L7.69096 7.746L0.693009 3.26431ZM8.50645 7.44981L9.24807 7.91775V7.91759C9.47638 8.06238 9.73771 8.13883 10.0041 8.13883C10.2703 8.13899 10.5316 8.06253 10.76 7.91791C10.8261 7.88007 18.995 2.65371 19.3153 2.44517H19.3151C19.3674 2.00725 19.2405 1.56665 18.9663 1.23359C18.6919 0.900565 18.2963 0.706852 17.8785 0.700888H2.12993C1.71197 0.70683 1.31633 0.900549 1.04199 1.23359C0.767777 1.56662 0.64074 2.00721 0.693156 2.44517C0.696118 2.44736 8.50281 7.4468 8.5066 7.45L8.50645 7.44981Z" fill="#171717"/>
</svg>
