<svg width="20" height="20" viewBox="0 0 20 20" fill="none" xmlns="http://www.w3.org/2000/svg">
<path opacity="0.7" d="M19.927 15.1373C19.7911 14.7295 19.4807 14.4085 19.0754 14.2566L14.835 12.6655C14.4026 12.5033 13.9508 12.552 13.5627 12.8032L12.1345 13.728C11.8665 13.9015 11.5454 13.9032 11.2757 13.7326C10.2743 13.0992 9.33883 12.3498 8.49539 11.5049L8.49495 11.5044C7.65003 10.6611 6.90051 9.72554 6.26718 8.72411C6.09655 8.4544 6.09831 8.13315 6.27174 7.86537L7.1966 6.43715C7.44761 6.04937 7.49649 5.59756 7.33425 5.16485L5.74365 0.924482C5.59157 0.519327 5.27046 0.208847 4.86297 0.0729408C4.45517 -0.0629463 4.01217 -0.00729497 3.64734 0.225905L1.42753 1.64425C0.30405 2.36211 -0.221827 3.66354 0.0874882 4.96026C0.946085 8.55808 2.81539 11.8603 5.49061 14.5068C8.13989 17.1847 11.4417 19.0536 15.0399 19.9126C15.2868 19.9714 15.5337 20 15.7769 20C16.8109 20 17.7749 19.4821 18.356 18.5725L19.7742 16.3527C20.0074 15.9879 20.0629 15.5449 19.927 15.1371L19.927 15.1373ZM19.2475 16.0165L17.8293 18.2363C17.2568 19.1321 16.2189 19.5514 15.1852 19.3048C11.7006 18.4733 8.50179 16.6622 5.93253 14.0653C3.33785 11.4984 1.52666 8.29967 0.695238 4.81534C0.448491 3.78138 0.868077 2.74347 1.76391 2.17124L3.98362 0.753048C4.11538 0.668836 4.26481 0.625701 4.41512 0.625701C4.49904 0.625701 4.58325 0.639099 4.66481 0.666334C4.89286 0.742446 5.07261 0.916463 5.15801 1.14438L6.74906 5.38513C6.84137 5.63099 6.81458 5.87757 6.67192 6.09812L5.74706 7.52634C5.44186 7.9973 5.43877 8.58472 5.73867 9.05892C6.39676 10.0995 7.17542 11.0712 8.05286 11.9473C8.92898 12.8249 9.90065 13.6034 10.9412 14.2614C11.4154 14.5613 12.0027 14.5582 12.4738 14.2531L13.9021 13.3282C14.1226 13.1856 14.3692 13.1588 14.6151 13.2511L18.8559 14.8421C19.0836 14.9276 19.2579 15.1072 19.3339 15.3353C19.4102 15.563 19.3785 15.8116 19.2475 16.0166L19.2475 16.0165Z" fill="#171717"/>
</svg>
