<svg width="20" height="20" viewBox="0 0 20 20" fill="none" xmlns="http://www.w3.org/2000/svg">
<path opacity="0.7" d="M18.7278 20H0.472383C0.211554 20 0 19.7939 0 19.5403V18.0685C0 13.5742 3.57761 10.6702 9.11401 10.6702H10.086C15.6222 10.6702 19.2 13.5741 19.2 18.0685V19.5401C19.2002 19.7939 18.9886 20 18.7278 20H18.7278ZM0.944809 19.0804H18.2554V18.0684C18.2554 13.2916 14.0356 11.5896 10.0862 11.5896H9.11427C5.16509 11.5896 0.945104 13.2915 0.945104 18.0684L0.944809 19.0804ZM9.60032 9.59254C7.1955 9.59254 5.23924 7.68862 5.23924 5.34823V4.24431C5.23924 1.90372 7.19571 0 9.60032 0C12.0049 0 13.9614 1.90393 13.9614 4.24431V5.34823C13.9614 7.68849 12.0049 9.59254 9.60032 9.59254ZM9.60032 0.919184C7.71652 0.919184 6.18401 2.41067 6.18401 4.24403V5.34794C6.18401 7.1813 7.71652 8.67279 9.60032 8.67279C11.4841 8.67279 13.0166 7.1813 13.0166 5.34794V4.24403C13.0166 2.41067 11.4841 0.919184 9.60032 0.919184Z" fill="#171717"/>
</svg>
