<svg width="466" height="68" viewBox="0 0 466 68" fill="none" xmlns="http://www.w3.org/2000/svg">
<path opacity="0.5" fill-rule="evenodd" clip-rule="evenodd" d="M34.6343 67.1821H36.6343V47.1816V45.1816H34.6343H26.1843H24.1843V47.1816V57.9316H13.1343V47.1816V45.1816H11.1343H2.68433H0.684326V47.1816V67.1821H2.68433V49.1816V47.1816H4.68433H9.13433H11.1343V49.1816V57.9316V59.9316H13.1343H24.1843H26.1843V57.9316V49.1816V47.1816H28.1843H32.6343H34.6343V49.1816V67.1821ZM72.3842 67.1821L60.9327 44.0929L59.1385 40.4754L57.3483 44.0949L45.9288 67.1821H48.1601L58.0262 47.2352L59.141 44.9816L60.2581 47.234L70.1517 67.1821H72.3842ZM174.611 67.1821V45.4551L174.718 40.9404L174.611 41.0337V40.4136L171.225 43.9867L150.411 62.1379V47.1816V45.1816H148.411H140.311H138.311V47.1816V67.1821H140.311V49.1816V47.1816H142.311H146.411H148.411V49.1816V63.8821V66.5358L150.411 64.7916L162.461 54.2831L162.75 54.0316L163.641 53.2543L170.569 47.213L170.611 47.1757L172.611 45.4316V48.0853V48.3391V55.9875V56.2682V58.4172V67.1821H174.611ZM257.66 67.1821V56.7316H250.06V67.1821H248.06V56.7316V54.7316H250.06H257.66H259.66V56.7316V67.1821H257.66ZM312.736 67.1821V45.4558L312.843 40.9404L312.736 41.0337V40.4136L309.35 43.9868L288.536 62.138V47.1816V45.1816H286.536H278.436H276.436V47.1816V67.1821H278.436V49.1816V47.1816H280.436H284.536H286.536V49.1816V63.8821V66.5358L288.536 64.7916L300.586 54.2831L300.875 54.0316L301.766 53.2543L308.693 47.213L308.736 47.1757L310.736 45.4316V48.0853V48.3391V55.9875V56.2682V58.4172V67.1821H312.736ZM344.884 67.1821V67.1816V60.3816V58.3816H342.884H330.734V56.1316H343.884H345.884V54.1316V47.1816V45.1816H343.884H330.734H328.734H326.234H324.234H320.634H318.634V47.1816V67.1821H320.634V49.1816V47.1816H322.634H324.234H326.234H326.734H328.234H328.734H330.734H341.884H343.884V49.1816V52.1316V54.1316H341.884H330.734H328.734V56.1316V58.3816V60.3816H330.734H340.884H342.884V62.3816V65.1816V67.1816H340.884H330.734H328.734V67.1821H344.884ZM387.21 67.1821V47.1816V45.1816H385.21H376.76H374.76V47.1816V57.9316H363.71V47.1816V45.1816H361.71H353.26H351.26V47.1816V67.1821H353.26V49.1816V47.1816H355.26H359.71H361.71V49.1816V57.9316V59.9316H363.71H374.76H376.76V57.9316V49.1816V47.1816H378.76H383.21H385.21V49.1816V67.1821H387.21ZM411.617 67.1821V56.7316H419.267H421.267V54.7316V47.1816V45.1816H419.267H391.567H389.567V47.1816V54.7316V56.7316H391.567H399.167V67.1821H401.167V56.7316V54.7316H399.167H393.567H391.567V52.7316V49.1816V47.1816H393.567H417.267H419.267V49.1816V52.7316V54.7316H417.267H411.617H409.617V56.7316V67.1821H411.617ZM465.594 67.1821V47.1816V45.1816H463.594H454.994H452.994V47.1816V67.1821H454.994V49.1816V47.1816H456.994H461.594H463.594V49.1816V67.1821H465.594ZM452.955 67.1821C452.654 65.8974 452.174 64.6966 451.504 63.5927C450.237 61.5086 448.375 59.9558 446.022 58.9108C443.686 57.8248 440.9 57.3316 437.744 57.3316H436.044V47.1816V45.1816H434.044H425.594H423.594V47.1816V67.1821H425.594V49.1816V47.1816H427.594H432.044H434.044V49.1816V57.3316V59.3316H436.044H437.744C440.711 59.3316 443.194 59.7982 445.194 60.7316C447.228 61.6316 448.761 62.9316 449.794 64.6316C450.269 65.4116 450.634 66.2617 450.891 67.1821H452.955ZM441.429 67.1821C441.191 67.0291 440.929 66.8956 440.644 66.7816C439.844 66.4482 438.878 66.2816 437.744 66.2816H436.044H434.044V67.1821H441.429ZM302.586 67.1821V65.5246V62.871L300.586 64.6151L297.643 67.1821H302.586ZM270.26 67.1821H268.26V49.1816V47.1816H266.26H241.51H239.51V49.1816V67.1821H237.51V47.1816V45.1816H239.51H268.26H270.26V47.1816V67.1821ZM221.809 67.1821L218.953 63.6292L232.061 48.4907L234.926 45.1816H230.549H220.649H219.732L219.134 45.8759L210.749 55.6048V47.1816V45.1816H208.749H199.999H197.999V47.1816V67.1821H199.999V49.1816V47.1816H201.999H206.749H208.749V49.1816V57.9254V60.9889L210.749 58.6683L220.649 47.1816H227.903H230.549L228.817 49.1816L216.349 63.5816L219.243 67.1821H221.809ZM208.992 67.1821L208.749 66.8795V67.1821H208.992ZM164.461 67.1821V65.5246V62.8709L162.461 64.6151L159.518 67.1821H164.461ZM132.109 67.1821H130.109V49.1816V47.1816H128.109H123.659H121.659V49.1816V67.1821H119.659V47.1816V45.1816H121.659H130.109H132.109V47.1816V67.1821ZM113.159 67.1821V47.1816V45.1816H111.159H103.009H101.009V47.1816V67.1821H103.009V49.1816V47.1816H105.009H109.159H111.159V49.1816V67.1821H113.159ZM92.5085 67.1821H94.5085V47.1816V45.1816H92.5085H84.0585H82.0585V47.1816V67.1821H84.0585V49.1816V47.1816H86.0585H90.5085H92.5085V49.1816V67.1821ZM62.2595 67.1821L62.172 66.9816L60.2341 62.538L59.141 60.0316L58.0531 62.5402L56.1273 66.9816L56.0403 67.1821H62.2595ZM58.3072 66.9816L59.1462 65.0466L59.9901 66.9816H58.3072Z" fill="#171717"/>
<path opacity="0.2" fill-rule="evenodd" clip-rule="evenodd" d="M33.9979 26.7685H35.9979V6.76799V4.76799H33.9979H25.5479H23.5479V6.76799V17.518H12.4979V6.76799V4.76799H10.4979H2.04785H0.0478516V6.76799V26.7685H2.04785V8.76799V6.76799H4.04785H8.49786H10.4979V8.76799V17.518V19.518H12.4979H23.5479H25.5479V17.518V8.76799V6.76799H27.5479H31.9979H33.9979V8.76799V26.7685ZM71.7477 26.7685L60.2962 3.67935L58.5021 0.061841L56.7118 3.68128L45.2923 26.7685H47.5236L57.3898 6.82167L58.5045 4.56799L59.6217 6.82046L69.5152 26.7685H71.7477ZM173.975 26.7685V5.04219L174.082 0.526853L173.975 0.620159V0L170.589 3.57321L149.775 21.7244V6.76799V4.76799H147.775H139.675H137.675V6.76799V26.7685H139.675V8.76799V6.76799H141.675H145.775H147.775V8.76799V23.4685V26.1222L149.775 24.378L161.825 13.8695L162.113 13.618L163.005 12.8407L169.932 6.79945L169.975 6.76214L171.975 5.01799V7.67168V7.92556V15.5739V15.8547V18.0037V26.7685H173.975ZM257.023 26.7685V16.318H249.423V26.7685H247.423V16.318V14.318H249.423H257.023H259.023V16.318V26.7685H257.023ZM312.1 26.7685V5.04219L312.207 0.526853L312.1 0.620159V0L308.714 3.57321L287.9 21.7244V6.76799V4.76799H285.9H277.8H275.8V6.76799V26.7685H277.8V8.76799V6.76799H279.8H283.9H285.9V8.76799V23.4685V26.1222L287.9 24.3781L299.95 13.8695L300.238 13.618L301.13 12.8407L308.057 6.79946L308.1 6.76214L310.1 5.01799V7.67168V7.92556V15.5739V15.8547V18.0037V26.7685H312.1ZM344.247 26.7685V26.768V19.968V17.968H342.247H330.097V15.718H343.247H345.247V13.718V6.76799V4.76799H343.247H330.097H328.097H325.597H323.597H319.997H317.997V6.76799V26.7685H319.997V8.76799V6.76799H321.997H323.597H325.597H326.097H327.597H328.097H330.097H341.247H343.247V8.76799V11.718V13.718H341.247H330.097H328.097V15.718V17.968V19.968H330.097H340.247H342.247V21.968V24.768V26.768H340.247H330.097H328.097V26.7685H344.247ZM386.574 26.7685V6.76799V4.76799H384.574H376.124H374.124V6.76799V17.518H363.074V6.76799V4.76799H361.074H352.624H350.624V6.76799V26.7685H352.624V8.76799V6.76799H354.624H359.074H361.074V8.76799V17.518V19.518H363.074H374.124H376.124V17.518V8.76799V6.76799H378.124H382.574H384.574V8.76799V26.7685H386.574ZM410.981 26.7685V16.318H418.631H420.631V14.318V6.76799V4.76799H418.631H390.931H388.931V6.76799V14.318V16.318H390.931H398.531V26.7685H400.531V16.318V14.318H398.531H392.931H390.931V12.318V8.76799V6.76799H392.931H416.631H418.631V8.76799V12.318V14.318H416.631H410.981H408.981V16.318V26.7685H410.981ZM464.958 26.7685V6.76799V4.76799H462.958H454.358H452.358V6.76799V26.7685H454.358V8.76799V6.76799H456.358H460.958H462.958V8.76799V26.7685H464.958ZM452.318 26.7685C452.017 25.4838 451.538 24.2831 450.867 23.1792C449.6 21.0948 447.738 19.5419 445.385 18.4969C443.049 17.4112 440.263 16.918 437.108 16.918H435.408V6.76799V4.76799H433.408H424.958H422.958V6.76799V26.7685H424.958V8.76799V6.76799H426.958H431.408H433.408V8.76799V16.918V18.918H435.408H437.108C440.075 18.918 442.558 19.3847 444.558 20.318C446.591 21.218 448.125 22.518 449.158 24.218C449.632 24.998 449.997 25.8482 450.254 26.7685H452.318ZM440.793 26.7685C440.555 26.6155 440.293 26.482 440.008 26.368C439.208 26.0347 438.241 25.868 437.108 25.868H435.408H433.408V26.7685H440.793ZM301.95 26.7685V25.1111V22.4574L299.95 24.2015L297.006 26.7685H301.95ZM269.623 26.7685H267.623V8.76799V6.76799H265.623H240.873H238.873V8.76799V26.7685H236.873V6.76799V4.76799H238.873H267.623H269.623V6.76799V26.7685ZM221.172 26.7685L218.317 23.2156L231.424 8.07715L234.29 4.76799H229.912H220.012H219.096L218.497 5.46229L210.112 15.1912V6.76799V4.76799H208.112H199.362H197.362V6.76799V26.7685H199.362V8.76799V6.76799H201.362H206.112H208.112V8.76799V17.5118V20.5753L210.112 18.2547L220.012 6.76799H227.267H229.912L228.181 8.76799L215.712 23.168L218.606 26.7685H221.172ZM208.355 26.7685L208.112 26.466V26.7685H208.355ZM163.825 26.7685V25.1111V22.4574L161.825 24.2015L158.881 26.7685H163.825ZM131.472 26.7685H129.472V8.76799V6.76799H127.472H123.022H121.022V8.76799V26.7685H119.022V6.76799V4.76799H121.022H129.472H131.472V6.76799V26.7685ZM112.522 26.7685V6.76799V4.76799H110.522H102.372H100.372V6.76799V26.7685H102.372V8.76799V6.76799H104.372H108.522H110.522V8.76799V26.7685H112.522ZM91.8721 26.7685H93.8721V6.76799V4.76799H91.8721H83.4221H81.4221V6.76799V26.7685H83.4221V8.76799V6.76799H85.4221H89.8721H91.8721V8.76799V26.7685ZM61.623 26.7685L61.5356 26.568L59.5976 22.1244L58.5045 19.618L57.4167 22.1267L55.4908 26.568L55.4038 26.7685H61.623ZM57.6707 26.568L58.5098 24.6331L59.3536 26.568H57.6707Z" fill="#171717"/>
</svg>
