<svg width="97" height="38" viewBox="0 0 97 38" fill="none" xmlns="http://www.w3.org/2000/svg">
<g clip-path="url(#clip0_230_10)">
<path d="M68.6358 37.8655C66.3759 37.7628 65.1483 37.3867 64.3318 37.0683C63.2498 36.6471 62.4785 36.1456 61.6664 35.3347C60.8544 34.5237 60.3519 33.7525 59.9329 32.6705C59.6144 31.8539 59.2383 30.6264 59.1355 28.3664C59.0226 25.9236 59 25.1906 59 19.0018C59 12.8127 59.0248 12.0809 59.1344 9.63581C59.2372 7.37593 59.6155 6.15056 59.9317 5.33177C60.353 4.24983 60.8556 3.47846 61.6653 2.66532C62.4762 1.85443 63.2476 1.35073 64.3306 0.931732C65.1472 0.61325 66.3748 0.237168 68.6347 0.134395C71.0786 0.0225875 71.8127 0 77.9994 0C84.1884 0 84.9202 0.0248461 87.3654 0.134395C89.6252 0.237168 90.8506 0.615508 91.6693 0.931732C92.7513 1.35073 93.5227 1.85443 94.3347 2.66532C95.1468 3.47621 95.6471 4.24871 96.0683 5.33064C96.3867 6.14717 96.7628 7.37481 96.8655 9.63468C96.9773 12.0798 97 12.8116 97 19.0006C97 25.1873 96.9773 25.9214 96.8655 28.3664C96.7628 30.6264 96.3845 31.8539 96.0683 32.6705C95.6471 33.7525 95.1456 34.5237 94.3347 35.3347C93.5237 36.1456 92.7513 36.6471 91.6693 37.0683C90.8528 37.3867 89.6252 37.7628 87.3654 37.8655C84.9224 37.9773 84.1884 38 77.9994 38C71.8127 38 71.0786 37.9785 68.6358 37.8655Z" fill="url(#paint0_radial_230_10)"/>
<path d="M68.6358 37.8655C66.3759 37.7628 65.1483 37.3867 64.3318 37.0683C63.2498 36.6471 62.4785 36.1456 61.6664 35.3347C60.8544 34.5237 60.3519 33.7525 59.9329 32.6705C59.6144 31.8539 59.2383 30.6264 59.1355 28.3664C59.0226 25.9236 59 25.1906 59 19.0018C59 12.8127 59.0248 12.0809 59.1344 9.63581C59.2372 7.37593 59.6155 6.15056 59.9317 5.33177C60.353 4.24983 60.8556 3.47846 61.6653 2.66532C62.4762 1.85443 63.2476 1.35073 64.3306 0.931732C65.1472 0.61325 66.3748 0.237168 68.6347 0.134395C71.0786 0.0225875 71.8127 0 77.9994 0C84.1884 0 84.9202 0.0248461 87.3654 0.134395C89.6252 0.237168 90.8506 0.615508 91.6693 0.931732C92.7513 1.35073 93.5227 1.85443 94.3347 2.66532C95.1468 3.47621 95.6471 4.24871 96.0683 5.33064C96.3867 6.14717 96.7628 7.37481 96.8655 9.63468C96.9773 12.0798 97 12.8116 97 19.0006C97 25.1873 96.9773 25.9214 96.8655 28.3664C96.7628 30.6264 96.3845 31.8539 96.0683 32.6705C95.6471 33.7525 95.1456 34.5237 94.3347 35.3347C93.5237 36.1456 92.7513 36.6471 91.6693 37.0683C90.8528 37.3867 89.6252 37.7628 87.3654 37.8655C84.9224 37.9773 84.1884 38 77.9994 38C71.8127 38 71.0786 37.9785 68.6358 37.8655Z" fill="url(#paint1_radial_230_10)"/>
<path d="M73.3349 19.081C73.3349 16.4822 75.441 14.3749 78.0399 14.3749C80.6387 14.3749 82.7459 16.4822 82.7459 19.081C82.7459 21.6797 80.6387 23.787 78.0399 23.787C75.441 23.787 73.3349 21.6797 73.3349 19.081ZM70.7909 19.081C70.7909 23.0846 74.0362 26.3299 78.0399 26.3299C82.0435 26.3299 85.2888 23.0846 85.2888 19.081C85.2888 15.0774 82.0435 11.832 78.0399 11.832C74.0362 11.832 70.791 15.0771 70.791 19.081H70.7909ZM83.8818 11.5446C83.8817 11.8796 83.9809 12.2072 84.167 12.4858C84.353 12.7645 84.6176 12.9817 84.927 13.1101C85.2365 13.2384 85.5771 13.2721 85.9058 13.2069C86.2345 13.1416 86.5363 12.9804 86.7733 12.7436C87.0104 12.5068 87.1717 12.205 87.2374 11.8764C87.3028 11.5478 87.2694 11.2072 87.1413 10.8976C87.0132 10.588 86.7961 10.3233 86.5177 10.1371C86.2391 9.9508 85.9116 9.85132 85.5766 9.85118H85.5759C85.1268 9.8514 84.6962 10.0299 84.3784 10.3474C84.0609 10.6649 83.8823 11.0954 83.8818 11.5446ZM72.3365 30.572C70.9602 30.5093 70.2121 30.2802 69.7149 30.0864C69.0558 29.8299 68.5855 29.5243 68.0911 29.0304C67.5967 28.5367 67.2906 28.067 67.0351 27.4078C66.8413 26.9109 66.6121 26.1626 66.5495 24.7862C66.4811 23.2981 66.4674 22.8512 66.4674 19.0811C66.4674 15.3112 66.4822 14.8655 66.5495 13.3762C66.6122 11.9998 66.8431 11.253 67.0351 10.7546C67.2917 10.0955 67.5973 9.62519 68.0911 9.13076C68.5849 8.63632 69.0547 8.33026 69.7149 8.07479C70.2118 7.88099 70.9602 7.65174 72.3365 7.58917C73.8245 7.52073 74.2716 7.50706 78.0399 7.50706C81.8082 7.50706 82.2556 7.52163 83.7449 7.5894C85.1212 7.65207 85.868 7.88303 86.3664 8.07503C87.0256 8.33049 87.4959 8.63722 87.9903 9.13099C88.4848 9.62474 88.7897 10.0957 89.0463 10.7548C89.2401 11.2517 89.4693 12 89.5318 13.3764C89.6004 14.8658 89.614 15.3115 89.614 19.0814C89.614 22.8513 89.6004 23.2971 89.5318 24.7864C89.4693 26.1627 89.2388 26.9109 89.0463 27.408C88.7897 28.0671 88.4841 28.5374 87.9903 29.0307C87.4965 29.524 87.0256 29.83 86.3664 30.0867C85.8695 30.2805 85.1212 30.5098 83.7449 30.5723C82.2569 30.6407 81.8098 30.6543 78.0399 30.6543C74.2699 30.6543 73.8241 30.6407 72.3365 30.5723V30.572ZM72.2196 5.04934C70.7168 5.11777 69.6898 5.35607 68.793 5.70504C67.8648 6.06543 67.0779 6.5489 66.2922 7.33337C65.5065 8.11782 65.0243 8.90477 64.6639 9.83414C64.3149 10.7315 64.0766 11.7579 64.0082 13.2607C63.9386 14.7659 63.9227 15.2472 63.9227 19.081C63.9227 22.9147 63.9386 23.3959 64.0082 24.9011C64.0766 26.4042 64.3149 27.4303 64.6639 28.3277C65.0243 29.2561 65.5067 30.0444 66.2922 30.8285C67.0778 31.6127 67.8636 32.0954 68.793 32.4568C69.6915 32.8059 70.7168 33.0441 72.2196 33.1126C73.7256 33.181 74.2061 33.1981 78.0399 33.1981C81.8737 33.1981 82.3548 33.1822 83.86 33.1126C85.3631 33.0441 86.3892 32.8059 87.2868 32.4568C88.215 32.0954 89.0017 31.6129 89.7875 30.8285C90.5732 30.0441 91.0545 29.2561 91.4158 28.3277C91.7648 27.4303 92.0042 26.404 92.0715 24.9011C92.1399 23.3949 92.1559 22.9147 92.1559 19.081C92.1559 15.2472 92.1399 14.7659 92.0715 13.2607C92.003 11.7578 91.7648 10.731 91.4158 9.83414C91.0545 8.9059 90.5719 8.11906 89.7875 7.33337C89.003 6.54766 88.215 6.06543 87.2878 5.70504C86.3892 5.35607 85.3629 5.11664 83.8612 5.04934C82.3557 4.98056 81.8747 4.96384 78.0415 4.96384C74.2083 4.96384 73.7262 4.97977 72.2202 5.04934" fill="white"/>
</g>
<g clip-path="url(#clip1_230_10)">
<path d="M35.9029 38C37.061 38 37.9999 37.0608 37.9999 35.9027V2.09723C37.9999 0.938698 37.0609 0 35.9029 0H2.09747C0.938943 0 0.000244141 0.938841 0.000244141 2.09723V35.9027C0.000244141 37.0608 0.938943 37.9999 2.09747 37.9999H35.9029V38Z" fill="#485A96"/>
<path d="M26.2193 38V23.2844H31.1587L31.8981 17.5493H26.2191V13.8878C26.2191 12.2274 26.6801 11.0959 29.0612 11.0959L32.098 11.0945V5.96521C31.5727 5.89545 29.7701 5.73926 27.6729 5.73926C23.2944 5.73926 20.2968 8.41183 20.2968 13.32V17.5493H15.3447V23.2844H20.2968V37.9999H26.2193V38Z" fill="white"/>
</g>
<defs>
<radialGradient id="paint0_radial_230_10" cx="0" cy="0" r="1" gradientUnits="userSpaceOnUse" gradientTransform="translate(61.4593 37.1675) scale(48.2458)">
<stop offset="0.09" stop-color="#FA8F21"/>
<stop offset="0.78" stop-color="#D82D7E"/>
</radialGradient>
<radialGradient id="paint1_radial_230_10" cx="0" cy="0" r="1" gradientUnits="userSpaceOnUse" gradientTransform="translate(85.3213 35.9474) scale(42.4568)">
<stop offset="0.64" stop-color="#8C3AAA" stop-opacity="0"/>
<stop offset="1" stop-color="#8C3AAA"/>
</radialGradient>
<clipPath id="clip0_230_10">
<rect width="38" height="38" fill="white" transform="translate(59)"/>
</clipPath>
<clipPath id="clip1_230_10">
<rect width="38" height="38" fill="white"/>
</clipPath>
</defs>
</svg>
