<svg width="113" height="62" viewBox="0 0 113 62" fill="none" xmlns="http://www.w3.org/2000/svg">
<g opacity="0.6">
<path d="M109.479 38.5117L112.614 40.5789C111.597 42.0612 109.163 44.6043 104.956 44.6043C99.7315 44.6043 95.8406 40.6061 95.8406 35.5198C95.8406 30.1072 99.7727 26.4353 104.516 26.4353C109.287 26.4353 111.624 30.1888 112.38 32.2151L112.793 33.2487L100.501 38.2805C101.436 40.1029 102.894 41.0276 104.956 41.0276C107.018 41.0276 108.448 40.0213 109.479 38.5117ZM99.8415 35.2342L108.049 31.8615C107.596 30.7328 106.248 29.9304 104.64 29.9304C102.591 29.9304 99.7452 31.7255 99.8415 35.2342Z" fill="#171717"/>
<path d="M89.9158 17.1741H93.8754V43.7748H89.9158V17.1741Z" fill="#171717"/>
<path d="M83.6736 27.1425H87.4957V43.2988C87.4957 50.0034 83.4949 52.7641 78.7653 52.7641C74.3107 52.7641 71.6297 49.7994 70.6261 47.3923L74.132 45.9507C74.7644 47.4331 76.2905 49.1874 78.7653 49.1874C81.8038 49.1874 83.6736 47.3243 83.6736 43.8428V42.5372H83.5361C82.6287 43.6252 80.8964 44.6044 78.6966 44.6044C74.1045 44.6044 69.8974 40.6469 69.8974 35.547C69.8974 30.42 74.1045 26.4217 78.6966 26.4217C80.8826 26.4217 82.6287 27.3873 83.5361 28.4481H83.6736V27.1425ZM83.9486 35.547C83.9486 32.3375 81.79 29.9984 79.0403 29.9984C76.263 29.9984 73.9258 32.3375 73.9258 35.547C73.9258 38.7157 76.263 41.0141 79.0403 41.0141C81.79 41.0277 83.9486 38.7157 83.9486 35.547Z" fill="#171717"/>
<path d="M48.161 35.4791C48.161 40.7149 44.0364 44.5636 38.9768 44.5636C33.9173 44.5636 29.7927 40.7013 29.7927 35.4791C29.7927 30.216 33.9173 26.381 38.9768 26.381C44.0364 26.381 48.161 30.216 48.161 35.4791ZM44.1464 35.4791C44.1464 32.2152 41.7541 29.9712 38.9768 29.9712C36.1996 29.9712 33.8073 32.2152 33.8073 35.4791C33.8073 38.7158 36.1996 40.9869 38.9768 40.9869C41.7541 40.9869 44.1464 38.7158 44.1464 35.4791Z" fill="#171717"/>
<path d="M68.2204 35.5198C68.2204 40.7556 64.0958 44.6043 59.0363 44.6043C53.9768 44.6043 49.8522 40.7556 49.8522 35.5198C49.8522 30.2567 53.9768 26.4352 59.0363 26.4352C64.0958 26.4352 68.2204 30.2431 68.2204 35.5198ZM64.1921 35.5198C64.1921 32.2559 61.7998 30.0119 59.0226 30.0119C56.2453 30.0119 53.853 32.2559 53.853 35.5198C53.853 38.7565 56.2453 41.0276 59.0226 41.0276C61.8135 41.0276 64.1921 38.7429 64.1921 35.5198Z" fill="#171717"/>
<path d="M14.6963 40.6197C8.93554 40.6197 4.42596 36.023 4.42596 30.3248C4.42596 24.6266 8.93554 20.0299 14.6963 20.0299C17.8035 20.0299 20.072 21.2403 21.7494 22.7906L24.5128 20.0571C22.1756 17.8404 19.0546 16.1541 14.6963 16.1541C6.80449 16.1541 0.163857 22.5187 0.163857 30.3248C0.163857 38.131 6.80449 44.4956 14.6963 44.4956C18.9584 44.4956 22.1756 43.1084 24.6916 40.5245C27.2763 37.9678 28.0738 34.3775 28.0738 31.4672C28.0738 30.556 27.9638 29.6176 27.84 28.9241H14.6963V32.7047H24.0591C23.7842 35.0711 23.028 36.6894 21.9143 37.791C20.567 39.1373 18.4359 40.6197 14.6963 40.6197Z" fill="#171717"/>
</g>
</svg>
